<svg xmlns="http://www.w3.org/2000/svg" viewBox="0 0 960 540">
  <defs>
    <linearGradient id="sky" x1="0" y1="0" x2="0" y2="1">
      <stop offset="0%" stop-color="#0a1628"/>
      <stop offset="40%" stop-color="#0d1f3c"/>
      <stop offset="100%" stop-color="#122a4a"/>
    </linearGradient>
    <filter id="blur1"><feGaussianBlur stdDeviation="3"/></filter>
    <filter id="glow"><feGaussianBlur stdDeviation="6" result="b"/><feMerge><feMergeNode in="b"/><feMergeNode in="SourceGraphic"/></feMerge></filter>
  </defs>
  <rect width="960" height="540" fill="url(#sky)"/>
  <path d="M120,0 C200,80 350,120 480,100 S700,60 840,140 960,80" fill="none" stroke="rgba(180,170,220,0.12)" stroke-width="80" filter="url(#blur1)" stroke-linecap="round"/>
  <path d="M80,20 C220,100 380,90 500,110 S680,80 820,160 960,100" fill="none" stroke="rgba(140,160,210,0.08)" stroke-width="50" filter="url(#blur1)"/>
  <g fill="#f0e8ff" opacity="0.7">
    <circle cx="80" cy="45" r="1.5"/><circle cx="200" cy="30" r="1"/><circle cx="350" cy="70" r="2" filter="url(#glow)"/>
    <circle cx="520" cy="25" r="1.2"/><circle cx="640" cy="60" r="1.8" filter="url(#glow)"/><circle cx="780" cy="40" r="1"/>
    <circle cx="900" cy="55" r="1.5"/><circle cx="150" cy="120" r="1"/><circle cx="420" cy="150" r="1.8" filter="url(#glow)"/>
    <circle cx="600" cy="130" r="1.2"/><circle cx="730" cy="100" r="2" filter="url(#glow)"/><circle cx="860" cy="170" r="1"/>
    <circle cx="300" cy="200" r="1.5"/><circle cx="500" cy="220" r="1"/><circle cx="120" cy="250" r="1.2"/>
  </g>
  <ellipse cx="480" cy="540" rx="600" ry="120" fill="rgba(0,80,110,0.15)" filter="url(#blur1)"/>
</svg>
