<svg xmlns="http://www.w3.org/2000/svg" viewBox="0 0 960 540">
  <defs>
    <filter id="inkWarp" x="-10%" y="-10%" width="120%" height="120%">
      <feTurbulence type="fractalNoise" baseFrequency="0.012 0.02" numOctaves="4" seed="55" result="t"/>
      <feDisplacementMap in="SourceGraphic" in2="t" scale="15"/>
    </filter>
    <filter id="dripFilter">
      <feTurbulence type="fractalNoise" baseFrequency="0.04" numOctaves="3" seed="18" result="n"/>
      <feDisplacementMap in="SourceGraphic" in2="n" scale="4"/>
    </filter>
    <filter id="purpleLightning">
      <feGaussianBlur stdDeviation="5" result="b"/>
      <feColorMatrix in="b" type="matrix" values="0 0 0 0 0.7  0 0 0 0 0.3  0 0 0 0 1  0 0 0 1.2 0" result="c"/>
      <feMerge><feMergeNode in="c"/><feMergeNode in="SourceGraphic"/></feMerge>
    </filter>
    <filter id="fogSoft"><feGaussianBlur stdDeviation="8"/></filter>
    <linearGradient id="wallGrad" x1="0" y1="0" x2="0" y2="1">
      <stop offset="0%" stop-color="#1a0033" stop-opacity="0.8"/>
      <stop offset="100%" stop-color="#0a0014" stop-opacity="0.9"/>
    </linearGradient>
    <linearGradient id="inkDripGrad" x1="0" y1="0" x2="0" y2="1">
      <stop offset="0%" stop-color="#0a0014" stop-opacity="0.8"/>
      <stop offset="60%" stop-color="#0a0014" stop-opacity="0.5"/>
      <stop offset="100%" stop-color="#0a0014" stop-opacity="0"/>
    </linearGradient>
  </defs>
  <!-- Castle wall silhouette -->
  <g filter="url(#inkWarp)">
    <path d="M0,540 L0,320 L40,320 L40,300 L80,300 L80,320 L160,320 L160,280 L180,280 L180,260 L200,260 L200,280 L220,280 L220,320 L350,320 L350,250 L360,220 L370,250 L380,320 L450,320 L450,290 L470,290 L470,270 L490,270 L490,290 L510,290 L510,320 L600,320 L600,200 L610,150 L620,200 L630,320 L720,320 L720,280 L740,280 L740,260 L760,260 L760,280 L780,280 L780,320 L860,320 L860,300 L880,300 L880,280 L900,280 L900,300 L920,300 L920,320 L960,320 L960,540 Z" fill="url(#wallGrad)"/>
  </g>
  <!-- Spire silhouettes -->
  <g filter="url(#inkWarp)" opacity="0.85">
    <path d="M355,250 L360,130 L365,250" fill="#0a0014"/>
    <path d="M605,200 L610,80 L615,200" fill="#0a0014"/>
    <path d="M175,260 L180,180 L185,260" fill="#120020"/>
    <path d="M735,260 L740,190 L745,260" fill="#120020"/>
  </g>
  <!-- Ink dripping from walls -->
  <g filter="url(#dripFilter)" opacity="0.7">
    <rect x="100" y="320" width="6" height="120" fill="url(#inkDripGrad)" rx="3"/>
    <rect x="250" y="310" width="5" height="140" fill="url(#inkDripGrad)" rx="2.5"/>
    <rect x="400" y="320" width="7" height="100" fill="url(#inkDripGrad)" rx="3.5"/>
    <rect x="550" y="300" width="4" height="130" fill="url(#inkDripGrad)" rx="2"/>
    <rect x="680" y="320" width="6" height="110" fill="url(#inkDripGrad)" rx="3"/>
    <rect x="830" y="310" width="5" height="90" fill="url(#inkDripGrad)" rx="2.5"/>
    <rect x="160" y="315" width="3" height="80" fill="url(#inkDripGrad)" rx="1.5"/>
    <rect x="480" y="290" width="4.5" height="100" fill="url(#inkDripGrad)" rx="2"/>
    <rect x="760" y="280" width="3.5" height="95" fill="url(#inkDripGrad)" rx="1.8"/>
  </g>
  <!-- Purple lightning flash 1 -->
  <g filter="url(#purpleLightning)" opacity="0.6">
    <path d="M360,130 L350,170 L365,175 L340,230 L358,235 L330,280" fill="none" stroke="#b388ff" stroke-width="2.5" stroke-linecap="round"/>
    <path d="M360,130 L350,170 L365,175 L340,230" fill="none" stroke="#e0c0ff" stroke-width="1"/>
  </g>
  <!-- Purple lightning flash 2 -->
  <g filter="url(#purpleLightning)" opacity="0.4">
    <path d="M610,80 L620,110 L608,115 L625,160 L612,165 L630,200" fill="none" stroke="#b388ff" stroke-width="2" stroke-linecap="round"/>
    <path d="M610,80 L620,110 L608,115 L625,160" fill="none" stroke="#e0c0ff" stroke-width="0.8"/>
  </g>
  <!-- Ambient purple glow behind castle -->
  <g filter="url(#fogSoft)" opacity="0.3">
    <ellipse cx="360" cy="180" rx="100" ry="80" fill="#b388ff"/>
    <ellipse cx="610" cy="140" rx="80" ry="60" fill="#b388ff"/>
  </g>
  <!-- Fog at base -->
  <g filter="url(#fogSoft)" opacity="0.25">
    <ellipse cx="480" cy="480" rx="500" ry="60" fill="#1a0033"/>
    <ellipse cx="200" cy="500" rx="200" ry="40" fill="#0a0014"/>
    <ellipse cx="750" cy="490" rx="220" ry="45" fill="#120020"/>
  </g>
</svg>