<svg xmlns="http://www.w3.org/2000/svg" viewBox="0 0 768 128">
  <defs>
    <filter id="bdGlow"><feGaussianBlur stdDeviation="4" result="b"/><feMerge><feMergeNode in="b"/><feMergeNode in="SourceGraphic"/></feMerge></filter>
  </defs>
  <g transform="translate(0,0)">
    <circle cx="64" cy="64" r="30" fill="rgba(255,215,0,0.3)" filter="url(#bdGlow)"/>
    <path d="M64,34 L68,50 L80,40 L72,55 L88,52 L74,62 L64,34" fill="rgba(255,230,100,0.6)"/>
    <path d="M64,94 L60,78 L48,88 L56,73 L40,76 L54,66 L64,94" fill="rgba(255,230,100,0.6)"/>
  </g>
  <g transform="translate(128,0)">
    <circle cx="64" cy="64" r="40" fill="rgba(255,215,0,0.15)" filter="url(#bdGlow)"/>
    <g fill="rgba(255,240,180,0.7)">
      <polygon points="50,40 65,50 55,60" transform="translate(-5,-8)"/><polygon points="75,35 80,55 65,48" transform="translate(8,-6)"/>
      <polygon points="40,70 55,75 45,85" transform="translate(-10,5)"/><polygon points="80,72 90,80 78,88" transform="translate(8,8)"/>
    </g>
  </g>
  <g transform="translate(256,0)">
    <circle cx="64" cy="64" r="45" fill="rgba(255,215,0,0.08)" filter="url(#bdGlow)"/>
    <g fill="rgba(255,180,200,0.6)">
      <ellipse cx="64" cy="35" rx="8" ry="14" transform="rotate(-20,64,35)"/>
      <ellipse cx="90" cy="55" rx="8" ry="14" transform="rotate(40,90,55)"/>
      <ellipse cx="85" cy="85" rx="8" ry="14" transform="rotate(100,85,85)"/>
      <ellipse cx="43" cy="85" rx="8" ry="14" transform="rotate(-100,43,85)"/>
      <ellipse cx="38" cy="55" rx="8" ry="14" transform="rotate(-40,38,55)"/>
    </g>
    <circle cx="64" cy="64" r="8" fill="rgba(255,215,0,0.5)" filter="url(#bdGlow)"/>
  </g>
  <g transform="translate(384,0)">
    <g fill="rgba(255,180,200,0.5)">
      <ellipse cx="30" cy="20" rx="7" ry="12" transform="rotate(-40,30,20)"/>
      <ellipse cx="100" cy="25" rx="6" ry="11" transform="rotate(30,100,25)"/>
      <ellipse cx="110" cy="90" rx="7" ry="12" transform="rotate(80,110,90)"/>
      <ellipse cx="20" cy="95" rx="6" ry="11" transform="rotate(-80,20,95)"/>
    </g>
    <g fill="rgba(255,215,0,0.3)" filter="url(#bdGlow)">
      <circle cx="64" cy="64" r="4"/><circle cx="45" cy="50" r="2"/><circle cx="85" cy="75" r="2.5"/>
    </g>
  </g>
  <g transform="translate(512,0)" opacity="0.5">
    <g fill="rgba(255,180,200,0.3)">
      <ellipse cx="15" cy="10" rx="5" ry="9" transform="rotate(-50,15,10)"/>
      <ellipse cx="115" cy="15" rx="5" ry="8" transform="rotate(40,115,15)"/>
      <ellipse cx="120" cy="110" rx="5" ry="9" transform="rotate(90,120,110)"/>
    </g>
  </g>
  <g transform="translate(640,0)" opacity="0.2">
    <ellipse cx="5" cy="5" rx="3" ry="6" fill="rgba(255,180,200,0.2)"/>
    <circle cx="64" cy="64" r="1" fill="rgba(255,215,0,0.1)" filter="url(#bdGlow)"/>
  </g>
</svg>
