<svg xmlns="http://www.w3.org/2000/svg" viewBox="0 0 128 128">
  <defs>
    <filter id="painterly">
      <feTurbulence type="fractalNoise" baseFrequency="0.04" numOctaves="4" result="noise"/>
      <feDisplacementMap in="SourceGraphic" in2="noise" scale="3" xChannelSelector="R" yChannelSelector="G"/>
    </filter>
    <filter id="glow">
      <feGaussianBlur stdDeviation="5" result="blur"/>
      <feComposite in="SourceGraphic" in2="blur" operator="over"/>
    </filter>
    <filter id="mysticalGlow">
      <feGaussianBlur stdDeviation="8" result="blur"/>
      <feColorMatrix in="blur" type="matrix" values="1.2 0 0 0 0.1  0 1.1 0 0 0.08  0 0 0.9 0 0.05  0 0 0 0.6 0" result="colored"/>
      <feComposite in="SourceGraphic" in2="colored" operator="over"/>
    </filter>
    <radialGradient id="seedGrad" cx="45%" cy="38%" r="55%">
      <stop offset="0%" stop-color="#f0e6d3"/>
      <stop offset="40%" stop-color="#c0c0c0"/>
      <stop offset="100%" stop-color="#8a8a8a" stop-opacity="0.9"/>
    </radialGradient>
    <radialGradient id="lightSwirl" cx="50%" cy="45%" r="30%">
      <stop offset="0%" stop-color="#ffffff" stop-opacity="0.8"/>
      <stop offset="50%" stop-color="#f0e6d3" stop-opacity="0.4"/>
      <stop offset="100%" stop-color="#c0c0c0" stop-opacity="0"/>
    </radialGradient>
  </defs>
  <!-- Mystical outer glow -->
  <ellipse cx="64" cy="64" rx="44" ry="48" fill="#f0e6d3" opacity="0.15" filter="url(#glow)"/>
  <!-- Main seed shape -->
  <path d="M64 14 C48 14 28 36 28 64 C28 88 44 114 64 114 C84 114 100 88 100 64 C100 36 80 14 64 14Z" fill="url(#seedGrad)" filter="url(#painterly)"/>
  <!-- Internal light swirl -->
  <ellipse cx="60" cy="58" rx="22" ry="28" fill="url(#lightSwirl)" transform="rotate(-15,60,58)"/>
  <!-- Swirl lines -->
  <g fill="none" stroke="#ffffff" stroke-width="1.2" opacity="0.35" filter="url(#painterly)">
    <path d="M52 40 C58 44 66 48 62 60 C58 72 50 68 54 78"/>
    <path d="M72 36 C68 46 74 54 68 64 C62 74 70 80 66 88"/>
  </g>
  <!-- Highlight -->
  <ellipse cx="52" cy="42" rx="10" ry="14" fill="#ffffff" opacity="0.25" transform="rotate(-20,52,42)"/>
  <!-- Mystical glow spots -->
  <circle cx="58" cy="56" r="6" fill="#f0e6d3" opacity="0.4" filter="url(#glow)"/>
  <circle cx="68" cy="70" r="4" fill="#ffffff" opacity="0.3" filter="url(#glow)"/>
  <circle cx="54" cy="76" r="3" fill="#f0e6d3" opacity="0.3"/>
</svg>