<svg xmlns="http://www.w3.org/2000/svg" viewBox="0 0 64 64">
  <defs>
    <linearGradient id="iceBodyGrad" x1="0" y1="0" x2="0" y2="1">
      <stop offset="0%" stop-color="#A8E6FF"/>
      <stop offset="50%" stop-color="#5BC0DE"/>
      <stop offset="100%" stop-color="#2980B9"/>
    </linearGradient>
    <radialGradient id="iceCoreGlow" cx="50%" cy="40%" r="50%">
      <stop offset="0%" stop-color="#FFFFFF" stop-opacity="0.5"/>
      <stop offset="50%" stop-color="#87CEEB" stop-opacity="0.2"/>
      <stop offset="100%" stop-color="#2980B9" stop-opacity="0"/>
    </radialGradient>
    <radialGradient id="iceOuterGlow" cx="50%" cy="50%" r="50%">
      <stop offset="0%" stop-color="#00D2FF" stop-opacity="0.4"/>
      <stop offset="70%" stop-color="#00D2FF" stop-opacity="0.1"/>
      <stop offset="100%" stop-color="#00D2FF" stop-opacity="0"/>
    </radialGradient>
    <linearGradient id="iceFacetDark" x1="0" y1="0" x2="1" y2="1">
      <stop offset="0%" stop-color="#4AA8C7"/>
      <stop offset="100%" stop-color="#2471A3"/>
    </linearGradient>
    <linearGradient id="iceFacetLight" x1="1" y1="0" x2="0" y2="1">
      <stop offset="0%" stop-color="#85C1E9"/>
      <stop offset="100%" stop-color="#5DADE2"/>
    </linearGradient>
    <filter id="iceGlow">
      <feGaussianBlur stdDeviation="2.5" result="blur"/>
      <feMerge><feMergeNode in="blur"/><feMergeNode in="SourceGraphic"/></feMerge>
    </filter>
    <filter id="frostBlur">
      <feGaussianBlur stdDeviation="1.2" result="blur"/>
      <feMerge><feMergeNode in="blur"/><feMergeNode in="SourceGraphic"/></feMerge>
    </filter>
  </defs>
  <ellipse cx="32" cy="32" rx="28" ry="28" fill="url(#iceOuterGlow)"/>
  <g filter="url(#iceGlow)">
    <path d="M32 4 L50 16 L56 36 L46 54 L32 60 L18 54 L8 36 L14 16 Z" fill="url(#iceBodyGrad)" stroke="#A8E6FF" stroke-width="0.5"/>
    <path d="M32 4 L32 32 L50 16 Z" fill="url(#iceFacetLight)" opacity="0.6"/>
    <path d="M50 16 L32 32 L56 36 Z" fill="url(#iceFacetDark)" opacity="0.5"/>
    <path d="M56 36 L32 32 L46 54 Z" fill="#4AA8C7" opacity="0.4"/>
    <path d="M32 4 L32 32 L14 16 Z" fill="#85C1E9" opacity="0.5"/>
    <path d="M14 16 L32 32 L8 36 Z" fill="url(#iceFacetLight)" opacity="0.4"/>
    <path d="M8 36 L32 32 L18 54 Z" fill="url(#iceFacetDark)" opacity="0.5"/>
    <path d="M18 54 L32 32 L32 60 Z" fill="#5DADE2" opacity="0.4"/>
    <path d="M46 54 L32 32 L32 60 Z" fill="#4AA8C7" opacity="0.5"/>
  </g>
  <g stroke="#FFFFFF" stroke-width="0.5" opacity="0.4" fill="none">
    <path d="M28 12 L32 22 L36 18"/>
    <path d="M20 28 L26 32 L22 40"/>
    <path d="M42 26 L38 34 L44 38"/>
  </g>
  <ellipse cx="32" cy="30" rx="10" ry="12" fill="url(#iceCoreGlow)"/>
  <g filter="url(#frostBlur)">
    <circle cx="22" cy="14" r="1.5" fill="#FFFFFF" opacity="0.8"/>
    <circle cx="44" cy="20" r="1.2" fill="#FFFFFF" opacity="0.7"/>
    <circle cx="16" cy="40" r="1" fill="#FFFFFF" opacity="0.6"/>
    <circle cx="48" cy="44" r="1.3" fill="#FFFFFF" opacity="0.7"/>
    <path d="M40 10 L40.5 8 L41 10 L43 10.5 L41 11 L40.5 13 L40 11 L38 10.5 Z" fill="#FFFFFF" opacity="0.9"/>
    <path d="M12 46 L12.5 44 L13 46 L15 46.5 L13 47 L12.5 49 L12 47 L10 46.5 Z" fill="#FFFFFF" opacity="0.7"/>
  </g>
</svg>
