<svg xmlns="http://www.w3.org/2000/svg" width="400" height="300" viewBox="0 0 400 300">
  <defs>
    <!-- Night sky -->
    <linearGradient id="tSky" x1="0" y1="0" x2="0" y2="1">
      <stop offset="0%" stop-color="#050A18"/>
      <stop offset="40%" stop-color="#0B1426"/>
      <stop offset="100%" stop-color="#1A2844"/>
    </linearGradient>
    <!-- Ghost body -->
    <radialGradient id="tGhost" cx="50%" cy="40%" r="50%">
      <stop offset="0%" stop-color="#7FEFFF" stop-opacity="0.9"/>
      <stop offset="60%" stop-color="#00D4FF" stop-opacity="0.7"/>
      <stop offset="100%" stop-color="#006B80" stop-opacity="0.3"/>
    </radialGradient>
    <!-- Ghost glow -->
    <radialGradient id="tGhostGlow" cx="50%" cy="50%" r="50%">
      <stop offset="0%" stop-color="#00D4FF" stop-opacity="0.3"/>
      <stop offset="100%" stop-color="#00D4FF" stop-opacity="0"/>
    </radialGradient>
    <!-- Shadowy figure -->
    <radialGradient id="tShadow" cx="50%" cy="40%" r="55%">
      <stop offset="0%" stop-color="#9B59B6" stop-opacity="0.6"/>
      <stop offset="100%" stop-color="#2E0854" stop-opacity="0.3"/>
    </radialGradient>
    <!-- Moon -->
    <radialGradient id="tMoon" cx="50%" cy="50%" r="50%">
      <stop offset="0%" stop-color="#FFFFFF" stop-opacity="0.9"/>
      <stop offset="40%" stop-color="#E8E8E8" stop-opacity="0.6"/>
      <stop offset="70%" stop-color="#7FEFFF" stop-opacity="0.1"/>
      <stop offset="100%" stop-color="#00D4FF" stop-opacity="0"/>
    </radialGradient>
    <!-- Street building -->
    <linearGradient id="tBldg" x1="0" y1="0" x2="0" y2="1">
      <stop offset="0%" stop-color="#2D3748"/>
      <stop offset="100%" stop-color="#1A2040"/>
    </linearGradient>
    <!-- Clue glow -->
    <radialGradient id="clueGlow" cx="50%" cy="50%" r="50%">
      <stop offset="0%" stop-color="#FFB800" stop-opacity="0.8"/>
      <stop offset="50%" stop-color="#FFB800" stop-opacity="0.3"/>
      <stop offset="100%" stop-color="#FFB800" stop-opacity="0"/>
    </radialGradient>
    <!-- Title gradient -->
    <linearGradient id="titleGrad" x1="0" y1="0" x2="0" y2="1">
      <stop offset="0%" stop-color="#7FEFFF"/>
      <stop offset="50%" stop-color="#00D4FF"/>
      <stop offset="100%" stop-color="#006B80"/>
    </linearGradient>
    <!-- Title stroke -->
    <linearGradient id="titleStroke" x1="0" y1="0" x2="1" y2="0">
      <stop offset="0%" stop-color="#C4953A"/>
      <stop offset="50%" stop-color="#FFB800"/>
      <stop offset="100%" stop-color="#C4953A"/>
    </linearGradient>
    <!-- Gas lamp -->
    <radialGradient id="tLamp" cx="50%" cy="30%" r="60%">
      <stop offset="0%" stop-color="#FFB800" stop-opacity="0.5"/>
      <stop offset="100%" stop-color="#FFB800" stop-opacity="0"/>
    </radialGradient>
    <filter id="tGlowF" x="-50%" y="-50%" width="200%" height="200%">
      <feGaussianBlur stdDeviation="8" result="glow"/>
      <feMerge><feMergeNode in="glow"/><feMergeNode in="SourceGraphic"/></feMerge>
    </filter>
    <filter id="tGlowSmall" x="-50%" y="-50%" width="200%" height="200%">
      <feGaussianBlur stdDeviation="3" result="glow"/>
      <feMerge><feMergeNode in="glow"/><feMergeNode in="SourceGraphic"/></feMerge>
    </filter>
    <filter id="textGlow" x="-20%" y="-20%" width="140%" height="140%">
      <feGaussianBlur stdDeviation="2" result="glow"/>
      <feMerge><feMergeNode in="glow"/><feMergeNode in="SourceGraphic"/></feMerge>
    </filter>
    <filter id="tFog" x="-10%" y="-10%" width="120%" height="120%">
      <feGaussianBlur stdDeviation="6"/>
    </filter>
    <!-- Window light -->
    <radialGradient id="tWinLight" cx="50%" cy="50%" r="50%">
      <stop offset="0%" stop-color="#FFB800" stop-opacity="0.5"/>
      <stop offset="100%" stop-color="#CC8800" stop-opacity="0.1"/>
    </radialGradient>
    <!-- Vignette -->
    <radialGradient id="vignette" cx="50%" cy="50%" r="55%">
      <stop offset="50%" stop-color="#000000" stop-opacity="0"/>
      <stop offset="100%" stop-color="#000000" stop-opacity="0.6"/>
    </radialGradient>
  </defs>

  <!-- Sky -->
  <rect width="400" height="300" fill="url(#tSky)"/>

  <!-- Stars -->
  <g fill="#FFFFFF">
    <circle cx="20" cy="15" r="0.8" opacity="0.7"/><circle cx="55" cy="28" r="0.6" opacity="0.5"/>
    <circle cx="90" cy="12" r="1" opacity="0.8"/><circle cx="130" cy="35" r="0.5" opacity="0.4"/>
    <circle cx="165" cy="18" r="0.9" opacity="0.7"/><circle cx="210" cy="8" r="0.7" opacity="0.6"/>
    <circle cx="245" cy="30" r="0.8" opacity="0.5"/><circle cx="280" cy="15" r="1.1" opacity="0.8"/>
    <circle cx="310" cy="38" r="0.6" opacity="0.4"/><circle cx="345" cy="22" r="0.9" opacity="0.7"/>
    <circle cx="375" cy="10" r="0.7" opacity="0.6"/><circle cx="40" cy="48" r="0.5" opacity="0.4"/>
    <circle cx="115" cy="55" r="0.8" opacity="0.6"/><circle cx="175" cy="45" r="0.6" opacity="0.5"/>
    <circle cx="260" cy="50" r="0.7" opacity="0.5"/><circle cx="330" cy="42" r="0.9" opacity="0.7"/>
    <circle cx="395" cy="35" r="0.6" opacity="0.4"/>
  </g>
  <g fill="#7FEFFF">
    <circle cx="70" cy="20" r="1.2" opacity="0.8"/><circle cx="200" cy="25" r="1" opacity="0.7"/>
    <circle cx="360" cy="15" r="1.1" opacity="0.75"/>
  </g>

  <!-- Moon -->
  <g filter="url(#tGlowF)">
    <circle cx="340" cy="55" r="22" fill="url(#tMoon)"/>
    <circle cx="335" cy="50" r="3" fill="#D0D0D0" opacity="0.12"/>
    <circle cx="345" cy="58" r="2" fill="#C0C0C0" opacity="0.1"/>
  </g>

  <!-- Distant skyline -->
  <g fill="#1A2844" opacity="0.5">
    <rect x="0" y="100" width="30" height="100"/><rect x="35" y="90" width="25" height="110"/>
    <rect x="65" y="110" width="35" height="90"/><rect x="105" y="85" width="28" height="115"/>
    <rect x="140" y="100" width="22" height="100"/><rect x="170" y="80" width="40" height="120"/>
    <rect x="215" y="95" width="30" height="105"/><rect x="250" y="105" width="25" height="95"/>
    <rect x="280" y="75" width="45" height="125"/><rect x="330" y="95" width="30" height="105"/>
    <rect x="365" y="85" width="35" height="115"/>
  </g>

  <!-- Art deco tower spires -->
  <g fill="#2D3748" opacity="0.6">
    <path d="M115 85 L118 50 Q120 40 122 50 L125 85 Z"/>
    <polygon points="117,55 120,45 123,55" fill="#C4953A" opacity="0.2"/>
    <path d="M295 75 L299 40 Q302 28 305 40 L309 75 Z"/>
    <polygon points="298,45 302,33 306,45" fill="#C4953A" opacity="0.2"/>
  </g>

  <!-- Closer buildings -->
  <g fill="url(#tBldg)">
    <rect x="0" y="120" width="65" height="130"/>
    <rect x="70" y="100" width="55" height="150"/>
    <rect x="280" y="110" width="50" height="140"/>
    <rect x="335" y="95" width="65" height="155"/>
  </g>

  <!-- Art deco cornices -->
  <g fill="#C4953A" opacity="0.35">
    <rect x="0" y="118" width="65" height="3"/>
    <rect x="70" y="98" width="55" height="3"/>
    <rect x="280" y="108" width="50" height="3"/>
    <rect x="335" y="93" width="65" height="3"/>
  </g>

  <!-- Building windows -->
  <g fill="url(#tWinLight)">
    <rect x="10" y="130" width="8" height="12" rx="1"/><rect x="28" y="130" width="8" height="12" rx="1"/>
    <rect x="46" y="130" width="8" height="12" rx="1" opacity="0.5"/>
    <rect x="10" y="155" width="8" height="12" rx="1" opacity="0.3"/><rect x="28" y="155" width="8" height="12" rx="1"/>
    <rect x="80" y="112" width="8" height="12" rx="1"/><rect x="100" y="112" width="8" height="12" rx="1" opacity="0.6"/>
    <rect x="80" y="138" width="8" height="12" rx="1" opacity="0.4"/>
    <rect x="290" y="122" width="8" height="12" rx="1"/><rect x="310" y="122" width="8" height="12" rx="1" opacity="0.5"/>
    <rect x="345" y="108" width="8" height="12" rx="1"/><rect x="365" y="108" width="8" height="12" rx="1"/>
    <rect x="385" y="108" width="8" height="12" rx="1" opacity="0.6"/>
    <rect x="345" y="135" width="8" height="12" rx="1" opacity="0.3"/><rect x="385" y="135" width="8" height="12" rx="1"/>
  </g>

  <!-- Street level -->
  <rect x="0" y="210" width="400" height="90" fill="#0B1426"/>

  <!-- Street cobblestones -->
  <g fill="#142038" opacity="0.3">
    <ellipse cx="30" cy="230" rx="10" ry="4"/><ellipse cx="65" cy="235" rx="9" ry="3.5"/>
    <ellipse cx="100" cy="228" rx="11" ry="4"/><ellipse cx="140" cy="233" rx="10" ry="3.5"/>
    <ellipse cx="180" cy="230" rx="9" ry="4"/><ellipse cx="220" cy="236" rx="10" ry="3.5"/>
    <ellipse cx="260" cy="228" rx="11" ry="4"/><ellipse cx="300" cy="233" rx="9" ry="3.5"/>
    <ellipse cx="340" cy="231" rx="10" ry="4"/><ellipse cx="380" cy="235" rx="9" ry="3.5"/>
  </g>

  <!-- Gas lamp (center-left) -->
  <rect x="138" y="175" width="3" height="35" fill="#2D3748"/>
  <rect x="133" y="172" width="13" height="5" rx="1.5" fill="#2D3748"/>
  <ellipse cx="140" cy="168" rx="10" ry="12" fill="url(#tLamp)" filter="url(#tGlowSmall)"/>
  <circle cx="140" cy="166" r="2.5" fill="#FFB800" opacity="0.7"/>

  <!-- Fog -->
  <g filter="url(#tFog)" opacity="0.2">
    <rect x="0" y="180" width="400" height="40" fill="#2D3748"/>
  </g>

  <!-- === MAIN SCENE: Lucian investigating === -->

  <!-- Ghost Lucian (center-left, investigating) -->
  <g filter="url(#tGlowSmall)">
    <!-- Ghost aura -->
    <ellipse cx="155" cy="175" rx="25" ry="35" fill="url(#tGhostGlow)"/>

    <!-- Body -->
    <path d="M148 155 Q146 165 146 180 Q146 195 150 205 Q155 208 160 205 Q164 195 164 180 Q164 165 162 155 Q157 150 155 150 Q151 150 148 155 Z" fill="url(#tGhost)"/>

    <!-- Trench coat tails / wisps -->
    <path d="M147 195 Q142 205 140 215" stroke="#00D4FF" stroke-width="1.5" fill="none" opacity="0.4"/>
    <path d="M152 198 Q150 210 148 218" stroke="#7FEFFF" stroke-width="1" fill="none" opacity="0.3"/>
    <path d="M158 198 Q160 210 162 218" stroke="#7FEFFF" stroke-width="1" fill="none" opacity="0.3"/>
    <path d="M163 195 Q168 205 170 215" stroke="#00D4FF" stroke-width="1.5" fill="none" opacity="0.4"/>

    <!-- Fedora hat -->
    <ellipse cx="155" cy="148" rx="12" ry="2.5" fill="#00A8CC" opacity="0.8"/>
    <path d="M145 148 Q145 140 150 137 Q155 135 160 137 Q165 140 165 148 Z" fill="#00A8CC" opacity="0.75"/>
    <rect x="147" y="145" width="16" height="2" rx="0.5" fill="#C4953A" opacity="0.7"/>

    <!-- Face -->
    <ellipse cx="155" cy="152" rx="7" ry="5" fill="#00D4FF" opacity="0.5"/>

    <!-- Glowing eyes -->
    <circle cx="152" cy="151" r="1.5" fill="#FFFFFF"/>
    <circle cx="158" cy="151" r="1.5" fill="#FFFFFF"/>
    <circle cx="152" cy="151" r="3" fill="#00D4FF" opacity="0.2"/>
    <circle cx="158" cy="151" r="3" fill="#00D4FF" opacity="0.2"/>

    <!-- Magnifying glass (held out) -->
    <line x1="142" y1="175" x2="132" y2="185" stroke="#C4953A" stroke-width="1.5" opacity="0.8"/>
    <circle cx="128" cy="190" r="6" stroke="#C4953A" stroke-width="1.5" fill="none" opacity="0.8"/>
    <circle cx="128" cy="190" r="4" fill="#00D4FF" opacity="0.1"/>
    <path d="M125 188 Q127 186 126 189" stroke="#FFFFFF" stroke-width="0.5" fill="none" opacity="0.6"/>
  </g>

  <!-- Glowing clue on ground (being investigated) -->
  <g filter="url(#tGlowSmall)">
    <ellipse cx="128" cy="205" rx="8" ry="4" fill="url(#clueGlow)"/>
    <rect x="124" y="201" width="8" height="6" rx="1" fill="#FFB800" opacity="0.6"/>
    <text x="125" y="207" font-size="5" fill="#FFFFFF" opacity="0.5" font-family="serif">?</text>
  </g>

  <!-- Spectral particles around Lucian -->
  <g fill="#7FEFFF">
    <circle cx="140" cy="160" r="0.8" opacity="0.6"><animate attributeName="opacity" values="0.2;0.8;0.2" dur="2s" repeatCount="indefinite"/></circle>
    <circle cx="170" cy="165" r="0.6" opacity="0.5"><animate attributeName="opacity" values="0.3;0.9;0.3" dur="1.5s" repeatCount="indefinite"/></circle>
    <circle cx="145" cy="190" r="0.7" opacity="0.4"><animate attributeName="opacity" values="0.1;0.7;0.1" dur="2.5s" repeatCount="indefinite"/></circle>
    <circle cx="168" cy="185" r="0.9" opacity="0.6"><animate attributeName="opacity" values="0.2;0.6;0.2" dur="3s" repeatCount="indefinite"/></circle>
  </g>

  <!-- === Shadow Manipulator lurking in background === -->
  <g opacity="0.6">
    <!-- Shadowy figure in alley -->
    <path d="M280 140 Q278 150 278 170 Q278 190 282 205 Q286 210 290 208 Q294 200 294 180 Q294 160 292 145 Q288 135 285 134 Z" fill="url(#tShadow)"/>
    <!-- Hood -->
    <path d="M276 142 Q276 132 282 128 Q286 126 290 128 Q296 132 296 142 Z" fill="#2E0854" opacity="0.7"/>
    <!-- Red eyes -->
    <g filter="url(#tGlowSmall)">
      <circle cx="283" cy="137" r="1.2" fill="#FF3366"/>
      <circle cx="289" cy="137" r="1.2" fill="#FF3366"/>
    </g>
    <!-- Puppet strings -->
    <g stroke="#9B59B6" stroke-width="0.5" opacity="0.3" stroke-dasharray="2,2">
      <line x1="278" y1="150" x2="265" y2="130"/>
      <line x1="294" y1="150" x2="310" y2="128"/>
    </g>
    <!-- Shadow tendrils -->
    <path d="M280 200 Q270 210 268 220" stroke="#9B59B6" stroke-width="1" fill="none" opacity="0.3"/>
    <path d="M292 200 Q300 210 305 220" stroke="#9B59B6" stroke-width="1" fill="none" opacity="0.3"/>
  </g>

  <!-- Evidence board fragments floating (narrative element) -->
  <g opacity="0.3">
    <rect x="220" y="140" width="12" height="8" rx="1" fill="#E8E8E8" transform="rotate(-10,226,144)"/>
    <line x1="222" y1="142" x2="230" y2="142" stroke="#2D3748" stroke-width="0.5"/>
    <line x1="222" y1="145" x2="228" y2="145" stroke="#2D3748" stroke-width="0.5"/>
    <rect x="240" y="155" width="10" height="7" rx="1" fill="#E8E8E8" transform="rotate(8,245,158)"/>
    <line x1="242" y1="157" x2="248" y2="157" stroke="#2D3748" stroke-width="0.5"/>
    <!-- Connection lines (deduction) -->
    <line x1="232" y1="144" x2="240" y2="156" stroke="#FF3366" stroke-width="0.5" stroke-dasharray="2,1"/>
  </g>

  <!-- Vignette overlay -->
  <rect width="400" height="300" fill="url(#vignette)"/>

  <!-- Art deco frame border -->
  <g fill="none" stroke="#C4953A" opacity="0.4">
    <rect x="5" y="5" width="390" height="290" rx="2" stroke-width="1.5"/>
    <rect x="10" y="10" width="380" height="280" rx="1" stroke-width="0.5"/>
    <!-- Corner ornaments -->
    <polygon points="5,5 20,5 5,20" fill="#C4953A" opacity="0.2"/>
    <polygon points="395,5 380,5 395,20" fill="#C4953A" opacity="0.2"/>
    <polygon points="5,295 20,295 5,280" fill="#C4953A" opacity="0.2"/>
    <polygon points="395,295 380,295 395,280" fill="#C4953A" opacity="0.2"/>
  </g>

  <!-- Art deco divider above title -->
  <g opacity="0.5">
    <line x1="80" y1="250" x2="320" y2="250" stroke="#C4953A" stroke-width="1"/>
    <polygon points="190,248 200,244 210,248" fill="#C4953A"/>
    <circle cx="200" cy="244" r="2" fill="#FFB800" opacity="0.6"/>
  </g>

  <!-- Title text -->
  <g filter="url(#textGlow)">
    <text x="200" y="275" text-anchor="middle" font-size="30" font-weight="bold" font-family="Georgia, 'Times New Roman', serif" fill="url(#titleGrad)" stroke="url(#titleStroke)" stroke-width="0.8">SPECTRAL SLEUTH</text>
  </g>

  <!-- Subtitle -->
  <text x="200" y="292" text-anchor="middle" font-size="12" font-family="Georgia, serif" fill="#8899AA" opacity="0.8">유령 탐정</text>

  <!-- Art deco divider below title -->
  <g opacity="0.4">
    <line x1="120" y1="297" x2="280" y2="297" stroke="#C4953A" stroke-width="0.5"/>
  </g>

  <!-- Additional city detail: more distant buildings with windows -->
  <g fill="url(#tBldg)" opacity="0.4">
    <rect x="130" y="105" width="35" height="95"/>
    <rect x="170" y="95" width="30" height="105"/>
    <rect x="205" y="110" width="40" height="90"/>
    <rect x="248" y="100" width="28" height="100"/>
  </g>
  <g fill="url(#tWinLight)" opacity="0.3">
    <rect x="138" y="115" width="6" height="8" rx="0.5"/><rect x="150" y="115" width="6" height="8" rx="0.5"/>
    <rect x="138" y="132" width="6" height="8" rx="0.5" opacity="0.5"/>
    <rect x="178" y="105" width="6" height="8" rx="0.5"/><rect x="190" y="105" width="6" height="8" rx="0.5" opacity="0.6"/>
    <rect x="178" y="122" width="6" height="8" rx="0.5"/>
    <rect x="213" y="120" width="6" height="8" rx="0.5"/><rect x="228" y="120" width="6" height="8" rx="0.5" opacity="0.4"/>
    <rect x="213" y="137" width="6" height="8" rx="0.5" opacity="0.7"/>
    <rect x="255" y="110" width="6" height="8" rx="0.5"/><rect x="265" y="110" width="6" height="8" rx="0.5" opacity="0.5"/>
  </g>

  <!-- Additional art deco ornamental details -->
  <g fill="#C4953A" opacity="0.25">
    <polygon points="135,105 145,98 155,105"/><polygon points="175,95 185,88 195,95"/>
    <polygon points="215,110 225,103 235,110"/><polygon points="252,100 260,93 268,100"/>
  </g>

  <!-- Additional rooftop water towers / antennas -->
  <g stroke="#2D3748" stroke-width="1.5" opacity="0.4">
    <line x1="145" y1="105" x2="145" y2="92"/>
    <line x1="185" y1="95" x2="185" y2="80"/>
    <circle cx="185" cy="80" r="2" fill="#FF3366" opacity="0.3"/>
    <line x1="225" y1="110" x2="225" y2="98"/>
  </g>

  <!-- More evidence clues scattered around scene -->
  <g opacity="0.35">
    <!-- Bloody handprint -->
    <g transform="translate(85,195) rotate(-15)">
      <ellipse cx="0" cy="0" rx="4" ry="5" fill="#FF3366" opacity="0.3"/>
      <line x1="-2" y1="-5" x2="-3" y2="-8" stroke="#FF3366" stroke-width="1" opacity="0.3"/>
      <line x1="0" y1="-5" x2="0" y2="-9" stroke="#FF3366" stroke-width="1" opacity="0.3"/>
      <line x1="2" y1="-5" x2="3" y2="-8" stroke="#FF3366" stroke-width="1" opacity="0.3"/>
    </g>
    <!-- Footprint trail -->
    <g fill="#1A2844" opacity="0.4">
      <ellipse cx="180" cy="222" rx="3" ry="5" transform="rotate(-5,180,222)"/>
      <ellipse cx="195" cy="220" rx="3" ry="5" transform="rotate(5,195,220)"/>
      <ellipse cx="210" cy="222" rx="3" ry="5" transform="rotate(-3,210,222)"/>
    </g>
    <!-- Dropped pocket watch -->
    <circle cx="230" cy="215" r="4" stroke="#C4953A" stroke-width="1" fill="#0B1426" opacity="0.5"/>
    <line x1="230" y1="215" x2="230" y2="212" stroke="#C4953A" stroke-width="0.5" opacity="0.4"/>
    <line x1="230" y1="215" x2="233" y2="216" stroke="#C4953A" stroke-width="0.4" opacity="0.4"/>
  </g>

  <!-- Atmospheric rain streaks -->
  <g stroke="#7FEFFF" stroke-width="0.3" opacity="0.1">
    <line x1="15" y1="60" x2="12" y2="85"/><line x1="45" y1="40" x2="42" y2="65"/>
    <line x1="80" y1="55" x2="77" y2="80"/><line x1="115" y1="35" x2="112" y2="60"/>
    <line x1="150" y1="50" x2="147" y2="75"/><line x1="195" y1="45" x2="192" y2="70"/>
    <line x1="235" y1="60" x2="232" y2="85"/><line x1="270" y1="38" x2="267" y2="63"/>
    <line x1="310" y1="55" x2="307" y2="80"/><line x1="350" y1="42" x2="347" y2="67"/>
    <line x1="385" y1="50" x2="382" y2="75"/>
    <line x1="30" y1="85" x2="27" y2="110"/><line x1="65" y1="78" x2="62" y2="103"/>
    <line x1="105" y1="90" x2="102" y2="115"/><line x1="160" y1="82" x2="157" y2="107"/>
    <line x1="215" y1="75" x2="212" y2="100"/><line x1="255" y1="88" x2="252" y2="113"/>
    <line x1="295" y1="70" x2="292" y2="95"/><line x1="340" y1="80" x2="337" y2="105"/>
    <line x1="375" y1="72" x2="372" y2="97"/>
    <line x1="20" y1="120" x2="17" y2="145"/><line x1="55" y1="115" x2="52" y2="140"/>
    <line x1="180" y1="125" x2="177" y2="150"/><line x1="320" y1="118" x2="317" y2="143"/>
    <line x1="360" y1="130" x2="357" y2="155"/>
  </g>

  <!-- More spectral wisps in the air -->
  <g filter="url(#tFog)" opacity="0.08">
    <ellipse cx="60" cy="170" rx="40" ry="10" fill="#00D4FF"/>
    <ellipse cx="320" cy="180" rx="35" ry="8" fill="#9B59B6"/>
    <ellipse cx="200" cy="165" rx="45" ry="12" fill="#00D4FF"/>
  </g>

  <!-- Magnifying glass lens light beam -->
  <g opacity="0.15">
    <path d="M128 196 L110 220 L146 220 Z" fill="#FFB800"/>
  </g>

  <!-- Art deco sunburst behind moon -->
  <g stroke="#C4953A" stroke-width="0.3" opacity="0.12">
    <line x1="340" y1="55" x2="340" y2="20"/>
    <line x1="340" y1="55" x2="315" y2="30"/>
    <line x1="340" y1="55" x2="365" y2="30"/>
    <line x1="340" y1="55" x2="300" y2="48"/>
    <line x1="340" y1="55" x2="380" y2="48"/>
    <line x1="340" y1="55" x2="310" y2="20"/>
    <line x1="340" y1="55" x2="370" y2="20"/>
  </g>

  <!-- Additional gas lamp on right side -->
  <rect x="308" y="178" width="3" height="32" fill="#2D3748"/>
  <rect x="303" y="175" width="13" height="4" rx="1.5" fill="#2D3748"/>
  <ellipse cx="310" cy="171" rx="8" ry="10" fill="url(#tLamp)" filter="url(#tGlowSmall)" opacity="0.7"/>
  <circle cx="310" cy="169" r="2" fill="#FFB800" opacity="0.6"/>

  <!-- Lamp light pools on ground -->
  <g filter="url(#tFog)" opacity="0.12">
    <ellipse cx="140" cy="215" rx="25" ry="6" fill="#FFB800"/>
    <ellipse cx="310" cy="215" rx="20" ry="5" fill="#FFB800"/>
  </g>

  <!-- Additional atmospheric particles -->
  <g fill="#FFFFFF" opacity="0.15">
    <circle cx="50" cy="140" r="0.5"/><circle cx="100" cy="170" r="0.4"/>
    <circle cx="190" cy="130" r="0.6"/><circle cx="250" cy="175" r="0.4"/>
    <circle cx="300" cy="145" r="0.5"/><circle cx="370" cy="160" r="0.4"/>
    <circle cx="30" cy="190" r="0.3"/><circle cx="390" cy="185" r="0.5"/>
  </g>

  <!-- Wet ground reflection streaks -->
  <g opacity="0.05">
    <rect x="120" y="218" width="50" height="2" rx="1" fill="#7FEFFF"/>
    <rect x="290" y="220" width="40" height="1.5" rx="0.75" fill="#FFB800"/>
    <rect x="50" y="222" width="30" height="1" rx="0.5" fill="#7FEFFF"/>
    <rect x="350" y="219" width="35" height="1.5" rx="0.75" fill="#7FEFFF"/>
  </g>

  <!-- Noir film grain texture dots -->
  <g fill="#FFFFFF" opacity="0.02">
    <circle cx="25" cy="45" r="0.8"/><circle cx="85" cy="92" r="0.6"/>
    <circle cx="155" cy="68" r="0.7"/><circle cx="225" cy="42" r="0.5"/>
    <circle cx="295" cy="78" r="0.8"/><circle cx="365" cy="55" r="0.6"/>
    <circle cx="45" cy="125" r="0.7"/><circle cx="135" cy="108" r="0.5"/>
    <circle cx="265" cy="115" r="0.6"/><circle cx="335" cy="98" r="0.7"/>
  </g>
</svg>