<svg xmlns="http://www.w3.org/2000/svg" viewBox="0 0 1200 800">
  <defs>
    <!-- Night sky gradient -->
    <linearGradient id="skyGrad" x1="0" y1="0" x2="0" y2="1">
      <stop offset="0%" stop-color="#0A0A1A"/>
      <stop offset="30%" stop-color="#0D0D24"/>
      <stop offset="60%" stop-color="#1A1A2E"/>
      <stop offset="85%" stop-color="#2D2D4A"/>
      <stop offset="100%" stop-color="#2E4057"/>
    </linearGradient>
    <!-- Moon glow -->
    <radialGradient id="moonGlow" cx="0.5" cy="0.5" r="0.5">
      <stop offset="0%" stop-color="#F0F0F0"/>
      <stop offset="30%" stop-color="#E8E8F0"/>
      <stop offset="60%" stop-color="#C0C0D0" stop-opacity="0.4"/>
      <stop offset="100%" stop-color="#1A1A2E" stop-opacity="0"/>
    </radialGradient>
    <!-- Mountain gradient -->
    <linearGradient id="mtGrad" x1="0" y1="0" x2="0" y2="1">
      <stop offset="0%" stop-color="#1A1A2E"/>
      <stop offset="100%" stop-color="#0D0D1A"/>
    </linearGradient>
    <!-- Far mountain gradient -->
    <linearGradient id="farMtGrad" x1="0" y1="0" x2="0" y2="1">
      <stop offset="0%" stop-color="#2D2D4A"/>
      <stop offset="100%" stop-color="#1A1A2E"/>
    </linearGradient>
    <!-- Mist gradient -->
    <linearGradient id="mistGrad" x1="0" y1="0" x2="1" y2="0">
      <stop offset="0%" stop-color="#2E4057" stop-opacity="0"/>
      <stop offset="30%" stop-color="#2E4057" stop-opacity="0.15"/>
      <stop offset="70%" stop-color="#2E4057" stop-opacity="0.15"/>
      <stop offset="100%" stop-color="#2E4057" stop-opacity="0"/>
    </linearGradient>
    <!-- Nebula gradient -->
    <radialGradient id="nebula1" cx="0.3" cy="0.4" r="0.4">
      <stop offset="0%" stop-color="#7B2D8E" stop-opacity="0.12"/>
      <stop offset="100%" stop-color="#7B2D8E" stop-opacity="0"/>
    </radialGradient>
    <radialGradient id="nebula2" cx="0.7" cy="0.3" r="0.35">
      <stop offset="0%" stop-color="#2E4057" stop-opacity="0.15"/>
      <stop offset="100%" stop-color="#2E4057" stop-opacity="0"/>
    </radialGradient>
    <!-- Cloud gradient -->
    <radialGradient id="cloudGrad" cx="0.5" cy="0.5" r="0.5">
      <stop offset="0%" stop-color="#2D2D4A" stop-opacity="0.3"/>
      <stop offset="100%" stop-color="#1A1A2E" stop-opacity="0"/>
    </radialGradient>
  </defs>

  <!-- Sky background -->
  <rect width="1200" height="800" fill="url(#skyGrad)"/>

  <!-- Nebula clouds -->
  <ellipse cx="300" cy="250" rx="250" ry="150" fill="url(#nebula1)"/>
  <ellipse cx="800" cy="200" rx="200" ry="120" fill="url(#nebula2)"/>
  <ellipse cx="600" cy="350" rx="300" ry="100" fill="#7B2D8E" opacity="0.04"/>
  <ellipse cx="1000" cy="300" rx="180" ry="90" fill="#2E4057" opacity="0.06"/>
  <ellipse cx="150" cy="400" rx="200" ry="80" fill="#00B4D8" opacity="0.03"/>

  <!-- Stars - 80+ tiny lights -->
  <g id="stars">
    <circle cx="50" cy="30" r="1.2" fill="#F0F0F0" opacity="0.9"/>
    <circle cx="120" cy="60" r="0.8" fill="#F0F0F0" opacity="0.7"/>
    <circle cx="180" cy="20" r="1" fill="#F0F0F0" opacity="0.8"/>
    <circle cx="250" cy="80" r="0.6" fill="#F0F0F0" opacity="0.6"/>
    <circle cx="320" cy="40" r="1.1" fill="#F0F0F0" opacity="0.9"/>
    <circle cx="400" cy="25" r="0.7" fill="#F0F0F0" opacity="0.7"/>
    <circle cx="480" cy="70" r="1" fill="#F0F0F0" opacity="0.8"/>
    <circle cx="550" cy="35" r="0.5" fill="#F0F0F0" opacity="0.6"/>
    <circle cx="630" cy="55" r="1.2" fill="#F0F0F0" opacity="0.9"/>
    <circle cx="700" cy="20" r="0.8" fill="#F0F0F0" opacity="0.7"/>
    <circle cx="780" cy="65" r="0.6" fill="#F0F0F0" opacity="0.8"/>
    <circle cx="850" cy="30" r="1" fill="#F0F0F0" opacity="0.6"/>
    <circle cx="920" cy="50" r="1.1" fill="#F0F0F0" opacity="0.9"/>
    <circle cx="1000" cy="28" r="0.7" fill="#F0F0F0" opacity="0.7"/>
    <circle cx="1070" cy="60" r="0.9" fill="#F0F0F0" opacity="0.8"/>
    <circle cx="1140" cy="35" r="0.5" fill="#F0F0F0" opacity="0.6"/>
    <circle cx="80" cy="110" r="0.8" fill="#F0F0F0" opacity="0.7"/>
    <circle cx="160" cy="130" r="1" fill="#00B4D8" opacity="0.5"/>
    <circle cx="240" cy="150" r="0.6" fill="#F0F0F0" opacity="0.6"/>
    <circle cx="330" cy="120" r="1.2" fill="#F0F0F0" opacity="0.8"/>
    <circle cx="410" cy="100" r="0.7" fill="#F0F0F0" opacity="0.7"/>
    <circle cx="500" cy="140" r="0.9" fill="#F0F0F0" opacity="0.8"/>
    <circle cx="580" cy="110" r="0.5" fill="#FFB7C5" opacity="0.4"/>
    <circle cx="660" cy="135" r="1.1" fill="#F0F0F0" opacity="0.9"/>
    <circle cx="740" cy="105" r="0.8" fill="#F0F0F0" opacity="0.7"/>
    <circle cx="830" cy="145" r="0.6" fill="#F0F0F0" opacity="0.6"/>
    <circle cx="900" cy="115" r="1" fill="#F0F0F0" opacity="0.8"/>
    <circle cx="980" cy="140" r="0.7" fill="#00B4D8" opacity="0.4"/>
    <circle cx="1060" cy="120" r="0.9" fill="#F0F0F0" opacity="0.7"/>
    <circle cx="1130" cy="100" r="0.5" fill="#F0F0F0" opacity="0.6"/>
    <circle cx="60" cy="180" r="1" fill="#F0F0F0" opacity="0.8"/>
    <circle cx="140" cy="200" r="0.7" fill="#F0F0F0" opacity="0.6"/>
    <circle cx="220" cy="220" r="0.9" fill="#F0F0F0" opacity="0.7"/>
    <circle cx="300" cy="190" r="0.5" fill="#FFB7C5" opacity="0.3"/>
    <circle cx="380" cy="210" r="1.1" fill="#F0F0F0" opacity="0.9"/>
    <circle cx="460" cy="185" r="0.6" fill="#F0F0F0" opacity="0.6"/>
    <circle cx="540" cy="230" r="0.8" fill="#F0F0F0" opacity="0.7"/>
    <circle cx="620" cy="195" r="1" fill="#F0F0F0" opacity="0.8"/>
    <circle cx="710" cy="225" r="0.5" fill="#F0F0F0" opacity="0.6"/>
    <circle cx="790" cy="190" r="0.7" fill="#00B4D8" opacity="0.35"/>
    <circle cx="870" cy="215" r="0.9" fill="#F0F0F0" opacity="0.7"/>
    <circle cx="950" cy="200" r="0.6" fill="#F0F0F0" opacity="0.6"/>
    <circle cx="1030" cy="180" r="1.2" fill="#F0F0F0" opacity="0.9"/>
    <circle cx="1110" cy="210" r="0.8" fill="#F0F0F0" opacity="0.7"/>
    <circle cx="45" cy="260" r="0.6" fill="#F0F0F0" opacity="0.5"/>
    <circle cx="130" cy="280" r="0.9" fill="#F0F0F0" opacity="0.6"/>
    <circle cx="210" cy="300" r="0.7" fill="#F0F0F0" opacity="0.7"/>
    <circle cx="370" cy="275" r="0.5" fill="#F0F0F0" opacity="0.5"/>
    <circle cx="450" cy="260" r="0.8" fill="#F0F0F0" opacity="0.6"/>
    <circle cx="530" cy="290" r="0.6" fill="#F0F0F0" opacity="0.5"/>
    <circle cx="680" cy="270" r="0.9" fill="#F0F0F0" opacity="0.7"/>
    <circle cx="760" cy="255" r="0.5" fill="#F0F0F0" opacity="0.5"/>
    <circle cx="840" cy="280" r="0.7" fill="#F0F0F0" opacity="0.6"/>
    <circle cx="1050" cy="260" r="0.6" fill="#F0F0F0" opacity="0.5"/>
    <circle cx="1150" cy="275" r="0.8" fill="#F0F0F0" opacity="0.6"/>
    <!-- Additional star cluster -->
    <circle cx="95" cy="45" r="0.4" fill="#F0F0F0" opacity="0.5"/>
    <circle cx="100" cy="50" r="0.3" fill="#F0F0F0" opacity="0.4"/>
    <circle cx="105" cy="42" r="0.5" fill="#F0F0F0" opacity="0.6"/>
    <circle cx="460" cy="42" r="0.3" fill="#F0F0F0" opacity="0.4"/>
    <circle cx="465" cy="38" r="0.5" fill="#F0F0F0" opacity="0.5"/>
    <circle cx="470" cy="45" r="0.4" fill="#F0F0F0" opacity="0.6"/>
    <circle cx="750" cy="48" r="0.3" fill="#F0F0F0" opacity="0.5"/>
    <circle cx="755" cy="44" r="0.5" fill="#F0F0F0" opacity="0.4"/>
    <circle cx="1080" cy="42" r="0.4" fill="#F0F0F0" opacity="0.5"/>
    <circle cx="1085" cy="48" r="0.3" fill="#F0F0F0" opacity="0.6"/>
    <!-- Extra stars for density -->
    <circle cx="35" cy="85" r="0.5" fill="#F0F0F0" opacity="0.5"/>
    <circle cx="275" cy="55" r="0.6" fill="#F0F0F0" opacity="0.7"/>
    <circle cx="345" cy="95" r="0.4" fill="#F0F0F0" opacity="0.5"/>
    <circle cx="515" cy="48" r="0.7" fill="#F0F0F0" opacity="0.6"/>
    <circle cx="595" cy="85" r="0.5" fill="#F0F0F0" opacity="0.5"/>
    <circle cx="675" cy="42" r="0.8" fill="#F0F0F0" opacity="0.7"/>
    <circle cx="815" cy="75" r="0.4" fill="#F0F0F0" opacity="0.5"/>
    <circle cx="955" cy="70" r="0.6" fill="#F0F0F0" opacity="0.6"/>
    <circle cx="1025" cy="95" r="0.5" fill="#F0F0F0" opacity="0.5"/>
    <circle cx="1155" cy="55" r="0.7" fill="#F0F0F0" opacity="0.6"/>
  </g>

  <!-- Shooting star / meteor -->
  <g id="meteor">
    <line x1="900" y1="80" x2="840" y2="140" stroke="#F0F0F0" stroke-width="1.5" opacity="0.6"/>
    <line x1="900" y1="80" x2="870" y2="110" stroke="#FFFFFF" stroke-width="0.8" opacity="0.8"/>
    <circle cx="900" cy="80" r="2" fill="#FFFFFF" opacity="0.7"/>
  </g>

  <!-- Moon -->
  <g id="moon">
    <circle cx="200" cy="120" r="50" fill="url(#moonGlow)"/>
    <circle cx="200" cy="120" r="35" fill="#E8E8F0"/>
    <!-- Moon craters -->
    <circle cx="188" cy="108" r="6" fill="#C8C8D8" opacity="0.4"/>
    <circle cx="210" cy="125" r="8" fill="#C8C8D8" opacity="0.3"/>
    <circle cx="195" cy="135" r="4" fill="#C8C8D8" opacity="0.35"/>
    <circle cx="208" cy="110" r="3" fill="#C8C8D8" opacity="0.25"/>
    <!-- Moon halo -->
    <circle cx="200" cy="120" r="60" fill="none" stroke="#F0F0F0" stroke-width="0.5" opacity="0.15"/>
    <circle cx="200" cy="120" r="75" fill="none" stroke="#F0F0F0" stroke-width="0.3" opacity="0.08"/>
  </g>

  <!-- Distant pagoda silhouettes -->
  <g id="pagodas" opacity="0.25">
    <!-- Pagoda 1 -->
    <path d="M380 380 L380 350 L370 350 L390 340 L370 340 L395 330 L375 330 L400 315 L385 320 L385 380Z" fill="#1A1A2E"/>
    <rect x="378" y="350" width="9" height="30" fill="#1A1A2E"/>
    <!-- Pagoda 2 (smaller, farther) -->
    <path d="M1050 400 L1050 380 L1044 380 L1056 374 L1044 374 L1058 365 L1048 370 L1048 400Z" fill="#1A1A2E"/>
    <rect x="1048" y="380" width="5" height="20" fill="#1A1A2E"/>
  </g>

  <!-- Far mountain range -->
  <path d="M0 500 Q50 420 120 440 Q180 380 260 420 Q340 360 420 400 Q500 340 580 380 Q660 320 740 370 Q820 310 900 360 Q960 310 1020 350 Q1080 300 1140 340 L1200 380 L1200 500Z" fill="url(#farMtGrad)" opacity="0.6"/>

  <!-- Mid mountain range -->
  <path d="M0 550 Q60 470 140 500 Q200 440 300 480 Q380 420 460 460 Q540 400 640 440 Q720 380 800 430 Q880 380 960 420 Q1040 370 1120 410 L1200 450 L1200 550Z" fill="url(#mtGrad)" opacity="0.8"/>

  <!-- Castle silhouette on mountain peak -->
  <g id="castle" opacity="0.35">
    <rect x="588" y="380" width="4" height="50" fill="#1A1A2E"/>
    <rect x="608" y="390" width="4" height="40" fill="#1A1A2E"/>
    <path d="M570 430 L570 410 L580 400 L590 410 L590 430Z" fill="#1A1A2E"/>
    <path d="M595 430 L595 395 L605 385 L615 395 L615 430Z" fill="#1A1A2E"/>
    <rect x="570" y="428" width="48" height="4" fill="#1A1A2E"/>
    <!-- Castle windows (tiny lights) -->
    <rect x="578" y="414" width="3" height="3" fill="#F1C40F" opacity="0.3"/>
    <rect x="603" y="400" width="3" height="3" fill="#F1C40F" opacity="0.25"/>
  </g>

  <!-- Mist layers -->
  <g id="mist">
    <ellipse cx="300" cy="480" rx="400" ry="30" fill="url(#mistGrad)"/>
    <ellipse cx="800" cy="460" rx="350" ry="25" fill="url(#mistGrad)"/>
    <ellipse cx="100" cy="500" rx="250" ry="20" fill="#2E4057" opacity="0.08"/>
    <ellipse cx="1000" cy="490" rx="200" ry="18" fill="#2E4057" opacity="0.06"/>
    <ellipse cx="600" cy="520" rx="500" ry="35" fill="#2D2D4A" opacity="0.1"/>
  </g>

  <!-- Near mountain range -->
  <path d="M0 600 Q80 520 180 560 Q260 490 360 530 Q440 470 540 510 Q620 460 720 500 Q800 450 900 490 Q980 440 1060 480 Q1140 430 1200 470 L1200 600Z" fill="#1A1A2E" opacity="0.9"/>

  <!-- Bamboo forest silhouettes on mountains -->
  <g id="bamboo" opacity="0.2">
    <line x1="160" y1="560" x2="160" y2="500" stroke="#2D5016" stroke-width="2"/>
    <line x1="168" y1="550" x2="168" y2="495" stroke="#2D5016" stroke-width="1.5"/>
    <line x1="175" y1="555" x2="175" y2="505" stroke="#2D5016" stroke-width="2"/>
    <line x1="350" y1="530" x2="350" y2="470" stroke="#2D5016" stroke-width="1.5"/>
    <line x1="356" y1="535" x2="356" y2="480" stroke="#2D5016" stroke-width="2"/>
    <line x1="720" y1="500" x2="720" y2="440" stroke="#2D5016" stroke-width="1.5"/>
    <line x1="728" y1="505" x2="728" y2="450" stroke="#2D5016" stroke-width="2"/>
    <line x1="1050" y1="480" x2="1050" y2="420" stroke="#2D5016" stroke-width="1.5"/>
    <line x1="1058" y1="485" x2="1058" y2="430" stroke="#2D5016" stroke-width="2"/>
  </g>

  <!-- Tree line on nearest mountains -->
  <g id="trees" opacity="0.4">
    <path d="M0 600 Q10 580 20 600 Q30 575 40 600 Q50 580 60 600 Q70 570 80 600 Q90 582 100 600 Q110 575 120 600 Q130 580 140 600 Q150 568 160 600 Q170 578 180 600" fill="#0D0D1A"/>
    <path d="M400 570 Q410 550 420 570 Q430 548 440 570 Q450 555 460 570" fill="#0D0D1A"/>
    <path d="M800 530 Q810 510 820 530 Q830 505 840 530 Q850 515 860 530" fill="#0D0D1A"/>
  </g>

  <!-- Foreground dark with torii gate hint -->
  <rect x="0" y="590" width="1200" height="210" fill="#0D0D1A" opacity="0.7"/>

  <!-- Torii gate silhouette (far) -->
  <g id="torii" opacity="0.15">
    <rect x="490" y="540" width="6" height="60" fill="#E74C3C"/>
    <rect x="700" y="540" width="6" height="60" fill="#E74C3C"/>
    <rect x="480" y="540" width="236" height="6" rx="2" fill="#E74C3C"/>
    <rect x="486" y="552" width="224" height="4" rx="1" fill="#E74C3C"/>
  </g>

  <!-- Low mist at bottom -->
  <ellipse cx="600" cy="700" rx="600" ry="60" fill="#2D2D4A" opacity="0.12"/>
  <ellipse cx="300" cy="720" rx="300" ry="40" fill="#2E4057" opacity="0.08"/>
  <ellipse cx="900" cy="710" rx="350" ry="45" fill="#2D2D4A" opacity="0.1"/>

  <!-- Fireflies/spirit lights -->
  <g id="spirits" opacity="0.4">
    <circle cx="150" cy="500" r="2" fill="#F1C40F"/>
    <circle cx="350" cy="480" r="1.5" fill="#00B4D8"/>
    <circle cx="550" cy="520" r="2" fill="#F1C40F"/>
    <circle cx="750" cy="470" r="1.5" fill="#FFB7C5"/>
    <circle cx="950" cy="500" r="2" fill="#00B4D8"/>
    <circle cx="1100" cy="490" r="1.5" fill="#F1C40F"/>
  </g>
</svg>