<svg xmlns="http://www.w3.org/2000/svg" width="400" height="300" viewBox="0 0 400 300">
  <defs>
    <!-- Night sky gradient -->
    <linearGradient id="tSky" x1="0" y1="0" x2="0" y2="1">
      <stop offset="0%" stop-color="#0A0A1A"/>
      <stop offset="40%" stop-color="#1A1A2E"/>
      <stop offset="80%" stop-color="#2D2D4A"/>
      <stop offset="100%" stop-color="#2E4057"/>
    </linearGradient>
    <!-- Moon glow -->
    <radialGradient id="tMoon" cx="0.5" cy="0.5" r="0.5">
      <stop offset="0%" stop-color="#F0F0F0"/>
      <stop offset="40%" stop-color="#E8E8F0"/>
      <stop offset="70%" stop-color="#C0C0D0" stop-opacity="0.3"/>
      <stop offset="100%" stop-color="#1A1A2E" stop-opacity="0"/>
    </radialGradient>
    <!-- Ninja body gradient -->
    <linearGradient id="tNinja" x1="0" y1="0" x2="0.5" y2="1">
      <stop offset="0%" stop-color="#2E4057"/>
      <stop offset="100%" stop-color="#1A1A2E"/>
    </linearGradient>
    <!-- Scarf gradient -->
    <linearGradient id="tScarf" x1="0" y1="0" x2="1" y2="0.5">
      <stop offset="0%" stop-color="#E74C3C"/>
      <stop offset="100%" stop-color="#C0392B"/>
    </linearGradient>
    <!-- Yokai purple gradient -->
    <radialGradient id="tYokai" cx="0.5" cy="0.4" r="0.5">
      <stop offset="0%" stop-color="#9B3FA0"/>
      <stop offset="100%" stop-color="#4A1A54"/>
    </radialGradient>
    <!-- Shadow energy -->
    <radialGradient id="tShadow" cx="0.5" cy="0.5" r="0.5">
      <stop offset="0%" stop-color="#00B4D8" stop-opacity="0.5"/>
      <stop offset="100%" stop-color="#00B4D8" stop-opacity="0"/>
    </radialGradient>
    <!-- Title gradient -->
    <linearGradient id="titleGrad" x1="0" y1="0" x2="0" y2="1">
      <stop offset="0%" stop-color="#F1C40F"/>
      <stop offset="50%" stop-color="#D4A017"/>
      <stop offset="100%" stop-color="#8B6914"/>
    </linearGradient>
    <!-- Subtitle gradient -->
    <linearGradient id="subGrad" x1="0" y1="0" x2="0" y2="1">
      <stop offset="0%" stop-color="#F0F0F0"/>
      <stop offset="100%" stop-color="#A0A0B0"/>
    </linearGradient>
    <!-- Castle gradient -->
    <linearGradient id="tCastle" x1="0" y1="0" x2="0" y2="1">
      <stop offset="0%" stop-color="#2D2D4A"/>
      <stop offset="100%" stop-color="#0D0D1A"/>
    </linearGradient>
    <!-- Glow filter -->
    <filter id="tGlow" x="-20%" y="-20%" width="140%" height="140%">
      <feGaussianBlur in="SourceGraphic" stdDeviation="2" result="blur"/>
      <feFlood flood-color="#00B4D8" flood-opacity="0.4" result="color"/>
      <feComposite in="color" in2="blur" operator="in" result="glow"/>
      <feMerge>
        <feMergeNode in="glow"/>
        <feMergeNode in="SourceGraphic"/>
      </feMerge>
    </filter>
    <!-- Text shadow filter -->
    <filter id="textShadow" x="-10%" y="-10%" width="120%" height="120%">
      <feDropShadow dx="1" dy="2" stdDeviation="2" flood-color="#0A0A1A" flood-opacity="0.8"/>
    </filter>
    <!-- Title glow filter -->
    <filter id="titleGlow" x="-10%" y="-10%" width="120%" height="130%">
      <feGaussianBlur in="SourceGraphic" stdDeviation="3" result="blur"/>
      <feFlood flood-color="#F1C40F" flood-opacity="0.4" result="color"/>
      <feComposite in="color" in2="blur" operator="in" result="glow"/>
      <feMerge>
        <feMergeNode in="glow"/>
        <feMergeNode in="SourceGraphic"/>
      </feMerge>
    </filter>
    <!-- Yokai glow -->
    <filter id="tYokaiGlow" x="-20%" y="-20%" width="140%" height="140%">
      <feGaussianBlur in="SourceGraphic" stdDeviation="1.5" result="blur"/>
      <feFlood flood-color="#7B2D8E" flood-opacity="0.3" result="color"/>
      <feComposite in="color" in2="blur" operator="in" result="glow"/>
      <feMerge>
        <feMergeNode in="glow"/>
        <feMergeNode in="SourceGraphic"/>
      </feMerge>
    </filter>
  </defs>

  <!-- Sky background -->
  <rect width="400" height="300" fill="url(#tSky)"/>

  <!-- Stars -->
  <g id="tStars">
    <circle cx="20" cy="15" r="0.8" fill="#F0F0F0" opacity="0.8"/>
    <circle cx="55" cy="30" r="0.5" fill="#F0F0F0" opacity="0.6"/>
    <circle cx="90" cy="12" r="0.7" fill="#F0F0F0" opacity="0.7"/>
    <circle cx="130" cy="35" r="0.6" fill="#F0F0F0" opacity="0.8"/>
    <circle cx="170" cy="18" r="0.9" fill="#F0F0F0" opacity="0.9"/>
    <circle cx="210" cy="8" r="0.5" fill="#F0F0F0" opacity="0.6"/>
    <circle cx="245" cy="25" r="0.7" fill="#F0F0F0" opacity="0.7"/>
    <circle cx="280" cy="10" r="0.6" fill="#00B4D8" opacity="0.4"/>
    <circle cx="310" cy="32" r="0.8" fill="#F0F0F0" opacity="0.8"/>
    <circle cx="345" cy="15" r="0.5" fill="#F0F0F0" opacity="0.6"/>
    <circle cx="375" cy="28" r="0.7" fill="#F0F0F0" opacity="0.7"/>
    <circle cx="40" cy="50" r="0.5" fill="#F0F0F0" opacity="0.5"/>
    <circle cx="115" cy="55" r="0.6" fill="#F0F0F0" opacity="0.6"/>
    <circle cx="195" cy="48" r="0.4" fill="#FFB7C5" opacity="0.4"/>
    <circle cx="260" cy="42" r="0.7" fill="#F0F0F0" opacity="0.7"/>
    <circle cx="330" cy="50" r="0.5" fill="#F0F0F0" opacity="0.5"/>
    <circle cx="390" cy="42" r="0.6" fill="#F0F0F0" opacity="0.6"/>
    <circle cx="65" cy="68" r="0.5" fill="#F0F0F0" opacity="0.5"/>
    <circle cx="150" cy="72" r="0.4" fill="#F0F0F0" opacity="0.4"/>
    <circle cx="355" cy="65" r="0.5" fill="#F0F0F0" opacity="0.5"/>
  </g>

  <!-- Moon -->
  <circle cx="320" cy="55" r="30" fill="url(#tMoon)"/>
  <circle cx="320" cy="55" r="20" fill="#E8E8F0"/>
  <circle cx="312" cy="48" r="3.5" fill="#C8C8D8" opacity="0.3"/>
  <circle cx="326" cy="58" r="4.5" fill="#C8C8D8" opacity="0.25"/>
  <circle cx="318" cy="64" r="2" fill="#C8C8D8" opacity="0.3"/>
  <!-- Moon halo -->
  <circle cx="320" cy="55" r="38" fill="none" stroke="#F0F0F0" stroke-width="0.5" opacity="0.1"/>

  <!-- Far mountain range -->
  <path d="M0 160 Q40 130 80 145 Q120 110 160 135 Q200 100 240 125 Q280 95 320 120 Q360 90 400 115 L400 180Z" fill="#1A1A2E" opacity="0.5"/>

  <!-- Castle silhouette on mountain -->
  <g id="tCastleG" opacity="0.5">
    <!-- Castle main -->
    <rect x="230" y="100" width="20" height="35" fill="url(#tCastle)"/>
    <rect x="225" y="95" width="30" height="8" rx="1" fill="url(#tCastle)"/>
    <path d="M222 95 L240 82 L258 95Z" fill="url(#tCastle)"/>
    <path d="M228 82 L240 72 L252 82Z" fill="url(#tCastle)"/>
    <!-- Castle towers -->
    <rect x="218" y="102" width="8" height="28" fill="#2D2D4A"/>
    <path d="M216 102 L222 94 L228 102Z" fill="#2D2D4A"/>
    <rect x="254" y="105" width="8" height="25" fill="#2D2D4A"/>
    <path d="M252 105 L258 97 L264 105Z" fill="#2D2D4A"/>
    <!-- Castle windows -->
    <rect x="237" y="108" width="3" height="3" fill="#F1C40F" opacity="0.3"/>
    <rect x="237" y="118" width="3" height="3" fill="#F1C40F" opacity="0.25"/>
    <rect x="220" y="112" width="2" height="2" fill="#F1C40F" opacity="0.2"/>
    <rect x="257" y="114" width="2" height="2" fill="#F1C40F" opacity="0.2"/>
  </g>

  <!-- Mid mountain range -->
  <path d="M0 180 Q50 155 100 170 Q150 140 200 160 Q250 130 300 155 Q350 125 400 145 L400 200Z" fill="#1A1A2E" opacity="0.7"/>

  <!-- Bamboo silhouettes -->
  <g id="tBamboo" opacity="0.4">
    <line x1="30" y1="100" x2="30" y2="200" stroke="#2D5016" stroke-width="2.5"/>
    <line x1="38" y1="95" x2="38" y2="195" stroke="#2D5016" stroke-width="2"/>
    <line x1="45" y1="105" x2="45" y2="200" stroke="#2D5016" stroke-width="2.5"/>
    <path d="M30 100 Q18 92 12 98 Q22 95 30 100Z" fill="#2D5016" opacity="0.5"/>
    <path d="M38 95 Q46 85 52 90 Q45 88 38 95Z" fill="#2D5016" opacity="0.5"/>
    <line x1="370" y1="110" x2="370" y2="195" stroke="#2D5016" stroke-width="2"/>
    <line x1="378" y1="105" x2="378" y2="190" stroke="#2D5016" stroke-width="2.5"/>
    <line x1="385" y1="115" x2="385" y2="195" stroke="#2D5016" stroke-width="2"/>
    <path d="M370 110 Q360 102 355 108 Q363 105 370 110Z" fill="#2D5016" opacity="0.5"/>
  </g>

  <!-- Near mountain range -->
  <path d="M0 200 Q60 175 120 190 Q180 165 240 185 Q300 160 360 180 L400 175 L400 220Z" fill="#1A1A2E" opacity="0.85"/>

  <!-- Mist -->
  <ellipse cx="200" cy="190" rx="180" ry="15" fill="#2D2D4A" opacity="0.15"/>
  <ellipse cx="100" cy="200" rx="120" ry="10" fill="#2E4057" opacity="0.1"/>

  <!-- Torii gate -->
  <g id="tTorii" opacity="0.5">
    <rect x="155" y="165" width="4" height="50" fill="#C0392B"/>
    <rect x="241" y="165" width="4" height="50" fill="#C0392B"/>
    <rect x="150" y="165" width="100" height="4" rx="1.5" fill="#E74C3C"/>
    <rect x="153" y="173" width="94" height="3" rx="1" fill="#C0392B"/>
  </g>

  <!-- Ground -->
  <path d="M0 210 Q100 200 200 208 Q300 195 400 205 L400 300 L0 300Z" fill="#0D0D1A"/>

  <!-- === MAIN CHARACTERS === -->

  <!-- Yokai boss (right side, looming) -->
  <g id="tBoss" filter="url(#tYokaiGlow)" transform="translate(300, 130)">
    <!-- Dark energy aura -->
    <ellipse cx="30" cy="30" rx="45" ry="50" fill="#7B2D8E" opacity="0.08"/>
    <!-- Boss body -->
    <path d="M10 20 Q5 30 5 45 Q5 60 12 68 L20 72 Q28 75 36 72 L44 68 Q50 60 50 45 Q50 30 46 20 Q40 10 28 8 Q16 10 10 20Z" fill="url(#tYokai)" opacity="0.85"/>
    <!-- Horns -->
    <path d="M14 14 Q10 4 8 -4 Q12 4 16 12Z" fill="#8B4513" opacity="0.8"/>
    <path d="M42 14 Q46 4 48 -4 Q44 4 40 12Z" fill="#8B4513" opacity="0.8"/>
    <!-- Eyes -->
    <ellipse cx="20" cy="28" rx="4" ry="2.5" fill="#0D0D1A"/>
    <ellipse cx="20" cy="28" rx="2.5" ry="1.5" fill="#FF6B35"/>
    <ellipse cx="20" cy="27.5" rx="1" ry="0.7" fill="#FFFFFF"/>
    <ellipse cx="36" cy="28" rx="4" ry="2.5" fill="#0D0D1A"/>
    <ellipse cx="36" cy="28" rx="2.5" ry="1.5" fill="#FF6B35"/>
    <ellipse cx="36" cy="27.5" rx="1" ry="0.7" fill="#FFFFFF"/>
    <!-- Eye glow -->
    <ellipse cx="20" cy="28" rx="6" ry="3.5" fill="#FF6B35" opacity="0.15"/>
    <ellipse cx="36" cy="28" rx="6" ry="3.5" fill="#FF6B35" opacity="0.15"/>
    <!-- Mouth -->
    <path d="M18 38 Q24 42 28 40 Q32 42 38 38" stroke="#E74C3C" stroke-width="0.8" fill="none"/>
    <path d="M22 39 L20 43 L24 40Z" fill="#F0F0F0" opacity="0.7"/>
    <path d="M34 39 L36 43 L32 40Z" fill="#F0F0F0" opacity="0.7"/>
    <!-- Arms / claws -->
    <path d="M5 35 Q-2 42 -5 50 Q-3 48 0 44 L5 40Z" fill="url(#tYokai)" opacity="0.7"/>
    <path d="M50 35 Q58 42 62 50 Q60 48 56 44 L50 40Z" fill="url(#tYokai)" opacity="0.7"/>
    <path d="M-5 50 L-10 48 L-6 52 L-12 54 L-6 54Z" fill="#F0F0F0" opacity="0.5"/>
    <path d="M62 50 L67 48 L63 52 L69 54 L63 54Z" fill="#F0F0F0" opacity="0.5"/>
    <!-- Forehead symbol -->
    <path d="M25 18 L28 14 L31 18 L28 22Z" fill="#E74C3C" opacity="0.5"/>
    <!-- Dark particles -->
    <circle cx="-8" cy="20" r="1.5" fill="#7B2D8E" opacity="0.5"/>
    <circle cx="66" cy="18" r="1" fill="#7B2D8E" opacity="0.4"/>
    <circle cx="-4" cy="60" r="1.2" fill="#E74C3C" opacity="0.3"/>
    <circle cx="62" cy="62" r="1" fill="#E74C3C" opacity="0.3"/>
  </g>

  <!-- Ninja hero (left-center, action pose) -->
  <g id="tHero" filter="url(#tGlow)" transform="translate(100, 135)">
    <!-- Shadow aura -->
    <ellipse cx="25" cy="35" rx="25" ry="30" fill="url(#tShadow)" opacity="0.6"/>

    <!-- Legs -->
    <path d="M16 50 L12 65 Q10 68 14 70 L18 68 L20 50Z" fill="url(#tNinja)"/>
    <path d="M30 48 L36 62 Q38 66 42 64 L38 60 L32 48Z" fill="url(#tNinja)"/>

    <!-- Body -->
    <path d="M14 25 Q12 30 12 38 L12 52 Q12 54 18 54 L32 52 Q36 52 36 50 L36 38 Q36 30 34 25 Q28 20 14 25Z" fill="url(#tNinja)"/>
    <!-- Chest plate -->
    <path d="M16 28 Q24 25 32 28 L31 42 Q24 46 17 42Z" fill="#2E4057" opacity="0.6"/>
    <path d="M17 29 Q24 26 31 29" stroke="#00B4D8" stroke-width="0.3" fill="none" opacity="0.4"/>

    <!-- Scarf -->
    <path d="M14 22 Q24 19 34 22 Q36 25 32 26 Q24 23 16 26 Q12 25 14 22Z" fill="url(#tScarf)"/>
    <!-- Scarf tails flowing -->
    <path d="M34 23 Q42 28 48 38 Q46 34 42 28 Q38 24 34 24Z" fill="#E74C3C" opacity="0.8"/>
    <path d="M36 25 Q44 32 50 42 Q48 36 44 30Z" fill="#C0392B" opacity="0.5"/>

    <!-- Arms -->
    <!-- Left arm extended with shuriken -->
    <path d="M12 28 Q6 32 2 38 L4 40 Q8 34 12 32Z" fill="url(#tNinja)"/>
    <!-- Shuriken in hand -->
    <g transform="translate(0, 38) rotate(15)">
      <path d="M0 -3 L1 -1 L3 0 L1 1 L0 3 L-1 1 L-3 0 L-1 -1Z" fill="#B0C4DE" stroke="#708090" stroke-width="0.2"/>
      <circle cx="0" cy="0" r="0.6" fill="#708090"/>
    </g>
    <!-- Right arm with blade -->
    <path d="M36 28 Q42 30 46 36 L44 38 Q40 32 36 30Z" fill="url(#tNinja)"/>
    <!-- Katana -->
    <path d="M46 34 L56 18 L58 16 L54 20 L44 36Z" fill="#B0C4DE" stroke="#F0F0F0" stroke-width="0.2"/>
    <path d="M56 18 L57 17 L58 18Z" fill="#F0F0F0"/>
    <!-- Katana glow -->
    <line x1="48" y1="30" x2="56" y2="18" stroke="#00B4D8" stroke-width="0.5" opacity="0.3"/>

    <!-- Head -->
    <path d="M16 8 Q16 2 22 0 Q25 -1 28 0 Q34 2 34 8 L34 20 Q34 23 28 24 L20 24 Q16 23 16 20Z" fill="url(#tNinja)"/>
    <!-- Mask -->
    <path d="M15 10 Q15 2 22 -1 Q25 -2 28 -1 Q35 2 35 10 L35 14 Q35 15 34 15 L16 15 Q15 15 15 14Z" fill="#1A1A2E"/>
    <!-- Mask lower -->
    <path d="M17 16 Q25 15 33 16 Q33 22 28 23 L22 23 Q17 22 17 16Z" fill="#1A1A2E" opacity="0.8"/>
    <!-- Eyes - glowing cyan -->
    <ellipse cx="22" cy="11" rx="3" ry="1.8" fill="#0D0D1A"/>
    <ellipse cx="22" cy="11" rx="2" ry="1.2" fill="#00B4D8"/>
    <ellipse cx="22" cy="10.5" rx="1" ry="0.6" fill="#FFFFFF"/>
    <ellipse cx="29" cy="11" rx="3" ry="1.8" fill="#0D0D1A"/>
    <ellipse cx="29" cy="11" rx="2" ry="1.2" fill="#00B4D8"/>
    <ellipse cx="29" cy="10.5" rx="1" ry="0.6" fill="#FFFFFF"/>
    <!-- Eye glow -->
    <ellipse cx="22" cy="11" rx="4" ry="2.5" fill="#00B4D8" opacity="0.2"/>
    <ellipse cx="29" cy="11" rx="4" ry="2.5" fill="#00B4D8" opacity="0.2"/>
    <!-- Headband -->
    <rect x="15" y="7" width="20" height="2.5" rx="0.5" fill="#E74C3C"/>
    <rect x="23" y="6.5" width="5" height="3.5" rx="0.5" fill="#E74C3C"/>
    <!-- Headband metal plate -->
    <rect x="23.5" y="7" width="4" height="2.5" rx="0.3" fill="#708090"/>
    <text x="25.5" y="9" font-size="2" fill="#F1C40F" text-anchor="middle" font-weight="bold">影</text>
    <!-- Headband tails -->
    <path d="M35 8 Q40 12 44 18 Q42 16 38 12 Q36 9 35 8.5Z" fill="#E74C3C" opacity="0.7"/>
    <path d="M36 9 Q42 14 46 22 Q44 18 40 14Z" fill="#C0392B" opacity="0.5"/>
  </g>

  <!-- Shadow energy trail from hero -->
  <g id="tTrail" opacity="0.3">
    <path d="M115 185 Q105 190 95 200 Q85 210 75 215" stroke="#00B4D8" stroke-width="1.5" fill="none"/>
    <path d="M120 188 Q108 195 98 205 Q88 215 78 220" stroke="#2E4057" stroke-width="2" fill="none"/>
    <ellipse cx="80" cy="218" rx="10" ry="4" fill="#00B4D8" opacity="0.15"/>
  </g>

  <!-- Cherry blossom petals (atmosphere) -->
  <g id="tBlossoms" opacity="0.5">
    <ellipse cx="60" cy="120" rx="2" ry="1.2" fill="#FFB7C5" transform="rotate(30,60,120)"/>
    <ellipse cx="180" cy="100" rx="1.8" ry="1" fill="#FFB7C5" transform="rotate(-20,180,100)"/>
    <ellipse cx="270" cy="140" rx="2" ry="1.2" fill="#FFB7C5" transform="rotate(50,270,140)"/>
    <ellipse cx="350" cy="110" rx="1.5" ry="0.8" fill="#FFD4DD" transform="rotate(-40,350,110)"/>
    <ellipse cx="140" cy="160" rx="1.8" ry="1" fill="#FFB7C5" transform="rotate(15,140,160)"/>
    <ellipse cx="240" cy="170" rx="1.5" ry="0.9" fill="#FFD4DD" transform="rotate(-35,240,170)"/>
    <ellipse cx="50" cy="175" rx="2" ry="1.2" fill="#FFB7C5" transform="rotate(60,50,175)"/>
    <ellipse cx="360" cy="160" rx="1.5" ry="0.8" fill="#FFB7C5" transform="rotate(-25,360,160)"/>
  </g>

  <!-- Shuriken projectile mid-air -->
  <g transform="translate(175, 170) rotate(30)" opacity="0.6">
    <path d="M0 -5 L2 -1.5 L5 0 L2 1.5 L0 5 L-2 1.5 L-5 0 L-2 -1.5Z" fill="#B0C4DE" stroke="#708090" stroke-width="0.3"/>
    <circle cx="0" cy="0" r="1" fill="#F0F0F0"/>
    <!-- Motion blur -->
    <line x1="6" y1="-2" x2="12" y2="-5" stroke="#B0C4DE" stroke-width="0.5" opacity="0.4"/>
    <line x1="6" y1="0" x2="14" y2="-2" stroke="#B0C4DE" stroke-width="0.3" opacity="0.3"/>
  </g>

  <!-- Fireflies in scene -->
  <g id="tFireflies" opacity="0.5">
    <circle cx="80" cy="200" r="1.5" fill="#F1C40F"/>
    <circle cx="220" cy="195" r="1" fill="#F1C40F"/>
    <circle cx="170" cy="210" r="1.2" fill="#00B4D8"/>
    <circle cx="300" cy="205" r="1.5" fill="#F1C40F"/>
    <circle cx="50" cy="210" r="1" fill="#00B4D8"/>
  </g>

  <!-- Ink splatter decorative accents -->
  <g id="tInk" opacity="0.2">
    <circle cx="15" cy="195" r="3" fill="#1A1A2E"/>
    <circle cx="18" cy="200" r="1.5" fill="#1A1A2E"/>
    <circle cx="12" cy="198" r="1" fill="#1A1A2E"/>
    <circle cx="385" cy="190" r="2.5" fill="#1A1A2E"/>
    <circle cx="388" cy="195" r="1.2" fill="#1A1A2E"/>
    <circle cx="382" cy="188" r="0.8" fill="#1A1A2E"/>
    <!-- Brush stroke accent top-left -->
    <path d="M5 220 Q15 215 25 220 Q35 218 45 222" stroke="#1A1A2E" stroke-width="1.5" fill="none" opacity="0.5"/>
    <!-- Brush stroke bottom-right -->
    <path d="M355 220 Q365 215 375 218 Q385 216 395 220" stroke="#1A1A2E" stroke-width="1.5" fill="none" opacity="0.5"/>
  </g>

  <!-- === TITLE TEXT === -->
  <g id="title">
    <!-- Dark backing bar -->
    <rect x="0" y="232" width="400" height="68" fill="#0A0A1A" opacity="0.75"/>
    <line x1="0" y1="232" x2="400" y2="232" stroke="#F1C40F" stroke-width="0.5" opacity="0.4"/>
    <line x1="0" y1="300" x2="400" y2="300" stroke="#F1C40F" stroke-width="0.5" opacity="0.3"/>

    <!-- Decorative corner elements -->
    <path d="M10 238 L30 238 L30 240 L12 240 L12 252 L10 252Z" stroke="#F1C40F" stroke-width="0.5" fill="none" opacity="0.5"/>
    <path d="M390 238 L370 238 L370 240 L388 240 L388 252 L390 252Z" stroke="#F1C40F" stroke-width="0.5" fill="none" opacity="0.5"/>
    <path d="M10 294 L30 294 L30 292 L12 292 L12 280 L10 280Z" stroke="#F1C40F" stroke-width="0.5" fill="none" opacity="0.4"/>
    <path d="M390 294 L370 294 L370 292 L388 292 L388 280 L390 280Z" stroke="#F1C40F" stroke-width="0.5" fill="none" opacity="0.4"/>

    <!-- Main title: 그림자 닌자 -->
    <text x="200" y="265" font-size="30" fill="url(#titleGrad)" text-anchor="middle" font-weight="bold" filter="url(#titleGlow)" font-family="sans-serif">그림자 닌자</text>

    <!-- Subtitle: Shadow Shinobi -->
    <text x="200" y="285" font-size="13" fill="url(#subGrad)" text-anchor="middle" font-weight="normal" filter="url(#textShadow)" font-family="sans-serif" letter-spacing="3">SHADOW SHINOBI</text>

    <!-- Kanji accent marks -->
    <text x="60" y="268" font-size="10" fill="#E74C3C" opacity="0.25" text-anchor="middle">忍</text>
    <text x="340" y="268" font-size="10" fill="#E74C3C" opacity="0.25" text-anchor="middle">影</text>
  </g>

  <!-- Additional atmospheric details -->
  <g id="tExtraDetails">
    <!-- Rain streaks (subtle) -->
    <g opacity="0.12">
      <line x1="30" y1="80" x2="25" y2="120" stroke="#B0C4DE" stroke-width="0.5"/>
      <line x1="70" y1="60" x2="65" y2="100" stroke="#B0C4DE" stroke-width="0.4"/>
      <line x1="110" y1="70" x2="105" y2="110" stroke="#B0C4DE" stroke-width="0.5"/>
      <line x1="150" y1="55" x2="145" y2="95" stroke="#B0C4DE" stroke-width="0.4"/>
      <line x1="190" y1="75" x2="185" y2="115" stroke="#B0C4DE" stroke-width="0.5"/>
      <line x1="230" y1="62" x2="225" y2="102" stroke="#B0C4DE" stroke-width="0.4"/>
      <line x1="270" y1="78" x2="265" y2="118" stroke="#B0C4DE" stroke-width="0.5"/>
      <line x1="310" y1="58" x2="305" y2="98" stroke="#B0C4DE" stroke-width="0.4"/>
      <line x1="350" y1="72" x2="345" y2="112" stroke="#B0C4DE" stroke-width="0.5"/>
      <line x1="390" y1="65" x2="385" y2="105" stroke="#B0C4DE" stroke-width="0.4"/>
      <line x1="50" y1="100" x2="45" y2="140" stroke="#B0C4DE" stroke-width="0.3"/>
      <line x1="130" y1="90" x2="125" y2="130" stroke="#B0C4DE" stroke-width="0.3"/>
      <line x1="210" y1="95" x2="205" y2="135" stroke="#B0C4DE" stroke-width="0.3"/>
      <line x1="290" y1="85" x2="285" y2="125" stroke="#B0C4DE" stroke-width="0.3"/>
      <line x1="370" y1="88" x2="365" y2="128" stroke="#B0C4DE" stroke-width="0.3"/>
    </g>

    <!-- Ground texture details -->
    <g opacity="0.2">
      <ellipse cx="50" cy="222" rx="8" ry="2" fill="#2D2D4A"/>
      <ellipse cx="150" cy="218" rx="10" ry="2.5" fill="#2D2D4A"/>
      <ellipse cx="250" cy="220" rx="7" ry="2" fill="#2D2D4A"/>
      <ellipse cx="350" cy="216" rx="9" ry="2.5" fill="#2D2D4A"/>
      <ellipse cx="100" cy="225" rx="6" ry="1.5" fill="#3A3A50"/>
      <ellipse cx="200" cy="223" rx="8" ry="2" fill="#3A3A50"/>
      <ellipse cx="300" cy="225" rx="7" ry="1.5" fill="#3A3A50"/>
    </g>

    <!-- Additional stone lantern (left far) -->
    <g transform="translate(60, 195)" opacity="0.3">
      <rect x="-2" y="0" width="4" height="12" fill="#3A3A50"/>
      <rect x="-4" y="-5" width="8" height="6" rx="0.5" fill="#3A3A50"/>
      <path d="M-5 -6 L0 -10 L5 -6Z" fill="#3A3A50"/>
      <rect x="-2" y="-3" width="2" height="3" rx="0.5" fill="#F1C40F" opacity="0.5"/>
      <rect x="0.5" y="-3" width="2" height="3" rx="0.5" fill="#F1C40F" opacity="0.5"/>
      <circle cx="0" cy="-2" r="6" fill="#F1C40F" opacity="0.08"/>
    </g>

    <!-- Stepping stones path -->
    <g opacity="0.25">
      <ellipse cx="160" cy="215" rx="5" ry="2" fill="#3A3A50"/>
      <ellipse cx="175" cy="218" rx="4" ry="1.5" fill="#2D2D4A"/>
      <ellipse cx="190" cy="214" rx="5" ry="2" fill="#3A3A50"/>
      <ellipse cx="205" cy="217" rx="4" ry="1.5" fill="#2D2D4A"/>
    </g>

    <!-- Additional cherry blossom branch (top-right) -->
    <g opacity="0.3">
      <path d="M380 75 Q370 80 360 78 Q350 82 340 80" stroke="#5C4033" stroke-width="1.5" fill="none"/>
      <path d="M360 78 Q355 72 358 66" stroke="#5C4033" stroke-width="1" fill="none"/>
      <ellipse cx="340" cy="80" rx="3" ry="2" fill="#FFB7C5" opacity="0.6"/>
      <ellipse cx="345" cy="78" rx="2" ry="1.5" fill="#FFD4DD" opacity="0.5"/>
      <ellipse cx="338" cy="76" rx="2.5" ry="1.5" fill="#FFB7C5" opacity="0.5"/>
      <ellipse cx="358" cy="66" rx="2" ry="1.5" fill="#FFB7C5" opacity="0.6"/>
      <ellipse cx="355" cy="64" rx="1.5" ry="1" fill="#FFD4DD" opacity="0.4"/>
    </g>

    <!-- Smoke/mist rising from ground -->
    <g opacity="0.08">
      <path d="M80 210 Q85 195 75 185 Q80 178 90 180" stroke="#B0C4DE" stroke-width="2" fill="none"/>
      <path d="M320 208 Q325 192 318 182 Q322 175 330 178" stroke="#B0C4DE" stroke-width="2" fill="none"/>
    </g>

    <!-- Additional stars for extra detail -->
    <g opacity="0.5">
      <circle cx="8" cy="8" r="0.6" fill="#F0F0F0"/>
      <circle cx="25" cy="42" r="0.4" fill="#F0F0F0"/>
      <circle cx="78" cy="38" r="0.5" fill="#F0F0F0"/>
      <circle cx="155" cy="45" r="0.4" fill="#F0F0F0"/>
      <circle cx="228" cy="35" r="0.5" fill="#F0F0F0"/>
      <circle cx="298" cy="45" r="0.4" fill="#F0F0F0"/>
      <circle cx="365" cy="38" r="0.5" fill="#F0F0F0"/>
      <circle cx="395" cy="12" r="0.4" fill="#F0F0F0"/>
    </g>

    <!-- Kanji decorative watermark -->
    <text x="200" y="150" font-size="60" fill="#2D2D4A" text-anchor="middle" opacity="0.04" font-weight="bold">忍道</text>

    <!-- Sword slash energy arc -->
    <path d="M150 148 Q165 142 155 155" stroke="#00B4D8" stroke-width="0.8" fill="none" opacity="0.3"/>
    <path d="M148 145 Q168 138 156 158" stroke="#00B4D8" stroke-width="0.4" fill="none" opacity="0.2"/>

    <!-- Additional dark energy particles around boss -->
    <g opacity="0.35">
      <circle cx="310" cy="140" r="1.2" fill="#7B2D8E"/>
      <circle cx="355" cy="135" r="0.8" fill="#7B2D8E"/>
      <circle cx="318" cy="155" r="1" fill="#E74C3C" opacity="0.4"/>
      <circle cx="348" cy="148" r="0.7" fill="#E74C3C" opacity="0.3"/>
      <circle cx="290" cy="148" r="0.9" fill="#7B2D8E"/>
      <circle cx="362" cy="155" r="1.1" fill="#7B2D8E"/>
    </g>

    <!-- Texture grain overlay effect (ink wash style) -->
    <g opacity="0.03">
      <circle cx="40" cy="40" r="30" fill="#F0F0F0"/>
      <circle cx="120" cy="80" r="25" fill="#F0F0F0"/>
      <circle cx="280" cy="50" r="35" fill="#F0F0F0"/>
      <circle cx="360" cy="90" r="20" fill="#F0F0F0"/>
      <circle cx="200" cy="130" r="40" fill="#F0F0F0"/>
      <circle cx="60" cy="160" r="30" fill="#F0F0F0"/>
      <circle cx="340" cy="170" r="28" fill="#F0F0F0"/>
    </g>
  </g>

  <!-- Subtle vignette overlay -->
  <rect width="400" height="300" fill="none" stroke="#0A0A1A" stroke-width="20" opacity="0.3" rx="5"/>
</svg>