<svg xmlns="http://www.w3.org/2000/svg" viewBox="0 0 1200 800">
  <defs>
    <linearGradient id="skyGrad" x1="0" y1="0" x2="0" y2="1">
      <stop offset="0%" stop-color="#0D1B2A"/>
      <stop offset="40%" stop-color="#1B2838"/>
      <stop offset="70%" stop-color="#1A237E"/>
      <stop offset="100%" stop-color="#283593"/>
    </linearGradient>
    <radialGradient id="nebula1" cx="0.3" cy="0.4" r="0.4">
      <stop offset="0%" stop-color="#4A148C" stop-opacity="0.3"/>
      <stop offset="100%" stop-color="#4A148C" stop-opacity="0"/>
    </radialGradient>
    <radialGradient id="nebula2" cx="0.7" cy="0.3" r="0.35">
      <stop offset="0%" stop-color="#01579B" stop-opacity="0.25"/>
      <stop offset="100%" stop-color="#01579B" stop-opacity="0"/>
    </radialGradient>
    <radialGradient id="nebula3" cx="0.5" cy="0.7" r="0.3">
      <stop offset="0%" stop-color="#1B5E20" stop-opacity="0.15"/>
      <stop offset="100%" stop-color="#1B5E20" stop-opacity="0"/>
    </radialGradient>
    <linearGradient id="labWall" x1="0" y1="0" x2="0" y2="1">
      <stop offset="0%" stop-color="#1A237E" stop-opacity="0.3"/>
      <stop offset="100%" stop-color="#0D1B2A" stop-opacity="0.5"/>
    </linearGradient>
    <filter id="bgGlow" x="-20%" y="-20%" width="140%" height="140%">
      <feGaussianBlur in="SourceGraphic" stdDeviation="8"/>
    </filter>
    <filter id="bgSoftGlow" x="-10%" y="-10%" width="120%" height="120%">
      <feGaussianBlur in="SourceGraphic" stdDeviation="3"/>
    </filter>
  </defs>

  <!-- Sky -->
  <rect width="1200" height="800" fill="url(#skyGrad)"/>

  <!-- Nebulae -->
  <rect width="1200" height="800" fill="url(#nebula1)"/>
  <rect width="1200" height="800" fill="url(#nebula2)"/>
  <rect width="1200" height="800" fill="url(#nebula3)"/>

  <!-- Stars (80+ tiny dots) -->
  <g fill="#FFFFFF">
    <circle cx="50" cy="30" r="1" opacity="0.8"/><circle cx="120" cy="60" r="0.7" opacity="0.6"/>
    <circle cx="200" cy="20" r="1.2" opacity="0.9"/><circle cx="280" cy="80" r="0.8" opacity="0.5"/>
    <circle cx="350" cy="40" r="1" opacity="0.7"/><circle cx="420" cy="15" r="0.6" opacity="0.8"/>
    <circle cx="500" cy="55" r="1.1" opacity="0.6"/><circle cx="580" cy="25" r="0.9" opacity="0.7"/>
    <circle cx="650" cy="70" r="0.7" opacity="0.9"/><circle cx="730" cy="35" r="1" opacity="0.5"/>
    <circle cx="800" cy="50" r="0.8" opacity="0.8"/><circle cx="880" cy="20" r="1.2" opacity="0.6"/>
    <circle cx="950" cy="65" r="0.7" opacity="0.7"/><circle cx="1030" cy="30" r="1" opacity="0.9"/>
    <circle cx="1100" cy="45" r="0.9" opacity="0.5"/><circle cx="1170" cy="75" r="0.6" opacity="0.8"/>
    <circle cx="80" cy="120" r="0.8" opacity="0.7"/><circle cx="160" cy="140" r="1" opacity="0.6"/>
    <circle cx="240" cy="110" r="0.7" opacity="0.9"/><circle cx="320" cy="150" r="1.1" opacity="0.5"/>
    <circle cx="400" cy="130" r="0.9" opacity="0.8"/><circle cx="480" cy="100" r="0.6" opacity="0.7"/>
    <circle cx="560" cy="160" r="1" opacity="0.6"/><circle cx="640" cy="120" r="0.8" opacity="0.9"/>
    <circle cx="720" cy="145" r="0.7" opacity="0.5"/><circle cx="800" cy="110" r="1.2" opacity="0.7"/>
    <circle cx="880" cy="135" r="0.9" opacity="0.8"/><circle cx="960" cy="105" r="0.7" opacity="0.6"/>
    <circle cx="1040" cy="155" r="1" opacity="0.9"/><circle cx="1120" cy="125" r="0.8" opacity="0.5"/>
    <circle cx="70" cy="200" r="1" opacity="0.6"/><circle cx="150" cy="220" r="0.7" opacity="0.8"/>
    <circle cx="230" cy="190" r="1.1" opacity="0.7"/><circle cx="310" cy="230" r="0.8" opacity="0.5"/>
    <circle cx="390" cy="210" r="0.9" opacity="0.9"/><circle cx="470" cy="180" r="0.6" opacity="0.7"/>
    <circle cx="550" cy="240" r="1" opacity="0.5"/><circle cx="630" cy="200" r="0.8" opacity="0.8"/>
    <circle cx="710" cy="225" r="0.7" opacity="0.6"/><circle cx="790" cy="195" r="1.2" opacity="0.9"/>
    <circle cx="870" cy="215" r="0.9" opacity="0.7"/><circle cx="950" cy="185" r="0.7" opacity="0.5"/>
    <circle cx="1030" cy="235" r="1" opacity="0.8"/><circle cx="1110" cy="205" r="0.8" opacity="0.6"/>
    <circle cx="45" cy="280" r="0.7" opacity="0.9"/><circle cx="135" cy="300" r="1" opacity="0.5"/>
    <circle cx="225" cy="270" r="0.8" opacity="0.7"/><circle cx="315" cy="310" r="1.1" opacity="0.6"/>
    <circle cx="405" cy="290" r="0.9" opacity="0.8"/><circle cx="495" cy="260" r="0.6" opacity="0.9"/>
    <circle cx="585" cy="320" r="1" opacity="0.5"/><circle cx="675" cy="280" r="0.7" opacity="0.7"/>
    <circle cx="765" cy="305" r="0.8" opacity="0.6"/><circle cx="855" cy="275" r="1.2" opacity="0.8"/>
    <circle cx="945" cy="295" r="0.9" opacity="0.9"/><circle cx="1035" cy="265" r="0.7" opacity="0.5"/>
    <circle cx="1125" cy="315" r="1" opacity="0.7"/><circle cx="100" cy="350" r="0.8" opacity="0.6"/>
    <circle cx="250" cy="340" r="0.7" opacity="0.8"/><circle cx="400" cy="360" r="1" opacity="0.5"/>
    <circle cx="550" cy="345" r="0.9" opacity="0.7"/><circle cx="700" cy="355" r="0.6" opacity="0.9"/>
    <circle cx="850" cy="340" r="1.1" opacity="0.6"/><circle cx="1000" cy="365" r="0.8" opacity="0.8"/>
    <circle cx="1150" cy="350" r="0.7" opacity="0.5"/>
    <!-- Extra stars for density -->
    <circle cx="60" cy="420" r="0.6" opacity="0.4"/><circle cx="180" cy="400" r="0.8" opacity="0.3"/>
    <circle cx="340" cy="410" r="0.5" opacity="0.5"/><circle cx="500" cy="390" r="0.7" opacity="0.4"/>
    <circle cx="660" cy="415" r="0.6" opacity="0.3"/><circle cx="820" cy="395" r="0.8" opacity="0.5"/>
    <circle cx="980" cy="405" r="0.5" opacity="0.4"/><circle cx="1140" cy="385" r="0.7" opacity="0.3"/>
  </g>

  <!-- Distant lab structures (far background) -->
  <g opacity="0.15">
    <!-- Tower 1 -->
    <rect x="100" y="350" width="40" height="250" fill="#1A237E"/>
    <rect x="105" y="360" width="8" height="12" rx="1" fill="#4FC3F7" opacity="0.5"/>
    <rect x="120" y="380" width="8" height="12" rx="1" fill="#4FC3F7" opacity="0.3"/>
    <circle cx="120" cy="350" r="15" fill="none" stroke="#4FC3F7" stroke-width="0.8" opacity="0.4"/>
    <!-- Tower 2 -->
    <rect x="300" y="380" width="50" height="220" fill="#1A237E"/>
    <rect x="310" y="390" width="10" height="14" rx="1" fill="#69F0AE" opacity="0.4"/>
    <rect x="330" y="410" width="10" height="14" rx="1" fill="#69F0AE" opacity="0.3"/>
    <!-- Tower 3 -->
    <rect x="800" y="360" width="35" height="240" fill="#1A237E"/>
    <rect x="805" y="370" width="8" height="10" rx="1" fill="#FF5252" opacity="0.3"/>
    <!-- Tower 4 -->
    <rect x="1000" y="390" width="45" height="210" fill="#1A237E"/>
    <circle cx="1022" cy="395" r="10" fill="none" stroke="#FF5252" stroke-width="0.5" opacity="0.3"/>
  </g>

  <!-- Atmospheric fog layers -->
  <g filter="url(#bgGlow)">
    <ellipse cx="300" cy="500" rx="400" ry="60" fill="#1A237E" opacity="0.15"/>
    <ellipse cx="900" cy="520" rx="350" ry="50" fill="#283593" opacity="0.12"/>
    <ellipse cx="600" cy="480" rx="300" ry="40" fill="#4A148C" opacity="0.08"/>
  </g>

  <!-- Distant mountain/terrain line -->
  <path d="M0 550 Q100 500 200 530 Q350 480 500 520 Q600 490 700 510 Q850 470 950 500 Q1050 480 1100 510 L1200 520 L1200 800 L0 800Z" fill="#0D1B2A" opacity="0.4"/>

  <!-- Grid pattern (lab floor distant) -->
  <g opacity="0.06" stroke="#4FC3F7" stroke-width="0.5">
    <line x1="0" y1="600" x2="1200" y2="600"/>
    <line x1="0" y1="650" x2="1200" y2="650"/>
    <line x1="0" y1="700" x2="1200" y2="700"/>
    <line x1="0" y1="750" x2="1200" y2="750"/>
    <line x1="100" y1="550" x2="100" y2="800"/>
    <line x1="250" y1="550" x2="250" y2="800"/>
    <line x1="400" y1="550" x2="400" y2="800"/>
    <line x1="550" y1="550" x2="550" y2="800"/>
    <line x1="700" y1="550" x2="700" y2="800"/>
    <line x1="850" y1="550" x2="850" y2="800"/>
    <line x1="1000" y1="550" x2="1000" y2="800"/>
    <line x1="1150" y1="550" x2="1150" y2="800"/>
  </g>

  <!-- Gravity distortion waves (signature) -->
  <g opacity="0.08" filter="url(#bgSoftGlow)">
    <path d="M0 400 Q300 380 600 400 Q900 420 1200 400" fill="none" stroke="#69F0AE" stroke-width="2"/>
    <path d="M0 410 Q300 430 600 410 Q900 390 1200 410" fill="none" stroke="#4FC3F7" stroke-width="1.5"/>
    <path d="M0 420 Q300 400 600 420 Q900 440 1200 420" fill="none" stroke="#69F0AE" stroke-width="1"/>
  </g>

  <!-- Distant floating debris (gravity anomaly) -->
  <g opacity="0.12">
    <rect x="180" y="300" width="8" height="8" rx="1" fill="#455A64" transform="rotate(20 184 304)"/>
    <rect x="520" y="250" width="6" height="10" rx="1" fill="#37474F" transform="rotate(-15 523 255)"/>
    <rect x="750" y="280" width="10" height="6" rx="1" fill="#455A64" transform="rotate(35 755 283)"/>
    <rect x="1050" y="260" width="7" height="7" rx="1" fill="#37474F" transform="rotate(-25 1053 263)"/>
    <rect x="380" y="320" width="5" height="8" rx="1" fill="#455A64" transform="rotate(40 382 324)"/>
    <rect x="920" y="310" width="8" height="5" rx="1" fill="#37474F" transform="rotate(-30 924 312)"/>
  </g>

  <!-- Meteors -->
  <g opacity="0.25">
    <line x1="200" y1="80" x2="240" y2="120" stroke="#FFFFFF" stroke-width="1.5" stroke-linecap="round"/>
    <line x1="202" y1="80" x2="210" y2="88" stroke="#FFFFFF" stroke-width="0.5" opacity="0.5"/>
    <line x1="900" y1="150" x2="930" y2="180" stroke="#FFFFFF" stroke-width="1" stroke-linecap="round"/>
  </g>

  <!-- Warning lights on distant structures -->
  <g filter="url(#bgSoftGlow)">
    <circle cx="120" cy="350" r="2" fill="#FF5252" opacity="0.6"/>
    <circle cx="325" cy="380" r="2" fill="#69F0AE" opacity="0.5"/>
    <circle cx="817" cy="360" r="2" fill="#FF5252" opacity="0.6"/>
    <circle cx="1022" cy="390" r="2" fill="#FFEB3B" opacity="0.5"/>
  </g>

  <!-- Additional star clusters for density -->
  <g fill="#FFFFFF">
    <circle cx="30" cy="380" r="0.6" opacity="0.5"/><circle cx="90" cy="440" r="0.7" opacity="0.4"/>
    <circle cx="170" cy="460" r="0.5" opacity="0.6"/><circle cx="260" cy="430" r="0.8" opacity="0.3"/>
    <circle cx="350" cy="450" r="0.6" opacity="0.5"/><circle cx="440" cy="420" r="0.7" opacity="0.4"/>
    <circle cx="530" cy="440" r="0.5" opacity="0.6"/><circle cx="620" cy="410" r="0.8" opacity="0.3"/>
    <circle cx="710" cy="450" r="0.6" opacity="0.5"/><circle cx="800" cy="430" r="0.7" opacity="0.4"/>
    <circle cx="890" cy="460" r="0.5" opacity="0.6"/><circle cx="980" cy="420" r="0.8" opacity="0.3"/>
    <circle cx="1070" cy="440" r="0.6" opacity="0.5"/><circle cx="1160" cy="430" r="0.7" opacity="0.4"/>
  </g>

  <!-- Additional nebula wisps -->
  <g opacity="0.08" filter="url(#bgGlow)">
    <ellipse cx="200" cy="300" rx="150" ry="40" fill="#E040FB"/>
    <ellipse cx="700" cy="350" rx="180" ry="35" fill="#00BCD4"/>
    <ellipse cx="1050" cy="280" rx="120" ry="30" fill="#7C4DFF"/>
  </g>

  <!-- Distant antenna arrays -->
  <g opacity="0.1">
    <line x1="550" y1="400" x2="550" y2="350" stroke="#546E7A" stroke-width="1"/>
    <circle cx="550" cy="348" r="3" fill="none" stroke="#4FC3F7" stroke-width="0.5"/>
    <line x1="700" y1="420" x2="700" y2="370" stroke="#546E7A" stroke-width="1"/>
    <circle cx="700" cy="368" r="3" fill="none" stroke="#FF5252" stroke-width="0.5"/>
    <line x1="850" y1="410" x2="850" y2="360" stroke="#546E7A" stroke-width="1"/>
    <line x1="840" y1="365" x2="860" y2="365" stroke="#546E7A" stroke-width="0.5"/>
  </g>

  <!-- Constellation lines -->
  <g opacity="0.06" stroke="#B3E5FC" stroke-width="0.5">
    <line x1="200" y1="20" x2="280" y2="80"/>
    <line x1="280" y1="80" x2="350" y2="40"/>
    <line x1="350" y1="40" x2="420" y2="15"/>
    <line x1="650" y1="70" x2="730" y2="35"/>
    <line x1="730" y1="35" x2="800" y2="50"/>
    <line x1="950" y1="65" x2="1030" y2="30"/>
    <line x1="1030" y1="30" x2="1100" y2="45"/>
  </g>

  <!-- Gravity wave pulse rings -->
  <g opacity="0.05">
    <circle cx="400" cy="500" r="80" fill="none" stroke="#69F0AE" stroke-width="1.5"/>
    <circle cx="400" cy="500" r="100" fill="none" stroke="#69F0AE" stroke-width="1"/>
    <circle cx="400" cy="500" r="120" fill="none" stroke="#69F0AE" stroke-width="0.5"/>
    <circle cx="800" cy="480" r="70" fill="none" stroke="#4FC3F7" stroke-width="1.5"/>
    <circle cx="800" cy="480" r="90" fill="none" stroke="#4FC3F7" stroke-width="1"/>
    <circle cx="800" cy="480" r="110" fill="none" stroke="#4FC3F7" stroke-width="0.5"/>
  </g>
</svg>