<svg xmlns="http://www.w3.org/2000/svg" width="400" height="300" viewBox="0 0 400 300">
  <defs>
    <linearGradient id="tBg" x1="0" y1="0" x2="0" y2="1">
      <stop offset="0%" stop-color="#0D1B2A"/>
      <stop offset="50%" stop-color="#1A237E"/>
      <stop offset="100%" stop-color="#283593"/>
    </linearGradient>
    <linearGradient id="tBody" x1="0" y1="0" x2="0" y2="1">
      <stop offset="0%" stop-color="#4FC3F7"/>
      <stop offset="100%" stop-color="#01579B"/>
    </linearGradient>
    <linearGradient id="tEnemy" x1="0" y1="0" x2="0" y2="1">
      <stop offset="0%" stop-color="#EF5350"/>
      <stop offset="100%" stop-color="#7F0000"/>
    </linearGradient>
    <radialGradient id="tVisor" cx="0.5" cy="0.4" r="0.5">
      <stop offset="0%" stop-color="#B3E5FC"/>
      <stop offset="100%" stop-color="#0277BD"/>
    </radialGradient>
    <radialGradient id="tEyeGlow" cx="0.5" cy="0.5" r="0.5">
      <stop offset="0%" stop-color="#FFEB3B"/>
      <stop offset="100%" stop-color="#FF6F00"/>
    </radialGradient>
    <linearGradient id="tFlame" x1="0" y1="0" x2="0" y2="1">
      <stop offset="0%" stop-color="#FFF176"/>
      <stop offset="50%" stop-color="#FF9800"/>
      <stop offset="100%" stop-color="#F44336" stop-opacity="0"/>
    </linearGradient>
    <radialGradient id="tCore" cx="0.5" cy="0.5" r="0.5">
      <stop offset="0%" stop-color="#FFFFFF"/>
      <stop offset="40%" stop-color="#69F0AE"/>
      <stop offset="100%" stop-color="#00C853" stop-opacity="0"/>
    </radialGradient>
    <linearGradient id="tTitle" x1="0" y1="0" x2="0" y2="1">
      <stop offset="0%" stop-color="#FFFFFF"/>
      <stop offset="50%" stop-color="#4FC3F7"/>
      <stop offset="100%" stop-color="#0288D1"/>
    </linearGradient>
    <radialGradient id="tNebula" cx="0.4" cy="0.5" r="0.5">
      <stop offset="0%" stop-color="#4A148C" stop-opacity="0.3"/>
      <stop offset="100%" stop-color="#4A148C" stop-opacity="0"/>
    </radialGradient>
    <linearGradient id="tPipe" x1="0" y1="0" x2="1" y2="0">
      <stop offset="0%" stop-color="#37474F"/>
      <stop offset="50%" stop-color="#546E7A"/>
      <stop offset="100%" stop-color="#263238"/>
    </linearGradient>
    <linearGradient id="tSpike" x1="0" y1="1" x2="0" y2="0">
      <stop offset="0%" stop-color="#C62828"/>
      <stop offset="100%" stop-color="#FF8A80"/>
    </linearGradient>
    <filter id="tGlow" x="-30%" y="-30%" width="160%" height="160%">
      <feGaussianBlur in="SourceGraphic" stdDeviation="2" result="blur"/>
      <feMerge><feMergeNode in="blur"/><feMergeNode in="SourceGraphic"/></feMerge>
    </filter>
    <filter id="tSoftGlow" x="-50%" y="-50%" width="200%" height="200%">
      <feGaussianBlur in="SourceGraphic" stdDeviation="6"/>
    </filter>
    <filter id="tShadow">
      <feDropShadow dx="1" dy="2" stdDeviation="2" flood-color="#000000" flood-opacity="0.6"/>
    </filter>
    <filter id="tTextShadow">
      <feDropShadow dx="1" dy="1" stdDeviation="1.5" flood-color="#000000" flood-opacity="0.8"/>
    </filter>
    <filter id="tTextGlow" x="-20%" y="-20%" width="140%" height="140%">
      <feGaussianBlur in="SourceGraphic" stdDeviation="3" result="blur"/>
      <feMerge><feMergeNode in="blur"/><feMergeNode in="SourceGraphic"/></feMerge>
    </filter>
  </defs>

  <!-- Background -->
  <rect width="400" height="300" fill="url(#tBg)"/>
  <rect width="400" height="300" fill="url(#tNebula)"/>

  <!-- Stars -->
  <g fill="#FFFFFF">
    <circle cx="20" cy="15" r="0.8" opacity="0.8"/><circle cx="55" cy="30" r="0.6" opacity="0.6"/>
    <circle cx="90" cy="12" r="1" opacity="0.9"/><circle cx="130" cy="40" r="0.5" opacity="0.7"/>
    <circle cx="170" cy="18" r="0.7" opacity="0.5"/><circle cx="210" cy="35" r="0.9" opacity="0.8"/>
    <circle cx="250" cy="10" r="0.6" opacity="0.6"/><circle cx="290" cy="28" r="0.8" opacity="0.9"/>
    <circle cx="330" cy="15" r="0.5" opacity="0.7"/><circle cx="370" cy="38" r="0.7" opacity="0.5"/>
    <circle cx="40" cy="55" r="0.7" opacity="0.6"/><circle cx="80" cy="70" r="0.5" opacity="0.8"/>
    <circle cx="140" cy="58" r="0.8" opacity="0.5"/><circle cx="200" cy="65" r="0.6" opacity="0.7"/>
    <circle cx="260" cy="50" r="0.9" opacity="0.9"/><circle cx="320" cy="62" r="0.5" opacity="0.6"/>
    <circle cx="380" cy="55" r="0.7" opacity="0.8"/><circle cx="15" cy="85" r="0.6" opacity="0.7"/>
    <circle cx="110" cy="90" r="0.8" opacity="0.5"/><circle cx="190" cy="82" r="0.5" opacity="0.9"/>
    <circle cx="280" cy="88" r="0.7" opacity="0.6"/><circle cx="355" cy="80" r="0.6" opacity="0.8"/>
    <circle cx="60" cy="250" r="0.5" opacity="0.4"/><circle cx="150" cy="265" r="0.6" opacity="0.3"/>
    <circle cx="340" cy="255" r="0.7" opacity="0.4"/><circle cx="390" cy="270" r="0.5" opacity="0.3"/>
  </g>

  <!-- Lab walls (left & right) -->
  <g opacity="0.5">
    <rect x="0" y="0" width="60" height="300" fill="#0D1B2A"/>
    <rect x="340" y="0" width="60" height="300" fill="#0D1B2A"/>
    <rect x="60" y="0" width="3" height="300" fill="#263238"/>
    <rect x="337" y="0" width="3" height="300" fill="#263238"/>
  </g>

  <!-- Pipes -->
  <g opacity="0.6">
    <rect x="0" y="30" width="400" height="5" rx="2.5" fill="url(#tPipe)"/>
    <rect x="0" y="270" width="400" height="5" rx="2.5" fill="url(#tPipe)"/>
    <rect x="62" y="0" width="4" height="300" rx="2" fill="url(#tPipe)" opacity="0.5"/>
    <rect x="334" y="0" width="4" height="300" rx="2" fill="url(#tPipe)" opacity="0.5"/>
  </g>

  <!-- Windows on walls -->
  <g>
    <rect x="10" y="60" width="35" height="45" rx="2" fill="#01579B" opacity="0.3" stroke="#4FC3F7" stroke-width="0.5"/>
    <rect x="10" y="130" width="35" height="45" rx="2" fill="#7F0000" opacity="0.2" stroke="#FF5252" stroke-width="0.5"/>
    <rect x="355" y="60" width="35" height="45" rx="2" fill="#01579B" opacity="0.3" stroke="#4FC3F7" stroke-width="0.5"/>
    <rect x="355" y="200" width="35" height="45" rx="2" fill="#7F0000" opacity="0.2" stroke="#FF5252" stroke-width="0.5"/>
  </g>

  <!-- Spikes (floor danger) -->
  <g id="tSpikesFloor">
    <path d="M80 280 L88 260 L96 280Z" fill="url(#tSpike)" opacity="0.7"/>
    <path d="M100 280 L108 262 L116 280Z" fill="url(#tSpike)" opacity="0.7"/>
    <path d="M120 280 L128 258 L136 280Z" fill="url(#tSpike)" opacity="0.7"/>
    <path d="M200 280 L208 262 L216 280Z" fill="url(#tSpike)" opacity="0.6"/>
    <path d="M220 280 L228 260 L236 280Z" fill="url(#tSpike)" opacity="0.6"/>
    <path d="M290 280 L298 258 L306 280Z" fill="url(#tSpike)" opacity="0.7"/>
    <path d="M310 280 L318 262 L326 280Z" fill="url(#tSpike)" opacity="0.7"/>
  </g>

  <!-- Spikes (ceiling danger) -->
  <g id="tSpikesCeiling">
    <path d="M140 40 L148 58 L156 40Z" fill="url(#tSpike)" opacity="0.5"/>
    <path d="M160 40 L168 56 L176 40Z" fill="url(#tSpike)" opacity="0.5"/>
    <path d="M240 40 L248 60 L256 40Z" fill="url(#tSpike)" opacity="0.5"/>
    <path d="M260 40 L268 56 L276 40Z" fill="url(#tSpike)" opacity="0.5"/>
  </g>

  <!-- Gravity field lines -->
  <g opacity="0.12">
    <path d="M70 150 Q200 130 330 150" fill="none" stroke="#69F0AE" stroke-width="1.5" stroke-dasharray="6 4"/>
    <path d="M70 160 Q200 180 330 160" fill="none" stroke="#4FC3F7" stroke-width="1" stroke-dasharray="6 4"/>
  </g>

  <!-- Floating debris -->
  <g opacity="0.25">
    <rect x="100" y="110" width="8" height="6" rx="1" fill="#455A64" transform="rotate(20 104 113)"/>
    <rect x="250" y="95" width="6" height="10" rx="1" fill="#37474F" transform="rotate(-15 253 100)"/>
    <rect x="300" y="200" width="10" height="5" rx="1" fill="#455A64" transform="rotate(35 305 202)"/>
    <rect x="160" y="230" width="7" height="7" rx="1" fill="#37474F" transform="rotate(-25 163 233)"/>
  </g>

  <!-- Player character (center-left, dramatic pose) -->
  <g id="tPlayer" transform="translate(130, 120)" filter="url(#tShadow)">
    <!-- Jetpack flames -->
    <path d="M12 38 Q10 50 8 60 Q12 55 14 38Z" fill="url(#tFlame)" opacity="0.8"/>
    <path d="M30 38 Q32 50 34 60 Q30 55 28 38Z" fill="url(#tFlame)" opacity="0.8"/>
    <!-- Body -->
    <path d="M10 8 Q8 10 8 16 L8 35 Q8 38 12 38 L30 38 Q34 38 34 35 L34 16 Q34 10 32 8Z" fill="url(#tBody)" stroke="#0277BD" stroke-width="0.5"/>
    <!-- Helmet -->
    <path d="M11 0 Q10 -1 10 2 L10 12 Q10 14 14 14 L28 14 Q32 14 32 12 L32 2 Q32 -1 30 -1 L12 -1Z" fill="#263238" stroke="#37474F" stroke-width="0.5"/>
    <!-- Visor -->
    <rect x="12" y="2" width="18" height="10" rx="2" fill="url(#tVisor)" stroke="#4FC3F7" stroke-width="0.5"/>
    <!-- Eyes -->
    <ellipse cx="17" cy="7" rx="2" ry="2.5" fill="#FFFFFF" opacity="0.95"/>
    <ellipse cx="25" cy="7" rx="2" ry="2.5" fill="#FFFFFF" opacity="0.95"/>
    <ellipse cx="17.5" cy="7.5" rx="1" ry="1.2" fill="#0D47A1"/>
    <ellipse cx="25.5" cy="7.5" rx="1" ry="1.2" fill="#0D47A1"/>
    <circle cx="18" cy="6.5" r="0.5" fill="#FFFFFF"/>
    <circle cx="26" cy="6.5" r="0.5" fill="#FFFFFF"/>
    <!-- Antenna -->
    <line x1="21" y1="-1" x2="21" y2="-6" stroke="#78909C" stroke-width="1"/>
    <circle cx="21" cy="-7" r="1.5" fill="#69F0AE" filter="url(#tGlow)"/>
    <!-- Core -->
    <circle cx="21" cy="22" r="4" fill="url(#tCore)" filter="url(#tGlow)"/>
    <!-- Gravity arrows -->
    <path d="M21 18 L19 20 L23 20Z" fill="#FFFFFF" opacity="0.8"/>
    <path d="M21 26 L19 24 L23 24Z" fill="#FFFFFF" opacity="0.8"/>
    <!-- Boots -->
    <rect x="10" y="38" width="8" height="6" rx="2" fill="#0277BD"/>
    <rect x="24" y="38" width="8" height="6" rx="2" fill="#0277BD"/>
  </g>

  <!-- Gravity flip arc (showing the flip action) -->
  <g opacity="0.4" filter="url(#tSoftGlow)">
    <path d="M150 155 Q170 100 180 80 Q190 60 200 80" fill="none" stroke="#69F0AE" stroke-width="2" stroke-dasharray="4 3"/>
    <path d="M155 155 L150 148 L160 150Z" fill="#69F0AE" opacity="0.6"/>
  </g>

  <!-- Enemy (right side, menacing) -->
  <g id="tEnemy" transform="translate(250, 100)" filter="url(#tShadow)">
    <!-- Top spikes -->
    <path d="M4 6 L8 -6 L12 6Z" fill="url(#tSpike)"/>
    <path d="M14 4 L18 -10 L22 4Z" fill="url(#tSpike)"/>
    <path d="M24 6 L28 -6 L32 6Z" fill="url(#tSpike)"/>
    <!-- Body -->
    <rect x="2" y="6" width="32" height="32" rx="3" fill="#212121" stroke="#424242" stroke-width="0.5"/>
    <rect x="4" y="8" width="28" height="28" rx="2" fill="url(#tEnemy)"/>
    <!-- Eye -->
    <ellipse cx="18" cy="18" rx="8" ry="6" fill="#1A1A1A" stroke="#FF5252" stroke-width="0.8"/>
    <ellipse cx="18" cy="18" rx="6" ry="4.5" fill="url(#tEyeGlow)" filter="url(#tGlow)"/>
    <ellipse cx="18" cy="18" rx="2.5" ry="3.5" fill="#D50000"/>
    <ellipse cx="18" cy="18" rx="1" ry="2" fill="#000000"/>
    <circle cx="15" cy="16" r="1.5" fill="#FFFFFF" opacity="0.6"/>
    <!-- Danger core -->
    <circle cx="18" cy="30" r="3" fill="#FF5252" filter="url(#tGlow)" opacity="0.7"/>
    <!-- Side spikes -->
    <path d="M2 14 L-6 18 L2 22Z" fill="url(#tSpike)" opacity="0.8"/>
    <path d="M34 14 L42 18 L34 22Z" fill="url(#tSpike)" opacity="0.8"/>
    <!-- Bottom spikes -->
    <path d="M8 38 L12 48 L16 38Z" fill="url(#tSpike)" opacity="0.7"/>
    <path d="M20 38 L24 50 L28 38Z" fill="url(#tSpike)" opacity="0.7"/>
  </g>

  <!-- Portal (exit - right side) -->
  <g transform="translate(320, 130)" opacity="0.7">
    <ellipse cx="0" cy="0" rx="15" ry="25" fill="none" stroke="#69F0AE" stroke-width="2" filter="url(#tGlow)"/>
    <ellipse cx="0" cy="0" rx="10" ry="18" fill="none" stroke="#B9F6CA" stroke-width="1.5" opacity="0.6"/>
    <ellipse cx="0" cy="0" rx="5" ry="10" fill="#69F0AE" opacity="0.2"/>
  </g>

  <!-- Caution stripes on walls -->
  <g opacity="0.3">
    <rect x="0" y="195" width="60" height="5" fill="#FFD600"/>
    <rect x="340" y="130" width="60" height="5" fill="#FFD600"/>
  </g>

  <!-- Emergency lights -->
  <g filter="url(#tSoftGlow)">
    <circle cx="100" cy="33" r="3" fill="#FF5252" opacity="0.4"/>
    <circle cx="200" cy="33" r="3" fill="#FF5252" opacity="0.3"/>
    <circle cx="300" cy="33" r="3" fill="#FF5252" opacity="0.4"/>
  </g>

  <!-- Sparking wires -->
  <g opacity="0.4">
    <path d="M80 35 Q83 45 86 38 Q89 50 92 42" fill="none" stroke="#FFD600" stroke-width="0.8" stroke-linecap="round"/>
    <circle cx="92" cy="42" r="2" fill="#FFEB3B" filter="url(#tGlow)" opacity="0.6"/>
  </g>

  <!-- Coins scattered -->
  <g opacity="0.6">
    <circle cx="175" cy="180" r="4" fill="#FFD600" stroke="#FF8F00" stroke-width="0.5"/>
    <circle cx="190" cy="170" r="4" fill="#FFD600" stroke="#FF8F00" stroke-width="0.5"/>
    <circle cx="205" cy="175" r="4" fill="#FFD600" stroke="#FF8F00" stroke-width="0.5"/>
    <circle cx="175" cy="179" r="1.5" fill="#FFFFFF" opacity="0.4"/>
    <circle cx="190" cy="169" r="1.5" fill="#FFFFFF" opacity="0.4"/>
    <circle cx="205" cy="174" r="1.5" fill="#FFFFFF" opacity="0.4"/>
  </g>

  <!-- Gravity distortion effect (central) -->
  <g opacity="0.08" filter="url(#tSoftGlow)">
    <ellipse cx="200" cy="150" rx="120" ry="40" fill="none" stroke="#69F0AE" stroke-width="3"/>
    <ellipse cx="200" cy="150" rx="100" ry="30" fill="none" stroke="#4FC3F7" stroke-width="2"/>
  </g>

  <!-- Floor grid lines -->
  <g opacity="0.08" stroke="#4FC3F7" stroke-width="0.5">
    <line x1="70" y1="275" x2="330" y2="275"/>
    <line x1="70" y1="285" x2="330" y2="285"/>
    <line x1="70" y1="295" x2="330" y2="295"/>
  </g>

  <!-- HUD overlay (game feel) -->
  <g opacity="0.5">
    <!-- HP hearts -->
    <path d="M20 285 Q16 278 20 275 Q24 278 20 285Z" fill="#F44336" stroke="#D32F2F" stroke-width="0.3"/>
    <path d="M30 285 Q26 278 30 275 Q34 278 30 285Z" fill="#F44336" stroke="#D32F2F" stroke-width="0.3"/>
    <path d="M40 285 Q36 278 40 275 Q44 278 40 285Z" fill="#F44336" stroke="#D32F2F" stroke-width="0.3" opacity="0.3"/>
    <!-- Score -->
    <text x="380" y="284" text-anchor="end" font-size="8" fill="#FFD600" font-family="Arial" opacity="0.6">★ 1,250</text>
  </g>

  <!-- Title text -->
  <g filter="url(#tTextGlow)">
    <text x="200" y="38" text-anchor="middle" font-size="10" font-weight="bold" fill="#4FC3F7" font-family="Arial" opacity="0.5" letter-spacing="4">GRAVITY</text>
  </g>
  <g filter="url(#tTextShadow)">
    <text x="200" y="28" text-anchor="middle" font-size="30" font-weight="bold" fill="url(#tTitle)" font-family="Arial, sans-serif" letter-spacing="2">GRAVITY FLIP</text>
  </g>

  <!-- Subtitle -->
  <text x="200" y="290" text-anchor="middle" font-size="9" fill="#B3E5FC" font-family="Arial" opacity="0.6" letter-spacing="3">ESCAPE THE LAB</text>

  <!-- Gravity arrows (signature motif) -->
  <g opacity="0.3">
    <path d="M185 42 L182 48 L188 48Z" fill="#69F0AE"/>
    <path d="M215 42 L212 48 L218 48Z" fill="#69F0AE" transform="rotate(180 215 45)"/>
  </g>

  <!-- Vignette edges -->
  <rect width="400" height="300" fill="none" stroke="#000000" stroke-width="20" opacity="0.3" rx="0"/>

  <!-- Additional detail: floor reflection -->
  <rect x="70" y="275" width="260" height="25" fill="#4FC3F7" opacity="0.02"/>

  <!-- Dust particles -->
  <g opacity="0.2">
    <circle cx="95" cy="140" r="0.8" fill="#B3E5FC"/>
    <circle cx="180" cy="110" r="0.6" fill="#B3E5FC"/>
    <circle cx="270" cy="160" r="0.7" fill="#B3E5FC"/>
    <circle cx="120" cy="200" r="0.5" fill="#B3E5FC"/>
    <circle cx="310" cy="180" r="0.8" fill="#B3E5FC"/>
    <circle cx="230" cy="220" r="0.6" fill="#B3E5FC"/>
  </g>

  <!-- Crack effects on borders -->
  <g opacity="0.2" stroke="#4FC3F7" stroke-width="0.5" fill="none">
    <path d="M0 100 L8 105 L3 115 L10 120"/>
    <path d="M400 180 L392 185 L397 195 L390 200"/>
  </g>

  <!-- Rain/particle effects (lab leaking) -->
  <g opacity="0.15" stroke="#4FC3F7" stroke-width="0.5" stroke-linecap="round">
    <line x1="85" y1="40" x2="83" y2="60"/><line x1="115" y1="38" x2="113" y2="55"/>
    <line x1="165" y1="42" x2="163" y2="65"/><line x1="195" y1="36" x2="193" y2="58"/>
    <line x1="225" y1="40" x2="223" y2="62"/><line x1="255" y1="38" x2="253" y2="56"/>
    <line x1="285" y1="42" x2="283" y2="64"/><line x1="315" y1="36" x2="313" y2="55"/>
    <line x1="100" y1="55" x2="98" y2="78"/><line x1="145" y1="50" x2="143" y2="72"/>
    <line x1="210" y1="48" x2="208" y2="70"/><line x1="275" y1="52" x2="273" y2="75"/>
    <line x1="330" y1="46" x2="328" y2="68"/>
  </g>

  <!-- Lab equipment on walls -->
  <g opacity="0.3">
    <!-- Left wall console -->
    <rect x="15" y="200" width="30" height="20" rx="2" fill="#1A1A1A" stroke="#263238" stroke-width="0.5"/>
    <rect x="18" y="203" width="10" height="8" rx="1" fill="#0D1B2A"/>
    <circle cx="35" cy="208" r="1.5" fill="#69F0AE" opacity="0.7"/>
    <circle cx="35" cy="213" r="1.5" fill="#FF5252" opacity="0.7"/>
    <!-- Right wall console -->
    <rect x="355" y="140" width="30" height="20" rx="2" fill="#1A1A1A" stroke="#263238" stroke-width="0.5"/>
    <rect x="358" y="143" width="10" height="8" rx="1" fill="#0D1B2A"/>
    <circle cx="375" cy="148" r="1.5" fill="#FFEB3B" opacity="0.7"/>
    <circle cx="375" cy="153" r="1.5" fill="#69F0AE" opacity="0.7"/>
  </g>

  <!-- Broken glass shards -->
  <g opacity="0.2" fill="#B3E5FC">
    <path d="M70 70 L75 65 L78 72 L73 75Z"/>
    <path d="M330 95 L335 90 L338 97 L333 100Z"/>
    <path d="M95 240 L100 235 L103 242 L98 245Z"/>
    <path d="M290 240 L295 235 L298 242 L293 245Z"/>
  </g>

  <!-- Additional floating platforms (game elements) -->
  <g opacity="0.4">
    <rect x="90" y="190" width="40" height="6" rx="2" fill="#263238" stroke="#4FC3F7" stroke-width="0.5"/>
    <rect x="250" y="210" width="35" height="6" rx="2" fill="#263238" stroke="#4FC3F7" stroke-width="0.5"/>
    <rect x="180" y="240" width="45" height="6" rx="2" fill="#263238" stroke="#4FC3F7" stroke-width="0.5"/>
  </g>

  <!-- Gravity reversal arrows (large, dramatic) -->
  <g opacity="0.12" filter="url(#tSoftGlow)">
    <path d="M50 150 L45 165 L55 165Z" fill="#69F0AE"/>
    <path d="M50 150 L45 135 L55 135Z" fill="#69F0AE"/>
    <path d="M350 150 L345 165 L355 165Z" fill="#69F0AE"/>
    <path d="M350 150 L345 135 L355 135Z" fill="#69F0AE"/>
  </g>

  <!-- Broken pipe dripping -->
  <g opacity="0.25">
    <path d="M60 35 Q63 50 62 70" fill="none" stroke="#4FC3F7" stroke-width="1.5" stroke-linecap="round"/>
    <ellipse cx="62" cy="72" rx="2" ry="3" fill="#4FC3F7" opacity="0.4"/>
    <path d="M337 35 Q334 50 335 65" fill="none" stroke="#4FC3F7" stroke-width="1.5" stroke-linecap="round"/>
    <ellipse cx="335" cy="67" rx="2" ry="3" fill="#4FC3F7" opacity="0.4"/>
  </g>

  <!-- Warning text -->
  <g opacity="0.2">
    <text x="27" y="250" font-size="5" fill="#FFD600" font-family="monospace">WARNING</text>
    <text x="355" y="265" font-size="5" fill="#FF5252" font-family="monospace">DANGER</text>
  </g>

  <!-- Scan lines overlay -->
  <g opacity="0.03">
    <line x1="0" y1="50" x2="400" y2="50" stroke="#FFFFFF" stroke-width="1"/>
    <line x1="0" y1="100" x2="400" y2="100" stroke="#FFFFFF" stroke-width="1"/>
    <line x1="0" y1="150" x2="400" y2="150" stroke="#FFFFFF" stroke-width="1"/>
    <line x1="0" y1="200" x2="400" y2="200" stroke="#FFFFFF" stroke-width="1"/>
    <line x1="0" y1="250" x2="400" y2="250" stroke="#FFFFFF" stroke-width="1"/>
  </g>

  <!-- Additional light cones -->
  <g filter="url(#tSoftGlow)" opacity="0.08">
    <path d="M150 0 L140 80 L160 80Z" fill="#4FC3F7"/>
    <path d="M250 0 L240 80 L260 80Z" fill="#FF5252"/>
  </g>

  <!-- Rubble on floor -->
  <g opacity="0.3">
    <ellipse cx="110" cy="275" rx="5" ry="2" fill="#37474F"/>
    <ellipse cx="160" cy="278" rx="4" ry="1.5" fill="#455A64"/>
    <ellipse cx="240" cy="276" rx="6" ry="2" fill="#37474F"/>
    <ellipse cx="310" cy="277" rx="4" ry="1.5" fill="#455A64"/>
  </g>

  <!-- Gravity FLIP text effect (mirrored) -->
  <g opacity="0.06">
    <text x="200" y="270" text-anchor="middle" font-size="30" font-weight="bold" fill="#4FC3F7" font-family="Arial" transform="scale(1,-1) translate(0,-540)">GRAVITY FLIP</text>
  </g>

  <!-- Energy bolts -->
  <g opacity="0.3" stroke="#69F0AE" stroke-width="1" fill="none" stroke-linecap="round">
    <path d="M165 130 L170 125 L168 135 L175 128"/>
    <path d="M235 115 L240 110 L238 120 L245 113"/>
  </g>

  <!-- Corner decoration frames -->
  <g opacity="0.15" stroke="#4FC3F7" stroke-width="1" fill="none">
    <path d="M5 5 L25 5 L25 15"/><path d="M375 5 L395 5 M395 5 L395 15"/>
    <path d="M5 295 L5 285 L25 285"/><path d="M395 295 L395 285 L375 285"/>
  </g>
</svg>