<svg xmlns="http://www.w3.org/2000/svg" width="400" height="300" viewBox="0 0 400 300">
  <defs>
    <radialGradient id="thumbBg" cx="50%" cy="40%" r="70%">
      <stop offset="0%" stop-color="#0F0F2E"/>
      <stop offset="100%" stop-color="#050510"/>
    </radialGradient>
    <linearGradient id="thumbPaddleGrad" x1="0" y1="0" x2="0" y2="1">
      <stop offset="0%" stop-color="#66FFFF"/>
      <stop offset="100%" stop-color="#009999"/>
    </linearGradient>
    <linearGradient id="thumbBrick1" x1="0" y1="0" x2="0" y2="1">
      <stop offset="0%" stop-color="#33FF88"/>
      <stop offset="100%" stop-color="#00AA44"/>
    </linearGradient>
    <linearGradient id="thumbBrick2" x1="0" y1="0" x2="0" y2="1">
      <stop offset="0%" stop-color="#FFAA33"/>
      <stop offset="100%" stop-color="#CC6600"/>
    </linearGradient>
    <linearGradient id="thumbBrick3" x1="0" y1="0" x2="0" y2="1">
      <stop offset="0%" stop-color="#FF4466"/>
      <stop offset="100%" stop-color="#CC0033"/>
    </linearGradient>
    <linearGradient id="titleGrad" x1="0" y1="0" x2="0" y2="1">
      <stop offset="0%" stop-color="#FFFFFF"/>
      <stop offset="100%" stop-color="#00DDFF"/>
    </linearGradient>
    <radialGradient id="thumbBallGlow" cx="50%" cy="50%" r="50%">
      <stop offset="0%" stop-color="#FFFFFF" stop-opacity="1"/>
      <stop offset="40%" stop-color="#00FFFF" stop-opacity="0.5"/>
      <stop offset="100%" stop-color="#00FFFF" stop-opacity="0"/>
    </radialGradient>
    <radialGradient id="thumbExplosion" cx="50%" cy="50%" r="50%">
      <stop offset="0%" stop-color="#FFFFFF" stop-opacity="0.8"/>
      <stop offset="30%" stop-color="#FFDD00" stop-opacity="0.5"/>
      <stop offset="70%" stop-color="#FF4400" stop-opacity="0.2"/>
      <stop offset="100%" stop-color="#FF0044" stop-opacity="0"/>
    </radialGradient>
    <filter id="thumbNeon">
      <feGaussianBlur stdDeviation="2" result="blur"/>
      <feMerge><feMergeNode in="blur"/><feMergeNode in="blur"/><feMergeNode in="SourceGraphic"/></feMerge>
    </filter>
    <filter id="thumbTitleGlow">
      <feGaussianBlur stdDeviation="3" result="blur"/>
      <feMerge><feMergeNode in="blur"/><feMergeNode in="SourceGraphic"/></feMerge>
    </filter>
    <filter id="thumbSoftGlow">
      <feGaussianBlur stdDeviation="4"/>
    </filter>
  </defs>
  <rect width="400" height="300" fill="url(#thumbBg)"/>
  <g stroke="#111133" stroke-width="0.5" opacity="0.3">
    <line x1="0" y1="30" x2="400" y2="30"/><line x1="0" y1="60" x2="400" y2="60"/>
    <line x1="0" y1="90" x2="400" y2="90"/><line x1="0" y1="120" x2="400" y2="120"/>
    <line x1="0" y1="150" x2="400" y2="150"/><line x1="0" y1="180" x2="400" y2="180"/>
    <line x1="0" y1="210" x2="400" y2="210"/><line x1="0" y1="240" x2="400" y2="240"/>
    <line x1="0" y1="270" x2="400" y2="270"/>
    <line x1="40" y1="0" x2="40" y2="300"/><line x1="80" y1="0" x2="80" y2="300"/>
    <line x1="120" y1="0" x2="120" y2="300"/><line x1="160" y1="0" x2="160" y2="300"/>
    <line x1="200" y1="0" x2="200" y2="300"/><line x1="240" y1="0" x2="240" y2="300"/>
    <line x1="280" y1="0" x2="280" y2="300"/><line x1="320" y1="0" x2="320" y2="300"/>
    <line x1="360" y1="0" x2="360" y2="300"/>
  </g>
  <g opacity="0.5">
    <circle cx="30" cy="25" r="1" fill="#FFFFFF"/>
    <circle cx="370" cy="40" r="1.2" fill="#AADDFF"/>
    <circle cx="150" cy="15" r="0.8" fill="#FFFFFF"/>
    <circle cx="290" cy="55" r="0.7" fill="#CCDDFF"/>
    <circle cx="60" cy="280" r="0.8" fill="#FFFFFF"/>
    <circle cx="350" cy="260" r="1" fill="#AACCFF"/>
  </g>
  <g filter="url(#thumbNeon)">
    <rect x="45" y="70" width="38" height="14" rx="2" fill="url(#thumbBrick3)"/>
    <rect x="87" y="70" width="38" height="14" rx="2" fill="url(#thumbBrick3)"/>
    <rect x="129" y="70" width="38" height="14" rx="2" fill="url(#thumbBrick3)"/>
    <rect x="171" y="70" width="38" height="14" rx="2" fill="url(#thumbBrick3)"/>
    <rect x="213" y="70" width="38" height="14" rx="2" fill="url(#thumbBrick3)"/>
    <rect x="255" y="70" width="38" height="14" rx="2" fill="url(#thumbBrick3)"/>
    <rect x="297" y="70" width="38" height="14" rx="2" fill="url(#thumbBrick3)"/>
    <rect x="45" y="88" width="38" height="14" rx="2" fill="url(#thumbBrick2)"/>
    <rect x="87" y="88" width="38" height="14" rx="2" fill="url(#thumbBrick2)"/>
    <rect x="129" y="88" width="38" height="14" rx="2" fill="url(#thumbBrick2)"/>
    <rect x="213" y="88" width="38" height="14" rx="2" fill="url(#thumbBrick2)"/>
    <rect x="255" y="88" width="38" height="14" rx="2" fill="url(#thumbBrick2)"/>
    <rect x="297" y="88" width="38" height="14" rx="2" fill="url(#thumbBrick2)"/>
    <rect x="45" y="106" width="38" height="14" rx="2" fill="url(#thumbBrick1)"/>
    <rect x="87" y="106" width="38" height="14" rx="2" fill="url(#thumbBrick1)"/>
    <rect x="255" y="106" width="38" height="14" rx="2" fill="url(#thumbBrick1)"/>
    <rect x="297" y="106" width="38" height="14" rx="2" fill="url(#thumbBrick1)"/>
  </g>
  <circle cx="185" cy="95" r="25" fill="url(#thumbExplosion)" filter="url(#thumbSoftGlow)"/>
  <g opacity="0.7">
    <rect x="175" y="85" width="3" height="3" fill="#FFAA33" transform="rotate(30 176 86)"/>
    <rect x="195" y="82" width="2.5" height="2.5" fill="#FF4466" transform="rotate(-25 196 83)"/>
    <rect x="170" y="100" width="2" height="2" fill="#33FF88" transform="rotate(55 171 101)"/>
    <rect x="198" y="105" width="3" height="3" fill="#FFAA33" transform="rotate(-40 199 106)"/>
  </g>
  <g filter="url(#thumbNeon)">
    <circle cx="168" cy="168" r="4" fill="#00FFFF" opacity="0.15"/>
    <circle cx="172" cy="162" r="4" fill="#00FFFF" opacity="0.25"/>
    <circle cx="176" cy="156" r="4.5" fill="#00FFFF" opacity="0.35"/>
    <circle cx="180" cy="150" r="5" fill="#00FFFF" opacity="0.5"/>
    <circle cx="185" cy="143" r="6" fill="url(#thumbBallGlow)"/>
    <circle cx="185" cy="143" r="4" fill="#FFFFFF"/>
  </g>
  <g filter="url(#thumbNeon)">
    <rect x="145" y="240" width="80" height="10" rx="5" fill="url(#thumbPaddleGrad)"/>
    <rect x="155" y="241" width="60" height="3" rx="2" fill="#AAFFFF" opacity="0.4"/>
    <ellipse cx="185" cy="245" rx="10" ry="4" fill="#00FFFF" opacity="0.3"/>
  </g>
  <line x1="20" y1="60" x2="20" y2="270" stroke="#00FFFF" stroke-width="1.5" opacity="0.3"/>
  <line x1="380" y1="60" x2="380" y2="270" stroke="#00FFFF" stroke-width="1.5" opacity="0.3"/>
  <line x1="20" y1="60" x2="380" y2="60" stroke="#00FFFF" stroke-width="1.5" opacity="0.3"/>
  <g filter="url(#thumbNeon)" opacity="0.85">
    <rect x="110" y="170" width="14" height="14" rx="2" fill="#FF00FF" opacity="0.8"/>
    <path d="M114 174 L120 180 L114 180 Z M120 174 L120 180 L116 176 Z" fill="#FFFFFF" opacity="0.7"/>
  </g>
  <g filter="url(#thumbTitleGlow)">
    <text x="200" y="32" text-anchor="middle" font-size="28" font-weight="bold" font-family="Arial, sans-serif" fill="url(#titleGrad)">NEON BRICK BREAKER</text>
  </g>
  <line x1="20" y1="265" x2="380" y2="265" stroke="#FF0044" stroke-width="0.5" opacity="0.4" stroke-dasharray="6,6"/>
  <g opacity="0.6">
    <text x="35" y="52" font-size="8" font-family="Arial, sans-serif" fill="#FFFFFF">SCORE: 4280</text>
    <text x="330" y="52" font-size="8" font-family="Arial, sans-serif" fill="#FFFFFF">LV.3</text>
  </g>
  <rect x="1" y="1" width="398" height="298" fill="none" stroke="#00FFFF" stroke-width="1" opacity="0.2" rx="4"/>
</svg>
