<svg xmlns="http://www.w3.org/2000/svg" viewBox="0 0 512 512">
  <defs>
    <!-- === GRADIENTS (8 total) === -->

    <!-- Dark corruption trunk gradient -->
    <linearGradient id="corruptTrunk" x1="0.5" y1="0" x2="0.5" y2="1">
      <stop offset="0%" stop-color="#1b2838"/>
      <stop offset="30%" stop-color="#0d1b2a"/>
      <stop offset="70%" stop-color="#110015"/>
      <stop offset="100%" stop-color="#0a0a14"/>
    </linearGradient>

    <!-- Rainbow core radial — 7-color spectrum -->
    <radialGradient id="rainbowCore" cx="50%" cy="50%" r="50%">
      <stop offset="0%" stop-color="#ffffff" stop-opacity="1"/>
      <stop offset="12%" stop-color="#ff6b8a"/>
      <stop offset="28%" stop-color="#ff9100"/>
      <stop offset="42%" stop-color="#ffd700"/>
      <stop offset="56%" stop-color="#44dd44"/>
      <stop offset="70%" stop-color="#00e5ff"/>
      <stop offset="84%" stop-color="#4466ff"/>
      <stop offset="95%" stop-color="#b388ff"/>
      <stop offset="100%" stop-color="#0d1b2a" stop-opacity="0"/>
    </radialGradient>

    <!-- Rainbow wave gradient for concentric rings -->
    <radialGradient id="rainbowWave" cx="50%" cy="50%" r="50%">
      <stop offset="0%" stop-color="#ffd700" stop-opacity="0.5"/>
      <stop offset="30%" stop-color="#ff6b8a" stop-opacity="0.3"/>
      <stop offset="60%" stop-color="#00e5ff" stop-opacity="0.15"/>
      <stop offset="100%" stop-color="#b388ff" stop-opacity="0"/>
    </radialGradient>

    <!-- Spring branch (corrupted pink) -->
    <linearGradient id="springBranch" x1="1" y1="1" x2="0" y2="0">
      <stop offset="0%" stop-color="#1b2838"/>
      <stop offset="40%" stop-color="#2a1020"/>
      <stop offset="100%" stop-color="#ff6b8a"/>
    </linearGradient>

    <!-- Summer/Fall branch (corrupted gold) -->
    <linearGradient id="summerBranch" x1="0" y1="1" x2="1" y2="0">
      <stop offset="0%" stop-color="#1b2838"/>
      <stop offset="40%" stop-color="#2a2010"/>
      <stop offset="100%" stop-color="#ffd700"/>
    </linearGradient>

    <!-- Autumn branch (corrupted red/orange) -->
    <linearGradient id="autumnBranch" x1="1" y1="0" x2="0" y2="1">
      <stop offset="0%" stop-color="#1b2838"/>
      <stop offset="40%" stop-color="#2a1010"/>
      <stop offset="100%" stop-color="#ff5522"/>
    </linearGradient>

    <!-- Winter branch (corrupted ice-blue) -->
    <linearGradient id="winterBranch" x1="0" y1="0" x2="1" y2="1">
      <stop offset="0%" stop-color="#1b2838"/>
      <stop offset="40%" stop-color="#0a1a2a"/>
      <stop offset="100%" stop-color="#00e5ff"/>
    </linearGradient>

    <!-- Dark aura — vignette from core -->
    <radialGradient id="darkAura" cx="50%" cy="50%" r="50%">
      <stop offset="0%" stop-color="#110015" stop-opacity="0"/>
      <stop offset="45%" stop-color="#0d1b2a" stop-opacity="0.5"/>
      <stop offset="75%" stop-color="#0d1b2a" stop-opacity="0.85"/>
      <stop offset="100%" stop-color="#060610" stop-opacity="0.98"/>
    </radialGradient>

    <!-- Corruption vein glow -->
    <linearGradient id="veinGlow" x1="0" y1="0" x2="0" y2="1">
      <stop offset="0%" stop-color="#b388ff" stop-opacity="0.9"/>
      <stop offset="50%" stop-color="#7744cc" stop-opacity="0.5"/>
      <stop offset="100%" stop-color="#1b2838" stop-opacity="0.1"/>
    </linearGradient>

    <!-- Bark texture gradient -->
    <linearGradient id="barkDark" x1="0" y1="0" x2="1" y2="0">
      <stop offset="0%" stop-color="#0d1b2a"/>
      <stop offset="50%" stop-color="#162030"/>
      <stop offset="100%" stop-color="#0d1b2a"/>
    </linearGradient>

    <!-- === FILTERS (6 total) === -->

    <!-- Core rainbow glow — intense multi-layer blur -->
    <filter id="coreGlow" x="-50%" y="-50%" width="200%" height="200%">
      <feGaussianBlur in="SourceGraphic" stdDeviation="12" result="blur1"/>
      <feGaussianBlur in="SourceGraphic" stdDeviation="4" result="blur2"/>
      <feBlend in="blur1" in2="blur2" mode="screen" result="combined"/>
      <feComposite in="SourceGraphic" in2="combined" operator="over"/>
    </filter>

    <!-- Soft aura blur -->
    <filter id="softBlur" x="-20%" y="-20%" width="140%" height="140%">
      <feGaussianBlur stdDeviation="5"/>
    </filter>

    <!-- Branch orb glow -->
    <filter id="orbGlow" x="-60%" y="-60%" width="220%" height="220%">
      <feGaussianBlur in="SourceGraphic" stdDeviation="7" result="blur"/>
      <feColorMatrix in="blur" type="saturate" values="1.5" result="saturated"/>
      <feComposite in="SourceGraphic" in2="saturated" operator="over"/>
    </filter>

    <!-- Concentric wave blur -->
    <filter id="waveBlur" x="-10%" y="-10%" width="120%" height="120%">
      <feGaussianBlur stdDeviation="3.5"/>
    </filter>

    <!-- Small particle glow -->
    <filter id="tinyGlow" x="-50%" y="-50%" width="200%" height="200%">
      <feGaussianBlur stdDeviation="2.5"/>
    </filter>

    <!-- Dark aura filter with color shift -->
    <filter id="corruptionPulse" x="-30%" y="-30%" width="160%" height="160%">
      <feGaussianBlur in="SourceGraphic" stdDeviation="8" result="blur"/>
      <feColorMatrix in="blur" type="hueRotate" values="270" result="shifted"/>
      <feBlend in="shifted" in2="SourceGraphic" mode="screen"/>
    </filter>
  </defs>

  <!-- ============================================ -->
  <!-- LAYER 1: Background — absolute darkness      -->
  <!-- ============================================ -->
  <g id="layer-background">
    <rect width="512" height="512" fill="#060610"/>
    <ellipse cx="256" cy="256" rx="256" ry="256" fill="url(#darkAura)"/>
    <!-- Faint dark purple mist in corners -->
    <ellipse cx="80" cy="80" rx="120" ry="100" fill="#110018" opacity="0.3"/>
    <ellipse cx="432" cy="432" rx="130" ry="110" fill="#0a0016" opacity="0.25"/>
  </g>

  <!-- ============================================ -->
  <!-- LAYER 2: Rainbow energy waves from core      -->
  <!-- ============================================ -->
  <g id="layer-rainbow-waves">
    <!-- 7 concentric rainbow rings — each a spectrum color -->
    <circle cx="256" cy="252" r="220" fill="none" stroke="#ff0044" stroke-width="1.5" stroke-opacity="0.1" filter="url(#waveBlur)"/>
    <circle cx="256" cy="252" r="195" fill="none" stroke="#ff6b00" stroke-width="1.8" stroke-opacity="0.12" filter="url(#waveBlur)"/>
    <circle cx="256" cy="252" r="172" fill="none" stroke="#ffd700" stroke-width="2" stroke-opacity="0.15" filter="url(#waveBlur)"/>
    <circle cx="256" cy="252" r="150" fill="none" stroke="#44dd44" stroke-width="2" stroke-opacity="0.17" filter="url(#waveBlur)"/>
    <circle cx="256" cy="252" r="130" fill="none" stroke="#00e5ff" stroke-width="2.2" stroke-opacity="0.2" filter="url(#waveBlur)"/>
    <circle cx="256" cy="252" r="110" fill="none" stroke="#4466ff" stroke-width="2" stroke-opacity="0.22" filter="url(#waveBlur)"/>
    <circle cx="256" cy="252" r="92" fill="none" stroke="#b388ff" stroke-width="2.5" stroke-opacity="0.28" filter="url(#waveBlur)"/>
    <!-- Broad diffuse rainbow wash behind everything -->
    <ellipse cx="256" cy="252" rx="160" ry="155" fill="url(#rainbowWave)" opacity="0.2" filter="url(#softBlur)"/>
  </g>

  <!-- ============================================ -->
  <!-- LAYER 3: Root system — corrupted, deep       -->
  <!-- ============================================ -->
  <g id="layer-roots">
    <!-- Main roots spreading down -->
    <path d="M236,385 Q220,420 195,460 Q182,485 170,512" fill="none" stroke="#0d1b2a" stroke-width="12" stroke-linecap="round"/>
    <path d="M276,385 Q292,425 318,465 Q330,490 345,512" fill="none" stroke="#0d1b2a" stroke-width="12" stroke-linecap="round"/>
    <path d="M256,395 Q254,445 256,512" fill="none" stroke="#110015" stroke-width="9" stroke-linecap="round"/>
    <!-- Secondary thinner roots -->
    <path d="M242,400 Q215,440 180,490" fill="none" stroke="#0a0a14" stroke-width="5" stroke-linecap="round"/>
    <path d="M270,400 Q298,442 335,492" fill="none" stroke="#0a0a14" stroke-width="5" stroke-linecap="round"/>
    <!-- Root corruption veins — purple glow -->
    <path d="M236,385 Q218,422 193,462" fill="none" stroke="#b388ff" stroke-width="1.2" opacity="0.4"/>
    <path d="M276,385 Q294,428 320,468" fill="none" stroke="#b388ff" stroke-width="1.2" opacity="0.4"/>
    <path d="M256,395 Q254,448 256,500" fill="none" stroke="#7744cc" stroke-width="0.8" opacity="0.3"/>
  </g>

  <!-- ============================================ -->
  <!-- LAYER 4: Corrupted trunk with bark detail    -->
  <!-- ============================================ -->
  <g id="layer-trunk">
    <!-- Main trunk body — wide organic shape with Bezier curves -->
    <path d="M224,150 Q216,185 218,220 Q216,260 218,300 Q220,340 226,385
             L286,385 Q292,340 294,300 Q296,260 294,220 Q296,185 288,150
             Q278,135 256,132 Q234,135 224,150 Z"
          fill="url(#corruptTrunk)" stroke="#0a0a14" stroke-width="1.5"/>

    <!-- Bark texture — organic swirl lines -->
    <path d="M232,158 Q228,200 230,250 Q228,300 232,350 Q234,375 236,385" fill="none" stroke="url(#barkDark)" stroke-width="2.5" opacity="0.5"/>
    <path d="M280,158 Q284,200 282,250 Q284,300 280,350 Q278,375 276,385" fill="none" stroke="url(#barkDark)" stroke-width="2.5" opacity="0.5"/>
    <path d="M256,135 Q254,180 256,230 Q254,280 256,330 Q254,360 256,385" fill="none" stroke="#162030" stroke-width="1.5" opacity="0.4"/>

    <!-- Corruption veins — purple pulsing network -->
    <path d="M233,165 Q236,205 234,255 Q232,310 236,365" fill="none" stroke="#b388ff" stroke-width="1.3" opacity="0.45"/>
    <path d="M248,148 Q250,200 248,260 Q246,320 250,378" fill="none" stroke="#9955ee" stroke-width="1" opacity="0.35"/>
    <path d="M264,148 Q262,195 264,255 Q266,315 262,378" fill="none" stroke="#9955ee" stroke-width="1" opacity="0.35"/>
    <path d="M279,165 Q276,210 278,265 Q280,320 276,370" fill="none" stroke="#b388ff" stroke-width="1.3" opacity="0.45"/>

    <!-- Cross-hatching corruption veins -->
    <path d="M228,190 Q245,200 275,188" fill="none" stroke="#7744cc" stroke-width="0.7" opacity="0.3"/>
    <path d="M226,240 Q248,250 280,238" fill="none" stroke="#7744cc" stroke-width="0.7" opacity="0.3"/>
    <path d="M224,290 Q250,302 285,288" fill="none" stroke="#7744cc" stroke-width="0.7" opacity="0.3"/>
    <path d="M226,340 Q252,350 282,338" fill="none" stroke="#7744cc" stroke-width="0.7" opacity="0.3"/>

    <!-- Thorny corruption growths wrapping the trunk -->
    <path d="M218,195 Q204,185 198,205 Q204,222 218,215" fill="none" stroke="#1a0028" stroke-width="4" stroke-linecap="round"/>
    <path d="M294,225 Q308,216 314,236 Q306,252 294,242" fill="none" stroke="#1a0028" stroke-width="4" stroke-linecap="round"/>
    <path d="M220,275 Q206,266 200,286 Q208,302 222,290" fill="none" stroke="#1a0028" stroke-width="4" stroke-linecap="round"/>
    <path d="M292,310 Q306,300 312,320 Q304,336 292,326" fill="none" stroke="#1a0028" stroke-width="4" stroke-linecap="round"/>
    <path d="M222,345 Q210,338 206,354 Q212,366 224,358" fill="none" stroke="#1a0028" stroke-width="3.5" stroke-linecap="round"/>
    <path d="M290,355 Q302,348 306,364 Q300,376 290,368" fill="none" stroke="#1a0028" stroke-width="3.5" stroke-linecap="round"/>

    <!-- Thorn spikes -->
    <polygon points="200,200 191,194 196,190" fill="#1a0028"/>
    <polygon points="312,230 320,224 318,218" fill="#1a0028"/>
    <polygon points="202,280 193,274 198,270" fill="#1a0028"/>
    <polygon points="310,315 319,308 316,304" fill="#1a0028"/>
    <polygon points="208,350 199,345 203,340" fill="#1a0028"/>
    <polygon points="304,360 314,354 310,348" fill="#1a0028"/>
    <polygon points="200,215 192,220 195,210" fill="#1a0028"/>
    <polygon points="308,248 316,252 312,242" fill="#1a0028"/>
  </g>

  <!-- ============================================ -->
  <!-- LAYER 5: Four seasonal branch-arms           -->
  <!-- ============================================ -->
  <g id="layer-branches">

    <!-- === SPRING BRANCH (upper-left) — corrupted pink === -->
    <g id="branch-spring">
      <path d="M224,155 Q185,125 140,92 Q115,75 82,58" fill="none" stroke="url(#springBranch)" stroke-width="13" stroke-linecap="round"/>
      <path d="M175,115 Q155,98 128,92 Q115,88 100,90" fill="none" stroke="url(#springBranch)" stroke-width="6" stroke-linecap="round"/>
      <path d="M198,132 Q182,118 160,126 Q148,130 140,138" fill="none" stroke="url(#springBranch)" stroke-width="5" stroke-linecap="round"/>
      <path d="M155,108 Q145,96 130,100" fill="none" stroke="#2a1020" stroke-width="3" stroke-linecap="round"/>
      <!-- Corruption veins on branch -->
      <path d="M224,155 Q186,126 140,94 Q116,76 84,60" fill="none" stroke="#b388ff" stroke-width="0.8" opacity="0.3"/>
      <!-- Energy orb at tip -->
      <circle cx="82" cy="58" r="22" fill="#ff6b8a" opacity="0.3" filter="url(#orbGlow)"/>
      <circle cx="82" cy="58" r="13" fill="#ff6b8a" opacity="0.7"/>
      <circle cx="82" cy="58" r="6" fill="#ffccdd"/>
      <!-- Bullet-pattern dots radiating from tip -->
      <circle cx="65" cy="42" r="3" fill="#ff6b8a" opacity="0.7" filter="url(#tinyGlow)"/>
      <circle cx="55" cy="52" r="2.5" fill="#ff6b8a" opacity="0.6" filter="url(#tinyGlow)"/>
      <circle cx="72" cy="35" r="2" fill="#ff9daf" opacity="0.5" filter="url(#tinyGlow)"/>
      <circle cx="58" cy="38" r="2" fill="#ff6b8a" opacity="0.45"/>
      <circle cx="48" cy="48" r="1.8" fill="#ff6b8a" opacity="0.35"/>
      <!-- Corrupted cherry blossom remnants -->
      <ellipse cx="100" cy="78" rx="5" ry="3" transform="rotate(-35,100,78)" fill="#ff6b8a" opacity="0.25"/>
      <ellipse cx="120" cy="90" rx="4" ry="2.5" transform="rotate(-20,120,90)" fill="#ff6b8a" opacity="0.2"/>
    </g>

    <!-- === SUMMER/FALL BRANCH (upper-right) — corrupted gold === -->
    <g id="branch-summer">
      <path d="M288,155 Q327,125 372,92 Q397,75 430,58" fill="none" stroke="url(#summerBranch)" stroke-width="13" stroke-linecap="round"/>
      <path d="M337,115 Q357,98 384,92 Q397,88 412,90" fill="none" stroke="url(#summerBranch)" stroke-width="6" stroke-linecap="round"/>
      <path d="M314,132 Q330,118 352,126 Q364,130 372,138" fill="none" stroke="url(#summerBranch)" stroke-width="5" stroke-linecap="round"/>
      <path d="M357,108 Q367,96 382,100" fill="none" stroke="#2a2010" stroke-width="3" stroke-linecap="round"/>
      <!-- Corruption veins on branch -->
      <path d="M288,155 Q326,126 372,94 Q396,76 428,60" fill="none" stroke="#b388ff" stroke-width="0.8" opacity="0.3"/>
      <!-- Energy orb at tip -->
      <circle cx="430" cy="58" r="22" fill="#ffd700" opacity="0.3" filter="url(#orbGlow)"/>
      <circle cx="430" cy="58" r="13" fill="#ffd700" opacity="0.7"/>
      <circle cx="430" cy="58" r="6" fill="#fff5cc"/>
      <!-- Bullet-pattern dots radiating from tip -->
      <circle cx="447" cy="42" r="3" fill="#ffd700" opacity="0.7" filter="url(#tinyGlow)"/>
      <circle cx="457" cy="52" r="2.5" fill="#ffd700" opacity="0.6" filter="url(#tinyGlow)"/>
      <circle cx="440" cy="35" r="2" fill="#ffe44d" opacity="0.5" filter="url(#tinyGlow)"/>
      <circle cx="454" cy="38" r="2" fill="#ffd700" opacity="0.45"/>
      <circle cx="464" cy="48" r="1.8" fill="#ffd700" opacity="0.35"/>
      <!-- Scattered gold flower remnants -->
      <ellipse cx="410" cy="76" rx="5" ry="3" transform="rotate(30,410,76)" fill="#ffd700" opacity="0.25"/>
      <ellipse cx="390" cy="88" rx="4" ry="2.5" transform="rotate(15,390,88)" fill="#ffd700" opacity="0.2"/>
    </g>

    <!-- === AUTUMN BRANCH (lower-left) — corrupted red/orange === -->
    <g id="branch-autumn">
      <path d="M224,265 Q178,288 120,322 Q92,340 60,355" fill="none" stroke="url(#autumnBranch)" stroke-width="12" stroke-linecap="round"/>
      <path d="M155,298 Q132,315 116,304 Q106,296 98,302" fill="none" stroke="url(#autumnBranch)" stroke-width="5.5" stroke-linecap="round"/>
      <path d="M185,282 Q168,296 158,285 Q150,278 142,284" fill="none" stroke="url(#autumnBranch)" stroke-width="5" stroke-linecap="round"/>
      <path d="M132,312 Q118,322 108,316" fill="none" stroke="#2a1010" stroke-width="3" stroke-linecap="round"/>
      <!-- Corruption veins on branch -->
      <path d="M224,265 Q180,290 122,324 Q94,342 62,357" fill="none" stroke="#b388ff" stroke-width="0.8" opacity="0.3"/>
      <!-- Energy orb at tip -->
      <circle cx="60" cy="355" r="22" fill="#ff5522" opacity="0.3" filter="url(#orbGlow)"/>
      <circle cx="60" cy="355" r="13" fill="#ff5522" opacity="0.7"/>
      <circle cx="60" cy="355" r="6" fill="#ffccbb"/>
      <!-- Bullet-pattern dots radiating from tip -->
      <circle cx="42" cy="368" r="3" fill="#ff5522" opacity="0.7" filter="url(#tinyGlow)"/>
      <circle cx="38" cy="355" r="2.5" fill="#ff5522" opacity="0.6" filter="url(#tinyGlow)"/>
      <circle cx="48" cy="378" r="2" fill="#ff7744" opacity="0.5" filter="url(#tinyGlow)"/>
      <circle cx="35" cy="372" r="2" fill="#ff5522" opacity="0.45"/>
      <circle cx="50" cy="385" r="1.8" fill="#ff5522" opacity="0.35"/>
      <!-- Corrupted maple leaf remnants -->
      <ellipse cx="82" cy="342" rx="5" ry="3" transform="rotate(-40,82,342)" fill="#ff5522" opacity="0.25"/>
      <ellipse cx="100" cy="330" rx="4" ry="2.5" transform="rotate(-25,100,330)" fill="#e04020" opacity="0.2"/>
    </g>

    <!-- === WINTER BRANCH (lower-right) — corrupted ice-blue === -->
    <g id="branch-winter">
      <path d="M288,265 Q334,288 392,322 Q420,340 452,355" fill="none" stroke="url(#winterBranch)" stroke-width="12" stroke-linecap="round"/>
      <path d="M357,298 Q380,315 396,304 Q406,296 414,302" fill="none" stroke="url(#winterBranch)" stroke-width="5.5" stroke-linecap="round"/>
      <path d="M327,282 Q344,296 354,285 Q362,278 370,284" fill="none" stroke="url(#winterBranch)" stroke-width="5" stroke-linecap="round"/>
      <path d="M380,312 Q394,322 404,316" fill="none" stroke="#0a1a2a" stroke-width="3" stroke-linecap="round"/>
      <!-- Corruption veins on branch -->
      <path d="M288,265 Q332,290 390,324 Q418,342 450,357" fill="none" stroke="#b388ff" stroke-width="0.8" opacity="0.3"/>
      <!-- Energy orb at tip -->
      <circle cx="452" cy="355" r="22" fill="#00e5ff" opacity="0.3" filter="url(#orbGlow)"/>
      <circle cx="452" cy="355" r="13" fill="#00e5ff" opacity="0.7"/>
      <circle cx="452" cy="355" r="6" fill="#ccffff"/>
      <!-- Bullet-pattern dots radiating from tip -->
      <circle cx="470" cy="368" r="3" fill="#00e5ff" opacity="0.7" filter="url(#tinyGlow)"/>
      <circle cx="474" cy="355" r="2.5" fill="#00e5ff" opacity="0.6" filter="url(#tinyGlow)"/>
      <circle cx="464" cy="378" r="2" fill="#44eeff" opacity="0.5" filter="url(#tinyGlow)"/>
      <circle cx="477" cy="372" r="2" fill="#00e5ff" opacity="0.45"/>
      <circle cx="462" cy="385" r="1.8" fill="#00e5ff" opacity="0.35"/>
      <!-- Corrupted ice crystal remnants -->
      <ellipse cx="432" cy="342" rx="5" ry="3" transform="rotate(35,432,342)" fill="#00e5ff" opacity="0.25"/>
      <ellipse cx="412" cy="330" rx="4" ry="2.5" transform="rotate(20,412,330)" fill="#00ccdd" opacity="0.2"/>
    </g>
  </g>

  <!-- ============================================ -->
  <!-- LAYER 6: Heart core — rainbow pulsing center -->
  <!-- ============================================ -->
  <g id="layer-core">
    <!-- Outer core aura -->
    <ellipse cx="256" cy="248" rx="50" ry="52" fill="url(#rainbowCore)" opacity="0.5" filter="url(#corruptionPulse)"/>

    <!-- Main core orb -->
    <ellipse cx="256" cy="248" rx="38" ry="40" fill="url(#rainbowCore)" filter="url(#coreGlow)"/>

    <!-- Heart shape — outer layer (pink-red) -->
    <path d="M256,274 Q237,256 230,242 Q223,226 233,218 Q244,212 256,226
             Q268,212 279,218 Q289,226 282,242 Q275,256 256,274 Z"
          fill="#ff6b8a" opacity="0.75"/>

    <!-- Heart shape — middle layer (golden) -->
    <path d="M256,266 Q243,254 238,244 Q232,233 240,227 Q249,223 256,234
             Q263,223 272,227 Q280,233 274,244 Q269,254 256,266 Z"
          fill="#ffd700" opacity="0.65"/>

    <!-- Heart shape — inner layer (white-hot) -->
    <path d="M256,258 Q249,252 246,246 Q242,239 248,236 Q253,234 256,240
             Q259,234 264,236 Q270,239 266,246 Q263,252 256,258 Z"
          fill="#ffffff" opacity="0.92"/>

    <!-- Core pulse rings -->
    <circle cx="256" cy="248" r="48" fill="none" stroke="#ffd700" stroke-width="1.8" stroke-opacity="0.45" filter="url(#tinyGlow)"/>
    <circle cx="256" cy="248" r="58" fill="none" stroke="#ff6b8a" stroke-width="1.2" stroke-opacity="0.35" filter="url(#tinyGlow)"/>
    <circle cx="256" cy="248" r="68" fill="none" stroke="#00e5ff" stroke-width="1" stroke-opacity="0.25" filter="url(#tinyGlow)"/>

    <!-- Energy streaks from each orb toward center core -->
    <line x1="82" y1="58" x2="226" y2="200" stroke="#ff6b8a" stroke-width="1.2" opacity="0.2" stroke-dasharray="5,10"/>
    <line x1="430" y1="58" x2="286" y2="200" stroke="#ffd700" stroke-width="1.2" opacity="0.2" stroke-dasharray="5,10"/>
    <line x1="60" y1="355" x2="226" y2="272" stroke="#ff5522" stroke-width="1.2" opacity="0.2" stroke-dasharray="5,10"/>
    <line x1="452" y1="355" x2="286" y2="272" stroke="#00e5ff" stroke-width="1.2" opacity="0.2" stroke-dasharray="5,10"/>
  </g>

  <!-- ============================================ -->
  <!-- LAYER 7: Corruption particles & dark debris  -->
  <!-- ============================================ -->
  <g id="layer-particles">
    <!-- Floating corruption motes -->
    <circle cx="195" cy="178" r="3.5" fill="#b388ff" opacity="0.55" filter="url(#tinyGlow)"/>
    <circle cx="318" cy="172" r="3" fill="#b388ff" opacity="0.45" filter="url(#tinyGlow)"/>
    <circle cx="180" cy="325" r="3.5" fill="#b388ff" opacity="0.5" filter="url(#tinyGlow)"/>
    <circle cx="335" cy="332" r="3" fill="#b388ff" opacity="0.55" filter="url(#tinyGlow)"/>
    <circle cx="215" cy="138" r="2.5" fill="#9955ee" opacity="0.35" filter="url(#tinyGlow)"/>
    <circle cx="300" cy="360" r="2.5" fill="#9955ee" opacity="0.4" filter="url(#tinyGlow)"/>
    <circle cx="170" cy="250" r="2" fill="#b388ff" opacity="0.3" filter="url(#tinyGlow)"/>
    <circle cx="345" cy="245" r="2" fill="#b388ff" opacity="0.3" filter="url(#tinyGlow)"/>
    <circle cx="210" cy="400" r="2.5" fill="#7744cc" opacity="0.3" filter="url(#tinyGlow)"/>
    <circle cx="305" cy="405" r="2" fill="#7744cc" opacity="0.25" filter="url(#tinyGlow)"/>

    <!-- Dark petals / debris floating in the abyss -->
    <ellipse cx="168" cy="198" rx="5" ry="2.5" transform="rotate(-30,168,198)" fill="#110015" opacity="0.55"/>
    <ellipse cx="345" cy="205" rx="4" ry="2" transform="rotate(22,345,205)" fill="#0d1b2a" opacity="0.5"/>
    <ellipse cx="185" cy="365" rx="4.5" ry="2" transform="rotate(-18,185,365)" fill="#110015" opacity="0.5"/>
    <ellipse cx="328" cy="375" rx="5" ry="2.5" transform="rotate(38,328,375)" fill="#0d1b2a" opacity="0.55"/>
    <ellipse cx="145" cy="148" rx="3.5" ry="1.8" transform="rotate(12,145,148)" fill="#0a0014" opacity="0.4"/>
    <ellipse cx="370" cy="152" rx="3.5" ry="1.8" transform="rotate(-28,370,152)" fill="#0a0014" opacity="0.4"/>
    <ellipse cx="130" cy="260" rx="4" ry="1.8" transform="rotate(-10,130,260)" fill="#110015" opacity="0.35"/>
    <ellipse cx="382" cy="268" rx="3.5" ry="1.5" transform="rotate(15,382,268)" fill="#110015" opacity="0.35"/>
  </g>
</svg>