<svg xmlns="http://www.w3.org/2000/svg" viewBox="0 0 128 128">
  <defs>
    <radialGradient id="enemyCore" cx="0.5" cy="0.4" r="0.5">
      <stop offset="0%" stop-color="#7C4DFF"/>
      <stop offset="50%" stop-color="#4A148C"/>
      <stop offset="100%" stop-color="#1A0033"/>
    </radialGradient>
    <radialGradient id="enemyEye" cx="0.5" cy="0.5" r="0.5">
      <stop offset="0%" stop-color="#FF1744"/>
      <stop offset="40%" stop-color="#D50000"/>
      <stop offset="100%" stop-color="#D50000" stop-opacity="0"/>
    </radialGradient>
    <linearGradient id="shadowArmor" x1="0" y1="0" x2="0" y2="1">
      <stop offset="0%" stop-color="#311B92"/>
      <stop offset="100%" stop-color="#0D0020"/>
    </linearGradient>
    <linearGradient id="riftCrack" x1="0" y1="0" x2="1" y2="1">
      <stop offset="0%" stop-color="#E040FB"/>
      <stop offset="50%" stop-color="#AA00FF"/>
      <stop offset="100%" stop-color="#7C4DFF"/>
    </linearGradient>
    <radialGradient id="darkAura" cx="0.5" cy="0.5" r="0.5">
      <stop offset="0%" stop-color="#AA00FF" stop-opacity="0.3"/>
      <stop offset="70%" stop-color="#4A148C" stop-opacity="0.1"/>
      <stop offset="100%" stop-color="#000000" stop-opacity="0"/>
    </radialGradient>
    <filter id="eGlow" x="-50%" y="-50%" width="200%" height="200%">
      <feGaussianBlur in="SourceGraphic" stdDeviation="3" result="blur"/>
      <feMerge><feMergeNode in="blur"/><feMergeNode in="SourceGraphic"/></feMerge>
    </filter>
    <filter id="eShadow" x="-20%" y="-20%" width="140%" height="140%">
      <feDropShadow dx="2" dy="3" stdDeviation="3" flood-color="#4A148C" flood-opacity="0.6"/>
    </filter>
    <filter id="eDarkGlow" x="-40%" y="-40%" width="180%" height="180%">
      <feGaussianBlur in="SourceGraphic" stdDeviation="4" result="blur"/>
      <feColorMatrix in="blur" type="matrix" values="1 0 0 0 0.2  0 0 1 0 0  0 0 1 0 0.3  0 0 0 1 0" result="tint"/>
      <feMerge><feMergeNode in="tint"/><feMergeNode in="SourceGraphic"/></feMerge>
    </filter>
  </defs>

  <!-- Dark aura -->
  <g id="e-aura">
    <ellipse cx="64" cy="64" rx="52" ry="52" fill="url(#darkAura)" opacity="0.6"/>
    <ellipse cx="64" cy="64" rx="40" ry="42" fill="url(#darkAura)" opacity="0.4"/>
  </g>

  <!-- Shadow tendrils -->
  <g id="e-tendrils" opacity="0.7">
    <path d="M44 90 C38 100, 28 108, 20 118 Q18 122, 22 124 Q28 120, 36 110 C40 104, 42 96, 44 90" fill="#1A0033" filter="url(#eShadow)"/>
    <path d="M84 90 C90 100, 100 108, 108 118 Q110 122, 106 124 Q100 120, 92 110 C88 104, 86 96, 84 90" fill="#1A0033" filter="url(#eShadow)"/>
    <path d="M54 95 C50 106, 44 116, 38 124 Q36 126, 40 126 C46 120, 52 110, 54 98 Z" fill="#0D0020" opacity="0.6"/>
    <path d="M74 95 C78 106, 84 116, 90 124 Q92 126, 88 126 C82 120, 76 110, 74 98 Z" fill="#0D0020" opacity="0.6"/>
  </g>

  <!-- Main body - jagged shadowy form -->
  <g id="e-body" filter="url(#eShadow)">
    <path d="M38 40 C34 50, 32 65, 34 80 Q36 90, 44 94 L56 96 Q64 98, 72 96 L84 94 Q92 90, 94 80 C96 65, 94 50, 90 40 Q84 28, 64 24 Q44 28, 38 40 Z" fill="url(#enemyCore)"/>
    <!-- Armor plates -->
    <path d="M42 44 L52 36 L64 32 L76 36 L86 44 L88 60 L84 72 L64 78 L44 72 L40 60 Z" fill="url(#shadowArmor)" opacity="0.8"/>
    <!-- Rift cracks on body -->
    <path d="M50 42 L48 56 L52 64 L48 72" fill="none" stroke="url(#riftCrack)" stroke-width="1.5" filter="url(#eGlow)" opacity="0.8"/>
    <path d="M78 42 L80 56 L76 64 L80 72" fill="none" stroke="url(#riftCrack)" stroke-width="1.5" filter="url(#eGlow)" opacity="0.8"/>
    <path d="M60 38 L64 50 L62 62 L66 70" fill="none" stroke="url(#riftCrack)" stroke-width="1" filter="url(#eGlow)" opacity="0.6"/>
    <!-- Chest rift opening -->
    <path d="M56 52 L64 46 L72 52 L68 62 L64 66 L60 62 Z" fill="#0D0020" stroke="#E040FB" stroke-width="0.8" opacity="0.7"/>
    <ellipse cx="64" cy="56" rx="4" ry="5" fill="#AA00FF" filter="url(#eGlow)" opacity="0.6"/>
  </g>

  <!-- Shoulder spikes -->
  <g id="e-spikes">
    <path d="M38 44 L28 30 L32 36 L36 42 Z" fill="#311B92" stroke="#7C4DFF" stroke-width="0.5"/>
    <path d="M36 48 L22 38 L28 42 L34 48 Z" fill="#311B92" stroke="#7C4DFF" stroke-width="0.5"/>
    <path d="M90 44 L100 30 L96 36 L92 42 Z" fill="#311B92" stroke="#7C4DFF" stroke-width="0.5"/>
    <path d="M92 48 L106 38 L100 42 L94 48 Z" fill="#311B92" stroke="#7C4DFF" stroke-width="0.5"/>
  </g>

  <!-- Head -->
  <g id="e-head" filter="url(#eDarkGlow)">
    <!-- Helm -->
    <path d="M46 20 C46 10, 54 4, 64 4 C74 4, 82 10, 82 20 L84 34 Q80 38, 64 40 Q48 38, 44 34 Z" fill="#1A0033"/>
    <!-- Helm crown spikes -->
    <path d="M50 16 L48 4 L54 14 Z" fill="#311B92"/>
    <path d="M64 12 L64 0 L66 0 L66 12 Z" fill="#311B92"/>
    <path d="M78 16 L80 4 L74 14 Z" fill="#311B92"/>
    <!-- Face plate -->
    <path d="M50 22 Q50 16, 64 14 Q78 16, 78 22 L78 34 Q76 38, 64 38 Q52 38, 50 34 Z" fill="#0D0020" stroke="#4A148C" stroke-width="0.5"/>
    <!-- Eyes - menacing red -->
    <ellipse cx="56" cy="26" rx="5" ry="3" fill="url(#enemyEye)" filter="url(#eGlow)"/>
    <ellipse cx="56" cy="26" rx="2" ry="1.5" fill="#FF1744"/>
    <ellipse cx="72" cy="26" rx="5" ry="3" fill="url(#enemyEye)" filter="url(#eGlow)"/>
    <ellipse cx="72" cy="26" rx="2" ry="1.5" fill="#FF1744"/>
    <!-- Mouth slit -->
    <path d="M56 32 Q60 35, 64 34 Q68 35, 72 32" fill="none" stroke="#AA00FF" stroke-width="1" opacity="0.6"/>
  </g>

  <!-- Floating rift fragments -->
  <g id="e-fragments" filter="url(#eGlow)">
    <polygon points="24,60 28,54 32,58 30,64" fill="#7C4DFF" opacity="0.5"/>
    <polygon points="100,56 104,50 106,56 102,62" fill="#E040FB" opacity="0.4"/>
    <polygon points="18,78 22,74 24,80" fill="#AA00FF" opacity="0.3"/>
    <polygon points="106,74 110,70 108,78" fill="#7C4DFF" opacity="0.35"/>
    <circle cx="28" cy="46" r="2" fill="#E040FB" opacity="0.4"/>
    <circle cx="100" cy="44" r="1.5" fill="#AA00FF" opacity="0.5"/>
    <circle cx="16" cy="68" r="1" fill="#B388FF" opacity="0.3"/>
    <circle cx="112" cy="66" r="1.2" fill="#B388FF" opacity="0.35"/>
  </g>
</svg>