<svg xmlns="http://www.w3.org/2000/svg" width="400" height="300" viewBox="0 0 400 300">
  <defs>
    <!-- Sky -->
    <linearGradient id="tSky" x1="0" y1="0" x2="0" y2="1">
      <stop offset="0%" stop-color="#050510"/>
      <stop offset="40%" stop-color="#0A1628"/>
      <stop offset="100%" stop-color="#1A0033"/>
    </linearGradient>
    <!-- Rift portal -->
    <radialGradient id="tRift" cx="0.5" cy="0.5" r="0.5">
      <stop offset="0%" stop-color="#FFFFFF" stop-opacity="0.8"/>
      <stop offset="20%" stop-color="#E040FB" stop-opacity="0.6"/>
      <stop offset="50%" stop-color="#B388FF" stop-opacity="0.3"/>
      <stop offset="100%" stop-color="#4A148C" stop-opacity="0"/>
    </radialGradient>
    <!-- Player cloak -->
    <linearGradient id="tCloak" x1="0" y1="0" x2="0" y2="1">
      <stop offset="0%" stop-color="#00E5FF"/>
      <stop offset="100%" stop-color="#003355"/>
    </linearGradient>
    <!-- Player mask -->
    <radialGradient id="tMask" cx="0.5" cy="0.4" r="0.5">
      <stop offset="0%" stop-color="#FFFFFF"/>
      <stop offset="100%" stop-color="#C0C0D0"/>
    </radialGradient>
    <!-- Enemy body -->
    <radialGradient id="tEnemy" cx="0.5" cy="0.4" r="0.5">
      <stop offset="0%" stop-color="#7C4DFF"/>
      <stop offset="100%" stop-color="#1A0033"/>
    </radialGradient>
    <!-- Title gradient -->
    <linearGradient id="tTitle" x1="0" y1="0" x2="1" y2="1">
      <stop offset="0%" stop-color="#00E5FF"/>
      <stop offset="50%" stop-color="#B388FF"/>
      <stop offset="100%" stop-color="#E040FB"/>
    </linearGradient>
    <!-- Nebula -->
    <radialGradient id="tNeb1" cx="0.3" cy="0.3" r="0.4">
      <stop offset="0%" stop-color="#7C4DFF" stop-opacity="0.15"/>
      <stop offset="100%" stop-color="#000" stop-opacity="0"/>
    </radialGradient>
    <radialGradient id="tNeb2" cx="0.7" cy="0.5" r="0.35">
      <stop offset="0%" stop-color="#E040FB" stop-opacity="0.12"/>
      <stop offset="100%" stop-color="#000" stop-opacity="0"/>
    </radialGradient>
    <!-- Ground gradient -->
    <linearGradient id="tGround" x1="0" y1="0" x2="0" y2="1">
      <stop offset="0%" stop-color="#1A1A3E"/>
      <stop offset="100%" stop-color="#0D0D20"/>
    </linearGradient>
    <!-- Glow filters -->
    <filter id="tGlow" x="-50%" y="-50%" width="200%" height="200%">
      <feGaussianBlur in="SourceGraphic" stdDeviation="4" result="blur"/>
      <feMerge><feMergeNode in="blur"/><feMergeNode in="SourceGraphic"/></feMerge>
    </filter>
    <filter id="tSoftGlow" x="-30%" y="-30%" width="160%" height="160%">
      <feGaussianBlur in="SourceGraphic" stdDeviation="2" result="blur"/>
      <feMerge><feMergeNode in="blur"/><feMergeNode in="SourceGraphic"/></feMerge>
    </filter>
    <filter id="tShadow" x="-10%" y="-10%" width="120%" height="120%">
      <feDropShadow dx="2" dy="3" stdDeviation="3" flood-color="#000" flood-opacity="0.6"/>
    </filter>
    <filter id="tFog" x="-10%" y="-10%" width="120%" height="120%">
      <feGaussianBlur in="SourceGraphic" stdDeviation="8"/>
    </filter>
    <filter id="titleShadow" x="-5%" y="-5%" width="110%" height="130%">
      <feDropShadow dx="1" dy="2" stdDeviation="2" flood-color="#000" flood-opacity="0.8"/>
    </filter>
    <filter id="titleGlow" x="-10%" y="-20%" width="120%" height="140%">
      <feGaussianBlur in="SourceGraphic" stdDeviation="3" result="blur"/>
      <feMerge><feMergeNode in="blur"/><feMergeNode in="SourceGraphic"/></feMerge>
    </filter>
  </defs>

  <!-- Sky background -->
  <rect width="400" height="300" fill="url(#tSky)"/>
  <rect width="400" height="300" fill="url(#tNeb1)"/>
  <rect width="400" height="300" fill="url(#tNeb2)"/>

  <!-- Stars -->
  <g id="t-stars">
    <circle cx="20" cy="15" r="0.8" fill="#FFF" opacity="0.7"/>
    <circle cx="55" cy="35" r="0.5" fill="#FFF" opacity="0.5"/>
    <circle cx="90" cy="20" r="1" fill="#E0F0FF" opacity="0.8"/>
    <circle cx="130" cy="40" r="0.6" fill="#FFF" opacity="0.6"/>
    <circle cx="170" cy="18" r="0.9" fill="#FFF" opacity="0.7"/>
    <circle cx="210" cy="30" r="0.5" fill="#FFF" opacity="0.5"/>
    <circle cx="250" cy="12" r="1.1" fill="#B0C0FF" opacity="0.8"/>
    <circle cx="285" cy="38" r="0.7" fill="#FFF" opacity="0.6"/>
    <circle cx="320" cy="22" r="0.8" fill="#FFE0FF" opacity="0.7"/>
    <circle cx="355" cy="15" r="0.6" fill="#FFF" opacity="0.5"/>
    <circle cx="385" cy="28" r="0.9" fill="#FFF" opacity="0.7"/>
    <circle cx="40" cy="55" r="0.6" fill="#FFF" opacity="0.5"/>
    <circle cx="110" cy="60" r="0.8" fill="#FFF" opacity="0.6"/>
    <circle cx="180" cy="52" r="0.5" fill="#FFF" opacity="0.4"/>
    <circle cx="240" cy="58" r="0.7" fill="#FFF" opacity="0.6"/>
    <circle cx="310" cy="50" r="0.9" fill="#FFF" opacity="0.7"/>
    <circle cx="370" cy="55" r="0.5" fill="#FFF" opacity="0.5"/>
    <circle cx="60" cy="80" r="0.7" fill="#FFF" opacity="0.5"/>
    <circle cx="150" cy="75" r="0.6" fill="#FFF" opacity="0.4"/>
    <circle cx="340" cy="70" r="0.8" fill="#FFF" opacity="0.6"/>
  </g>

  <!-- Massive dimensional rift in center-background -->
  <g filter="url(#tGlow)">
    <ellipse cx="200" cy="110" rx="60" ry="80" fill="url(#tRift)" opacity="0.7"/>
    <ellipse cx="200" cy="110" rx="35" ry="55" fill="#E040FB" opacity="0.15"/>
    <ellipse cx="200" cy="110" rx="18" ry="30" fill="#FFFFFF" opacity="0.1"/>
    <!-- Rift rim -->
    <ellipse cx="200" cy="110" rx="60" ry="80" fill="none" stroke="#B388FF" stroke-width="1.5" opacity="0.4"/>
    <!-- Rift energy cracks -->
    <path d="M160 60 Q155 50, 165 40" fill="none" stroke="#E040FB" stroke-width="1.2" opacity="0.5"/>
    <path d="M240 55 Q245 45, 235 35" fill="none" stroke="#00E5FF" stroke-width="1" opacity="0.4"/>
    <path d="M150 130 Q140 140, 148 150" fill="none" stroke="#B388FF" stroke-width="1" opacity="0.4"/>
    <path d="M250 135 Q260 145, 252 155" fill="none" stroke="#B388FF" stroke-width="1" opacity="0.4"/>
  </g>

  <!-- Distant mountains -->
  <path d="M0 180 L40 155 L80 165 L120 140 L160 155 L200 130 L240 145 L280 135 L320 150 L360 140 L400 155 L400 300 L0 300 Z" fill="url(#tGround)" opacity="0.5"/>

  <!-- Ruined pillars silhouettes -->
  <g filter="url(#tShadow)" opacity="0.7">
    <rect x="40" y="140" width="12" height="80" fill="#1A1A40"/>
    <polygon points="40,140 46,128 52,140" fill="#1A1A40"/>
    <rect x="340" y="130" width="14" height="90" fill="#1A1A40"/>
    <polygon points="340,130 347,116 354,130" fill="#1A1A40"/>
    <!-- Broken pillars -->
    <rect x="80" y="160" width="8" height="50" fill="#15153A" opacity="0.6"/>
    <rect x="310" y="150" width="10" height="60" fill="#15153A" opacity="0.6"/>
  </g>

  <!-- Ground / platform -->
  <g id="t-ground" filter="url(#tShadow)">
    <path d="M0 210 L60 200 L120 205 L180 195 L220 200 L280 195 L340 200 L400 210 L400 300 L0 300 Z" fill="#0D0D20"/>
    <path d="M0 210 L60 200 L120 205 L180 195 L220 200 L280 195 L340 200 L400 210" fill="none" stroke="#1A1A3E" stroke-width="1"/>
  </g>

  <!-- Crystal clusters on ground -->
  <g filter="url(#tSoftGlow)">
    <polygon points="100,200 104,180 108,200" fill="#00BCD4" opacity="0.5"/>
    <polygon points="106,202 109,185 112,202" fill="#00E5FF" opacity="0.4"/>
    <polygon points="290,198 294,178 298,198" fill="#00BCD4" opacity="0.5"/>
    <polygon points="296,200 299,183 302,200" fill="#00E5FF" opacity="0.4"/>
  </g>

  <!-- === PLAYER CHARACTER (Echo) - left foreground === -->
  <g id="t-player" filter="url(#tShadow)" transform="translate(120, 140) scale(0.8)">
    <!-- Cloak -->
    <path d="M0 20 C-6 25, -12 45, -14 70 Q-10 80, -4 84 L2 60 Z" fill="url(#tCloak)" opacity="0.85"/>
    <path d="M28 20 C34 25, 40 45, 42 70 Q38 80, 32 84 L26 60 Z" fill="url(#tCloak)" opacity="0.85"/>
    <!-- Body -->
    <path d="M4 18 L4 55 Q4 60, 10 62 L18 62 Q24 60, 24 55 L24 18 Q22 12, 14 10 Q6 12, 4 18 Z" fill="#1A1A2E"/>
    <!-- Chest rift symbol -->
    <path d="M10 26 L14 20 L18 26 L16 30 L18 34 L14 40 L10 34 L12 30 Z" fill="none" stroke="#B388FF" stroke-width="0.8" opacity="0.7"/>
    <!-- Legs -->
    <path d="M6 60 L4 76 C3 80, 6 82, 10 80 L12 76 L10 62 Z" fill="#0D0D1A"/>
    <path d="M22 60 L24 76 C25 80, 22 82, 18 80 L16 76 L18 62 Z" fill="#0D0D1A"/>
    <!-- Head / hood -->
    <path d="M2 -6 C2 -14, 8 -18, 14 -18 C20 -18, 26 -14, 26 -6 L28 8 Q26 12, 14 14 Q2 12, 0 8 Z" fill="url(#tCloak)"/>
    <path d="M4 -4 C4 -12, 8 -16, 14 -16 C20 -16, 24 -12, 24 -4 L25 8 Q24 10, 14 12 Q4 10, 3 8 Z" fill="#001A2A" opacity="0.7"/>
    <!-- Mask -->
    <ellipse cx="14" cy="0" rx="8" ry="9" fill="url(#tMask)"/>
    <!-- Eyes - glowing cyan -->
    <ellipse cx="10" cy="-2" rx="3" ry="1.5" fill="#00E5FF" filter="url(#tSoftGlow)"/>
    <ellipse cx="10" cy="-2" rx="1.5" ry="0.8" fill="#FFF"/>
    <ellipse cx="18" cy="-2" rx="3" ry="1.5" fill="#00E5FF" filter="url(#tSoftGlow)"/>
    <ellipse cx="18" cy="-2" rx="1.5" ry="0.8" fill="#FFF"/>
    <!-- Rift blade -->
    <path d="M30 38 L36 18 L38 12 L37 10 L34 16 L28 36 Z" fill="#B388FF" filter="url(#tGlow)" opacity="0.9"/>
    <path d="M31 32 L34 20 L36 14" fill="none" stroke="#FFF" stroke-width="0.4" opacity="0.5"/>
  </g>

  <!-- === ENEMIES approaching from rift === -->
  <!-- Enemy 1 (large, from rift) -->
  <g id="t-enemy1" filter="url(#tShadow)" transform="translate(260, 120) scale(0.6)">
    <!-- Shadow body -->
    <path d="M-16 0 C-20 10, -22 30, -20 48 Q-18 56, -10 58 L10 58 Q18 56, 20 48 C22 30, 20 10, 16 0 Q10 -10, 0 -12 Q-10 -10, -16 0 Z" fill="url(#tEnemy)"/>
    <!-- Armor -->
    <path d="M-12 4 L0 -6 L12 4 L12 30 L0 38 L-12 30 Z" fill="#311B92" opacity="0.7"/>
    <!-- Spikes -->
    <path d="M-16 4 L-24 -8 L-18 0 Z" fill="#311B92"/>
    <path d="M16 4 L24 -8 L18 0 Z" fill="#311B92"/>
    <!-- Red eyes -->
    <ellipse cx="-6" cy="-2" rx="4" ry="2" fill="#FF1744" filter="url(#tSoftGlow)"/>
    <ellipse cx="6" cy="-2" rx="4" ry="2" fill="#FF1744" filter="url(#tSoftGlow)"/>
    <!-- Crown spikes -->
    <path d="M-6 -10 L-8 -20 L-4 -12 Z" fill="#311B92"/>
    <path d="M0 -12 L0 -24 L2 -24 L2 -12 Z" fill="#311B92"/>
    <path d="M6 -10 L8 -20 L4 -12 Z" fill="#311B92"/>
    <!-- Rift cracks -->
    <path d="M-8 10 L-10 22 L-6 30" fill="none" stroke="#E040FB" stroke-width="1" opacity="0.5"/>
    <path d="M8 10 L10 22 L6 30" fill="none" stroke="#E040FB" stroke-width="1" opacity="0.5"/>
    <!-- Tendrils -->
    <path d="M-10 50 C-14 60, -20 68, -26 76" fill="none" stroke="#1A0033" stroke-width="2.5" opacity="0.6"/>
    <path d="M10 50 C14 60, 20 68, 26 76" fill="none" stroke="#1A0033" stroke-width="2.5" opacity="0.6"/>
  </g>

  <!-- Enemy 2 (smaller, further) -->
  <g id="t-enemy2" opacity="0.6" transform="translate(215, 85) scale(0.35)">
    <path d="M-14 0 C-18 10, -20 28, -18 44 Q-16 50, -8 52 L8 52 Q16 50, 18 44 C20 28, 18 10, 14 0 Q8 -8, 0 -10 Q-8 -8, -14 0 Z" fill="#4A148C"/>
    <ellipse cx="-4" cy="-2" rx="3" ry="1.5" fill="#FF1744" filter="url(#tSoftGlow)"/>
    <ellipse cx="4" cy="-2" rx="3" ry="1.5" fill="#FF1744" filter="url(#tSoftGlow)"/>
    <path d="M-14 0 L-22 -10 L-16 -2 Z" fill="#311B92"/>
    <path d="M14 0 L22 -10 L16 -2 Z" fill="#311B92"/>
  </g>

  <!-- Enemy 3 (even further) -->
  <g id="t-enemy3" opacity="0.4" transform="translate(190, 70) scale(0.25)">
    <ellipse cx="0" cy="0" rx="14" ry="18" fill="#311B92"/>
    <ellipse cx="-4" cy="-4" rx="3" ry="1.5" fill="#FF1744" opacity="0.6"/>
    <ellipse cx="4" cy="-4" rx="3" ry="1.5" fill="#FF1744" opacity="0.6"/>
  </g>

  <!-- Dimensional energy particles flying out of rift -->
  <g filter="url(#tSoftGlow)">
    <circle cx="180" cy="100" r="2" fill="#E040FB" opacity="0.6"/>
    <circle cx="220" cy="80" r="1.5" fill="#B388FF" opacity="0.5"/>
    <circle cx="195" cy="130" r="1.8" fill="#00E5FF" opacity="0.5"/>
    <circle cx="210" cy="150" r="1.2" fill="#E040FB" opacity="0.4"/>
    <circle cx="170" cy="140" r="1.5" fill="#B388FF" opacity="0.4"/>
    <circle cx="235" cy="120" r="1" fill="#00E5FF" opacity="0.45"/>
    <circle cx="250" cy="95" r="1.3" fill="#E040FB" opacity="0.5"/>
    <circle cx="165" cy="80" r="1" fill="#B388FF" opacity="0.35"/>
  </g>

  <!-- Fog at ground level -->
  <g filter="url(#tFog)">
    <rect x="-10" y="210" width="420" height="40" fill="#1A1A3E" opacity="0.25"/>
    <rect x="-10" y="230" width="420" height="30" fill="#0D0D2A" opacity="0.2"/>
  </g>

  <!-- Firefly particles -->
  <g filter="url(#tSoftGlow)" opacity="0.5">
    <circle cx="60" cy="190" r="2" fill="#B388FF"/>
    <circle cx="150" cy="200" r="1.5" fill="#00E5FF"/>
    <circle cx="330" cy="195" r="2" fill="#B388FF"/>
    <circle cx="370" cy="185" r="1.5" fill="#E040FB"/>
  </g>

  <!-- === TITLE TEXT === -->
  <g filter="url(#titleGlow)">
    <!-- Title shadow -->
    <text x="200" y="272" text-anchor="middle" font-size="30" font-weight="bold" font-family="'Segoe UI', Arial, sans-serif" fill="#000" opacity="0.5" transform="translate(2,2)">SHADOW RIFT</text>
    <!-- Title main -->
    <text x="200" y="272" text-anchor="middle" font-size="30" font-weight="bold" font-family="'Segoe UI', Arial, sans-serif" fill="url(#tTitle)" filter="url(#titleShadow)">SHADOW RIFT</text>
  </g>

  <!-- Subtitle -->
  <text x="200" y="290" text-anchor="middle" font-size="10" font-family="'Segoe UI', Arial, sans-serif" fill="#B388FF" opacity="0.7" letter-spacing="4">섀도우 리프트</text>

  <!-- Decorative corner elements -->
  <g opacity="0.4">
    <path d="M10 10 L30 10 L30 14 L14 14 L14 30 L10 30 Z" fill="#00E5FF"/>
    <path d="M390 10 L370 10 L370 14 L386 14 L386 30 L390 30 Z" fill="#00E5FF"/>
    <path d="M10 290 L30 290 L30 286 L14 286 L14 270 L10 270 Z" fill="#E040FB"/>
    <path d="M390 290 L370 290 L370 286 L386 286 L386 270 L390 270 Z" fill="#E040FB"/>
  </g>

  <!-- Vignette overlay -->
  <rect width="400" height="300" fill="url(#tNeb1)" opacity="0.3"/>

  <!-- === ADDITIONAL DETAIL PASS FOR DENSITY === -->

  <!-- More stars in empty areas -->
  <g id="t-stars-extra">
    <circle cx="15" cy="45" r="0.6" fill="#FFF" opacity="0.5"/>
    <circle cx="75" cy="48" r="0.9" fill="#E0F0FF" opacity="0.6"/>
    <circle cx="125" cy="55" r="0.5" fill="#FFF" opacity="0.4"/>
    <circle cx="195" cy="45" r="0.7" fill="#FFE0FF" opacity="0.5"/>
    <circle cx="265" cy="42" r="0.8" fill="#FFF" opacity="0.6"/>
    <circle cx="395" cy="42" r="0.7" fill="#B0C0FF" opacity="0.5"/>
    <circle cx="45" cy="70" r="0.5" fill="#FFF" opacity="0.4"/>
    <circle cx="95" cy="72" r="0.7" fill="#FFF" opacity="0.5"/>
    <circle cx="145" cy="68" r="0.6" fill="#FFF" opacity="0.4"/>
    <circle cx="275" cy="65" r="0.8" fill="#FFF" opacity="0.5"/>
    <circle cx="385" cy="48" r="0.5" fill="#FFF" opacity="0.4"/>
    <circle cx="5" cy="82" r="0.6" fill="#FFF" opacity="0.4"/>
    <circle cx="225" cy="42" r="0.5" fill="#FFF" opacity="0.3"/>
    <circle cx="355" cy="62" r="0.6" fill="#FFF" opacity="0.4"/>
    <circle cx="30" cy="95" r="0.7" fill="#FFF" opacity="0.5"/>
    <circle cx="105" cy="88" r="0.5" fill="#E0E0FF" opacity="0.4"/>
    <circle cx="290" cy="78" r="0.6" fill="#FFF" opacity="0.4"/>
    <circle cx="370" cy="82" r="0.8" fill="#FFF" opacity="0.5"/>
    <circle cx="185" cy="62" r="0.4" fill="#FFF" opacity="0.3"/>
    <circle cx="325" cy="38" r="0.6" fill="#FFF" opacity="0.4"/>
  </g>

  <!-- Constellation lines in sky -->
  <g opacity="0.12" stroke="#B388FF" stroke-width="0.4">
    <line x1="90" y1="20" x2="130" y2="40"/>
    <line x1="130" y1="40" x2="170" y2="18"/>
    <line x1="250" y1="12" x2="285" y2="38"/>
    <line x1="285" y1="38" x2="320" y2="22"/>
    <line x1="355" y1="15" x2="385" y2="28"/>
  </g>

  <!-- Rift energy tendrils extending from portal -->
  <g filter="url(#tSoftGlow)" opacity="0.35">
    <path d="M160 90 C140 100, 120 120, 100 140 Q90 155, 85 170" fill="none" stroke="#E040FB" stroke-width="1.5"/>
    <path d="M240 90 C260 100, 280 120, 300 140 Q310 155, 315 170" fill="none" stroke="#E040FB" stroke-width="1.5"/>
    <path d="M175 55 C165 45, 150 35, 135 30" fill="none" stroke="#B388FF" stroke-width="1"/>
    <path d="M225 55 C235 45, 250 35, 265 30" fill="none" stroke="#B388FF" stroke-width="1"/>
    <path d="M155 130 C135 145, 110 165, 90 185" fill="none" stroke="#7C4DFF" stroke-width="1"/>
    <path d="M245 130 C265 145, 290 165, 310 185" fill="none" stroke="#7C4DFF" stroke-width="1"/>
  </g>

  <!-- Floating rift fragments near portal -->
  <g filter="url(#tSoftGlow)">
    <polygon points="155,75 160,68 165,74 162,80" fill="#7C4DFF" opacity="0.4"/>
    <polygon points="238,70 244,64 248,72 242,76" fill="#E040FB" opacity="0.35"/>
    <polygon points="142,110 148,102 152,110 146,116" fill="#B388FF" opacity="0.3"/>
    <polygon points="255,105 260,98 264,106 258,112" fill="#B388FF" opacity="0.3"/>
    <polygon points="175,40 179,34 183,40 179,44" fill="#00E5FF" opacity="0.3"/>
    <polygon points="225,38 229,32 233,38 229,42" fill="#00E5FF" opacity="0.3"/>
  </g>

  <!-- More detailed ruined structures -->
  <g opacity="0.5">
    <!-- Broken wall segment left -->
    <path d="M20 180 L25 170 L35 175 L38 185 L30 188 Z" fill="#1A1A40"/>
    <path d="M25 170 L28 165 L32 168 L35 175" fill="none" stroke="#2A2A55" stroke-width="0.8"/>
    <!-- Broken wall segment right -->
    <path d="M360 175 L365 165 L375 170 L378 180 L370 183 Z" fill="#1A1A40"/>
    <path d="M365 165 L368 160 L372 163 L375 170" fill="none" stroke="#2A2A55" stroke-width="0.8"/>
    <!-- Fallen column on ground -->
    <rect x="240" y="205" width="35" height="5" rx="1" fill="#15153A" transform="rotate(-8,240,205)"/>
    <circle cx="278" cy="206" r="3" fill="#1A1A40" opacity="0.6"/>
    <!-- Stone blocks -->
    <rect x="55" y="202" width="8" height="6" fill="#1A1A40" opacity="0.5"/>
    <rect x="65" y="204" width="6" height="5" fill="#15153A" opacity="0.4"/>
    <rect x="320" y="203" width="7" height="5" fill="#1A1A40" opacity="0.5"/>
  </g>

  <!-- Rune markings on ground -->
  <g opacity="0.3">
    <text x="70" y="218" font-size="8" fill="#7C4DFF" font-family="serif">&#x16B1;</text>
    <text x="170" y="215" font-size="7" fill="#B388FF" font-family="serif">&#x16CA;</text>
    <text x="280" y="216" font-size="8" fill="#7C4DFF" font-family="serif">&#x16DE;</text>
    <text x="350" y="218" font-size="7" fill="#B388FF" font-family="serif">&#x16A6;</text>
    <!-- Circular rune on ground -->
    <circle cx="200" cy="220" r="12" fill="none" stroke="#E040FB" stroke-width="0.5" opacity="0.3"/>
    <circle cx="200" cy="220" r="8" fill="none" stroke="#B388FF" stroke-width="0.4" opacity="0.25"/>
    <text x="195" y="224" font-size="10" fill="#E040FB" opacity="0.2" font-family="serif">&#x16F1;</text>
  </g>

  <!-- Additional crystal details -->
  <g filter="url(#tSoftGlow)">
    <polygon points="45,198 48,186 51,198" fill="#0097A7" opacity="0.35"/>
    <polygon points="355,196 358,184 361,196" fill="#0097A7" opacity="0.35"/>
    <polygon points="178,200 180,192 182,200" fill="#7C4DFF" opacity="0.3"/>
    <polygon points="222,198 224,190 226,198" fill="#7C4DFF" opacity="0.3"/>
  </g>

  <!-- Player energy aura -->
  <g filter="url(#tGlow)" opacity="0.3">
    <ellipse cx="132" cy="170" rx="25" ry="35" fill="#00E5FF" opacity="0.15"/>
    <ellipse cx="132" cy="170" rx="15" ry="25" fill="#B388FF" opacity="0.1"/>
  </g>

  <!-- Combat effects — energy slash from player -->
  <g filter="url(#tGlow)" opacity="0.5">
    <path d="M155 155 C170 145, 185 140, 200 142" fill="none" stroke="#00E5FF" stroke-width="1.5"/>
    <path d="M157 160 C172 150, 187 147, 202 148" fill="none" stroke="#B388FF" stroke-width="1" opacity="0.6"/>
    <!-- Impact sparks -->
    <circle cx="200" cy="142" r="3" fill="#FFF" opacity="0.6"/>
    <circle cx="198" cy="140" r="1.5" fill="#00E5FF" opacity="0.8"/>
    <path d="M202 138 L206 132" stroke="#00E5FF" stroke-width="0.8" opacity="0.5"/>
    <path d="M204 144 L210 146" stroke="#B388FF" stroke-width="0.8" opacity="0.5"/>
    <path d="M200 136 L198 130" stroke="#E040FB" stroke-width="0.8" opacity="0.4"/>
  </g>

  <!-- Light rays from rift -->
  <g filter="url(#tFog)" opacity="0.08">
    <path d="M200 110 L100 250" stroke="#E040FB" stroke-width="30"/>
    <path d="M200 110 L300 250" stroke="#B388FF" stroke-width="25"/>
    <path d="M200 110 L50 200" stroke="#7C4DFF" stroke-width="20"/>
    <path d="M200 110 L350 200" stroke="#7C4DFF" stroke-width="20"/>
  </g>

  <!-- HUD overlay elements (cinematic framing) -->
  <g opacity="0.25">
    <!-- HP bar frame -->
    <rect x="15" y="250" width="60" height="6" rx="3" fill="none" stroke="#00E5FF" stroke-width="0.8"/>
    <rect x="16" y="251" width="40" height="4" rx="2" fill="#00E5FF" opacity="0.4"/>
    <!-- Mini map frame -->
    <rect x="350" y="245" width="35" height="25" rx="2" fill="none" stroke="#B388FF" stroke-width="0.6"/>
    <circle cx="367" cy="257" r="2" fill="#00E5FF" opacity="0.5"/>
    <circle cx="360" cy="253" r="1" fill="#FF1744" opacity="0.4"/>
    <circle cx="374" cy="260" r="1" fill="#FF1744" opacity="0.4"/>
  </g>
</svg>