<svg xmlns="http://www.w3.org/2000/svg" viewBox="0 0 512 512">
  <defs>
    <linearGradient id="hairGrad" x1="0" y1="0" x2="0" y2="1">
      <stop offset="0%" stop-color="#5a8fc5"/>
      <stop offset="40%" stop-color="#4a7fb5"/>
      <stop offset="100%" stop-color="#3a6fa0"/>
    </linearGradient>
    <linearGradient id="dressGrad" x1="0" y1="0" x2="0" y2="1">
      <stop offset="0%" stop-color="#f8f4eb"/>
      <stop offset="50%" stop-color="#f5f0e1"/>
      <stop offset="100%" stop-color="#ede5d3"/>
    </linearGradient>
    <radialGradient id="skinGrad" cx="0.35" cy="0.3" r="0.7">
      <stop offset="0%" stop-color="#faf0e4"/>
      <stop offset="60%" stop-color="#f5e6d0"/>
      <stop offset="100%" stop-color="#e8d5be"/>
    </radialGradient>
    <linearGradient id="brushHandleGrad" x1="0" y1="0" x2="1" y2="0">
      <stop offset="0%" stop-color="#9a7a24"/>
      <stop offset="50%" stop-color="#8B6914"/>
      <stop offset="100%" stop-color="#7a5a0a"/>
    </linearGradient>
    <radialGradient id="brushTipGrad" cx="0.5" cy="0.4" r="0.6">
      <stop offset="0%" stop-color="#5a8fc5"/>
      <stop offset="70%" stop-color="#4a7fb5"/>
      <stop offset="100%" stop-color="#2a4f75"/>
    </radialGradient>
    <filter id="watercolor" x="-10%" y="-10%" width="120%" height="120%">
      <feTurbulence type="fractalNoise" baseFrequency="0.02" numOctaves="3" result="warp"/>
      <feDisplacementMap in="SourceGraphic" in2="warp" scale="3" xChannelSelector="R" yChannelSelector="G"/>
    </filter>
    <filter id="dropGlow">
      <feGaussianBlur stdDeviation="2" result="blur"/>
      <feComposite in="SourceGraphic" in2="blur" operator="over"/>
    </filter>
  </defs>

  <g id="hair" filter="url(#watercolor)">
    <path d="M228,185 C220,180 210,178 215,190 C205,195 190,220 185,260 C180,300 178,340 182,380 C184,400 190,420 195,435 Q200,445 205,440 C200,420 195,390 194,360 C192,330 195,300 200,270 C205,240 215,215 225,200Z" fill="url(#hairGrad)" stroke="#1a1a2e" stroke-width="2" stroke-linejoin="round"/>
    <path d="M280,185 C290,180 298,178 293,192 C305,200 315,230 320,270 C325,310 322,350 318,385 C316,400 310,415 305,430 Q300,440 295,435 C300,415 305,385 306,355 C308,325 305,295 298,265 C291,235 282,210 278,198Z" fill="url(#hairGrad)" stroke="#1a1a2e" stroke-width="2" stroke-linejoin="round"/>
    <path d="M238,188 C240,200 242,230 244,270 C246,310 248,350 250,390 C251,410 252,425 254,438 Q256,448 260,445 Q264,448 266,438 C268,425 269,410 268,390 C266,350 264,310 262,270 C260,230 261,200 264,188 C258,185 244,185 238,188Z" fill="#4a7fb5" stroke="#1a1a2e" stroke-width="1.5" stroke-linejoin="round" opacity="0.85"/>
    <path d="M215,200 C208,230 200,280 196,330 Q193,370 190,400" fill="none" stroke="#3a6fa0" stroke-width="3" stroke-linecap="round" opacity="0.6"/>
    <path d="M290,200 C298,235 306,285 310,335 Q313,370 316,400" fill="none" stroke="#3a6fa0" stroke-width="3" stroke-linecap="round" opacity="0.6"/>
    <path d="M222,175 C225,160 235,152 250,150 C265,152 278,160 282,175 C278,168 268,162 255,160 C242,162 230,168 222,175Z" fill="url(#hairGrad)" stroke="#1a1a2e" stroke-width="2"/>
  </g>

  <g id="body">
    <ellipse cx="253" cy="175" rx="34" ry="38" fill="url(#skinGrad)" stroke="#1a1a2e" stroke-width="2.5"/>
    <ellipse cx="241" cy="170" rx="5.5" ry="6.5" fill="#f8f8f8" stroke="#1a1a2e" stroke-width="1.5"/>
    <ellipse cx="241" cy="167" rx="3" ry="3.5" fill="#1a1a2e"/>
    <circle cx="239.5" cy="165.5" r="1.2" fill="#fff"/>
    <ellipse cx="265" cy="170" rx="5.5" ry="6.5" fill="#f8f8f8" stroke="#1a1a2e" stroke-width="1.5"/>
    <ellipse cx="265" cy="167" rx="3" ry="3.5" fill="#1a1a2e"/>
    <circle cx="263.5" cy="165.5" r="1.2" fill="#fff"/>
    <path d="M234,160 Q240,156 248,158" fill="none" stroke="#1a1a2e" stroke-width="2" stroke-linecap="round"/>
    <path d="M259,158 Q267,156 273,160" fill="none" stroke="#1a1a2e" stroke-width="2" stroke-linecap="round"/>
    <path d="M245,183 Q253,190 261,183" fill="none" stroke="#1a1a2e" stroke-width="2" stroke-linecap="round"/>
    <path d="M247,184 Q253,188 259,184" fill="#c94c4c" opacity="0.4"/>
    <ellipse cx="235" cy="180" rx="6" ry="3" fill="#c94c4c" opacity="0.2"/>
    <ellipse cx="271" cy="180" rx="6" ry="3" fill="#c94c4c" opacity="0.2"/>
    <path d="M252,174 Q254,177 252,178" fill="none" stroke="#1a1a2e" stroke-width="1" stroke-linecap="round" opacity="0.5"/>
    <path d="M244,210 L244,218 Q253,222 262,218 L262,210" fill="url(#skinGrad)" stroke="#1a1a2e" stroke-width="2"/>
    <path d="M235,218 C232,225 230,240 232,260 Q234,275 240,285 L266,285 Q272,275 274,260 C276,240 274,225 271,218 Q253,214 235,218Z" fill="url(#skinGrad)" stroke="#1a1a2e" stroke-width="2"/>
    <path d="M232,225 C222,218 210,195 205,170 C200,150 198,130 200,110 Q201,100 205,95 L212,97 Q210,105 208,115 C206,135 208,155 213,175 C218,198 228,218 237,225Z" fill="url(#skinGrad)" stroke="#1a1a2e" stroke-width="2"/>
    <path d="M274,225 C284,218 296,195 301,170 C306,150 308,130 306,110 Q305,100 301,95 L294,97 Q296,105 298,115 C300,135 298,155 293,175 C288,198 278,218 269,225Z" fill="url(#skinGrad)" stroke="#1a1a2e" stroke-width="2"/>
    <ellipse cx="207" cy="94" rx="10" ry="9" fill="url(#skinGrad)" stroke="#1a1a2e" stroke-width="2"/>
    <path d="M200,90 Q198,86 200,83" fill="none" stroke="#1a1a2e" stroke-width="1.5" stroke-linecap="round"/>
    <path d="M204,88 Q203,84 205,81" fill="none" stroke="#1a1a2e" stroke-width="1.5" stroke-linecap="round"/>
    <ellipse cx="299" cy="94" rx="10" ry="9" fill="url(#skinGrad)" stroke="#1a1a2e" stroke-width="2"/>
    <path d="M306,90 Q308,86 306,83" fill="none" stroke="#1a1a2e" stroke-width="1.5" stroke-linecap="round"/>
    <path d="M302,88 Q303,84 301,81" fill="none" stroke="#1a1a2e" stroke-width="1.5" stroke-linecap="round"/>
    <path d="M240,368 C238,385 234,410 230,435 C228,450 226,465 225,475 Q224,482 226,486 C228,488 232,486 233,482 C234,475 235,465 237,450 C240,430 243,405 245,385Z" fill="url(#skinGrad)" stroke="#1a1a2e" stroke-width="2"/>
    <path d="M225,475 Q222,482 220,488 Q219,492 222,494 C225,496 230,494 232,490 Q234,486 233,482 C232,484 228,486 225,485Z" fill="url(#skinGrad)" stroke="#1a1a2e" stroke-width="2"/>
    <circle cx="224" cy="489" r="2" fill="#1a1a2e" opacity="0.4"/>
    <circle cx="228" cy="491" r="1.5" fill="#4a7fb5" opacity="0.5"/>
    <ellipse cx="222" cy="492" rx="1.8" ry="1" fill="#1a1a2e" opacity="0.3"/>
    <path d="M266,368 C268,385 272,410 276,435 C278,450 280,465 281,475 Q282,482 280,486 C278,488 274,486 273,482 C272,475 271,465 269,450 C266,430 263,405 261,385Z" fill="url(#skinGrad)" stroke="#1a1a2e" stroke-width="2"/>
    <path d="M281,475 Q284,482 286,488 Q287,492 284,494 C281,496 276,494 274,490 Q272,486 273,482 C274,484 278,486 281,485Z" fill="url(#skinGrad)" stroke="#1a1a2e" stroke-width="2"/>
    <circle cx="283" cy="490" r="1.8" fill="#1a1a2e" opacity="0.35"/>
    <circle cx="279" cy="492" r="1.3" fill="#4a7fb5" opacity="0.45"/>
    <ellipse cx="285" cy="493" rx="1.5" ry="1" fill="#1a1a2e" opacity="0.3"/>
  </g>

  <g id="dress" filter="url(#watercolor)">
    <path d="M233,218 C228,225 224,240 222,260 C220,280 218,300 216,320 C214,340 210,355 204,365 Q198,372 200,368 C208,358 214,345 218,325 Q210,345 205,358 C200,368 196,375 192,378 Q188,380 190,376 C200,365 210,340 215,315 C220,290 224,265 228,245 Q232,230 235,220 Q253,216 271,220 Q274,230 278,245 C282,265 286,290 291,315 C296,340 306,365 316,376 Q318,380 314,378 C310,375 306,368 301,358 Q296,345 288,325 C292,345 298,358 302,368 Q306,375 308,368 C302,358 296,340 294,320 C292,300 290,280 288,260 C286,240 282,225 277,218 Q253,214 233,218Z" fill="url(#dressGrad)" stroke="#1a1a2e" stroke-width="2.5" stroke-linejoin="round"/>
    <path d="M245,230 C243,250 240,280 238,310 Q236,330 232,345" fill="none" stroke="#1a1a2e" stroke-width="1" stroke-linecap="round" opacity="0.3"/>
    <path d="M261,230 C263,250 266,280 268,310 Q270,330 274,345" fill="none" stroke="#1a1a2e" stroke-width="1" stroke-linecap="round" opacity="0.3"/>
    <path d="M253,225 C253,250 253,280 253,320 Q253,340 253,355" fill="none" stroke="#1a1a2e" stroke-width="0.8" stroke-linecap="round" opacity="0.25"/>
    <path d="M204,365 Q200,370 196,373" fill="none" stroke="#1a1a2e" stroke-width="1.5" stroke-linecap="round" opacity="0.4"/>
    <path d="M302,365 Q306,370 310,373" fill="none" stroke="#1a1a2e" stroke-width="1.5" stroke-linecap="round" opacity="0.4"/>
    <ellipse cx="248" cy="300" rx="8" ry="12" fill="#4a7fb5" opacity="0.06"/>
    <ellipse cx="262" cy="280" rx="6" ry="10" fill="#4a7fb5" opacity="0.05"/>
  </g>

  <g id="brush">
    <path d="M205,92 L301,92" stroke="#1a1a2e" stroke-width="9" stroke-linecap="round" opacity="0.15"/>
    <path d="M205,92 L301,92" stroke="url(#brushHandleGrad)" stroke-width="7" stroke-linecap="round"/>
    <path d="M220,90 L240,90" stroke="#7a5a0a" stroke-width="0.5" opacity="0.4" fill="none"/>
    <path d="M250,94 L275,94" stroke="#7a5a0a" stroke-width="0.5" opacity="0.35" fill="none"/>
    <path d="M260,90 L290,90" stroke="#9a7a24" stroke-width="0.5" opacity="0.3" fill="none"/>
    <rect x="296" y="86" width="8" height="12" rx="1" fill="#b0b0b0" stroke="#1a1a2e" stroke-width="1.5"/>
    <line x1="298" y1="87" x2="298" y2="97" stroke="#d0d0d0" stroke-width="0.5" opacity="0.5"/>
    <path d="M304,88 C310,86 320,82 330,76 C340,70 348,62 352,55 Q356,48 353,44 C350,40 344,42 338,48 C330,56 322,66 316,76 C312,82 308,86 304,98 Q302,92 304,88Z" fill="url(#brushTipGrad)" stroke="#1a1a2e" stroke-width="2" stroke-linejoin="round"/>
    <path d="M320,72 C326,66 332,58 336,52" fill="none" stroke="#6aafdf" stroke-width="2" stroke-linecap="round" opacity="0.4"/>
    <path d="M348,50 C352,46 354,42 350,44" fill="none" stroke="#2a4f75" stroke-width="2.5" stroke-linecap="round" opacity="0.7"/>
  </g>

  <g id="effects">
    <circle cx="350" cy="62" r="4" fill="#4a7fb5" opacity="0.7" filter="url(#dropGlow)"/>
    <circle cx="345" cy="78" r="3" fill="#4a7fb5" opacity="0.55"/>
    <circle cx="355" cy="90" r="2.5" fill="#3a6fa0" opacity="0.45"/>
    <circle cx="340" cy="100" r="2" fill="#4a7fb5" opacity="0.35"/>
    <circle cx="352" cy="108" r="1.5" fill="#3a6fa0" opacity="0.25"/>
    <circle cx="358" cy="55" r="1" fill="#1a1a2e" opacity="0.5"/>
    <circle cx="354" cy="48" r="0.8" fill="#1a1a2e" opacity="0.4"/>
    <circle cx="342" cy="72" r="1.2" fill="#2a4f75" opacity="0.4"/>
    <line x1="195" y1="420" x2="195" y2="460" stroke="#1a1a2e" stroke-width="1" opacity="0.15" stroke-linecap="round"/>
    <line x1="180" y1="430" x2="180" y2="465" stroke="#1a1a2e" stroke-width="0.8" opacity="0.1" stroke-linecap="round"/>
    <line x1="315" y1="425" x2="315" y2="460" stroke="#1a1a2e" stroke-width="1" opacity="0.15" stroke-linecap="round"/>
    <line x1="330" y1="435" x2="330" y2="465" stroke="#1a1a2e" stroke-width="0.8" opacity="0.1" stroke-linecap="round"/>
    <circle cx="170" cy="250" r="2" fill="#4a7fb5" opacity="0.3"/>
    <circle cx="340" cy="230" r="1.5" fill="#4a7fb5" opacity="0.25"/>
    <circle cx="160" cy="320" r="1.8" fill="#1a1a2e" opacity="0.2"/>
    <circle cx="350" cy="300" r="1.3" fill="#4a7fb5" opacity="0.2"/>
    <ellipse cx="200" cy="100" rx="40" ry="30" fill="#fff" opacity="0.05"/>
    <ellipse cx="253" cy="500" rx="30" ry="5" fill="#4a7fb5" opacity="0.1"/>
    <ellipse cx="253" cy="502" rx="20" ry="3" fill="#1a1a2e" opacity="0.08"/>
  </g>
</svg>