<svg xmlns="http://www.w3.org/2000/svg" width="400" height="300" viewBox="0 0 400 300">
  <defs>
    <!-- Deep ocean background -->
    <linearGradient id="tbg" x1="0" y1="0" x2="0" y2="1">
      <stop offset="0%" stop-color="#0A2E4D"/>
      <stop offset="40%" stop-color="#071E35"/>
      <stop offset="70%" stop-color="#051528"/>
      <stop offset="100%" stop-color="#040D21"/>
    </linearGradient>
    <!-- Light beam -->
    <linearGradient id="tbeam" x1="0" y1="0" x2="0" y2="1">
      <stop offset="0%" stop-color="#87CEEB" stop-opacity="0.2"/>
      <stop offset="100%" stop-color="#87CEEB" stop-opacity="0"/>
    </linearGradient>
    <!-- Diver suit gradient -->
    <linearGradient id="tsuit" x1="0" y1="0" x2="1" y2="1">
      <stop offset="0%" stop-color="#1A5276"/>
      <stop offset="100%" stop-color="#0E3A5C"/>
    </linearGradient>
    <!-- Helmet gradient -->
    <radialGradient id="thelmet" cx="0.4" cy="0.3" r="0.6">
      <stop offset="0%" stop-color="#2E86C1"/>
      <stop offset="100%" stop-color="#1B4F72"/>
    </radialGradient>
    <!-- Visor glow -->
    <radialGradient id="tvisor" cx="0.5" cy="0.4" r="0.5">
      <stop offset="0%" stop-color="#00FFE5"/>
      <stop offset="60%" stop-color="#00B8A9"/>
      <stop offset="100%" stop-color="#005F56"/>
    </radialGradient>
    <!-- Anglerfish gradient -->
    <radialGradient id="tanglerGrad" cx="0.4" cy="0.4" r="0.6">
      <stop offset="0%" stop-color="#2D1B4E"/>
      <stop offset="100%" stop-color="#0D0520"/>
    </radialGradient>
    <!-- Lure glow -->
    <radialGradient id="tlureGlow" cx="0.5" cy="0.5" r="0.5">
      <stop offset="0%" stop-color="#00FFE5" stop-opacity="1"/>
      <stop offset="40%" stop-color="#00FFE5" stop-opacity="0.5"/>
      <stop offset="100%" stop-color="#9B59FF" stop-opacity="0"/>
    </radialGradient>
    <!-- Angler eye glow -->
    <radialGradient id="teyeGlow" cx="0.5" cy="0.5" r="0.5">
      <stop offset="0%" stop-color="#FF6B35"/>
      <stop offset="100%" stop-color="#6A0DAD"/>
    </radialGradient>
    <!-- Title text gradient -->
    <linearGradient id="titleGrad" x1="0" y1="0" x2="0" y2="1">
      <stop offset="0%" stop-color="#00FFE5"/>
      <stop offset="50%" stop-color="#00B8A9"/>
      <stop offset="100%" stop-color="#005F56"/>
    </linearGradient>
    <!-- Title glow -->
    <filter id="titleGlow" x="-10%" y="-10%" width="120%" height="120%">
      <feGaussianBlur in="SourceGraphic" stdDeviation="2" result="blur"/>
      <feMerge><feMergeNode in="blur"/><feMergeNode in="SourceGraphic"/></feMerge>
    </filter>
    <!-- General glow -->
    <filter id="tglow" x="-50%" y="-50%" width="200%" height="200%">
      <feGaussianBlur in="SourceGraphic" stdDeviation="3" result="blur"/>
      <feMerge><feMergeNode in="blur"/><feMergeNode in="SourceGraphic"/></feMerge>
    </filter>
    <!-- Big glow -->
    <filter id="tbigGlow" x="-80%" y="-80%" width="260%" height="260%">
      <feGaussianBlur in="SourceGraphic" stdDeviation="6" result="blur"/>
      <feMerge><feMergeNode in="blur"/><feMergeNode in="SourceGraphic"/></feMerge>
    </filter>
    <!-- Shadow -->
    <filter id="tshadow" x="-20%" y="-20%" width="140%" height="140%">
      <feDropShadow dx="1" dy="2" stdDeviation="2" flood-color="#040D21" flood-opacity="0.7"/>
    </filter>
    <!-- Haze gradients -->
    <radialGradient id="thaze1" cx="0.3" cy="0.5" r="0.5">
      <stop offset="0%" stop-color="#9B59FF" stop-opacity="0.1"/>
      <stop offset="100%" stop-color="#9B59FF" stop-opacity="0"/>
    </radialGradient>
    <radialGradient id="thaze2" cx="0.7" cy="0.4" r="0.4">
      <stop offset="0%" stop-color="#00FFE5" stop-opacity="0.08"/>
      <stop offset="100%" stop-color="#00FFE5" stop-opacity="0"/>
    </radialGradient>
    <!-- Terrain gradient -->
    <linearGradient id="tterrain" x1="0" y1="0" x2="0" y2="1">
      <stop offset="0%" stop-color="#0A2E4D" stop-opacity="0.7"/>
      <stop offset="100%" stop-color="#040D21"/>
    </linearGradient>
    <!-- Coral gradient -->
    <linearGradient id="tcoral" x1="0" y1="0" x2="0" y2="1">
      <stop offset="0%" stop-color="#FF7EB3" stop-opacity="0.5"/>
      <stop offset="100%" stop-color="#0A2E4D" stop-opacity="0.7"/>
    </linearGradient>
    <!-- Bubble gradient -->
    <radialGradient id="tbubble" cx="0.35" cy="0.3" r="0.5">
      <stop offset="0%" stop-color="#FFFFFF" stop-opacity="0.5"/>
      <stop offset="100%" stop-color="#87CEEB" stop-opacity="0.1"/>
    </radialGradient>
    <!-- Subtitle gradient -->
    <linearGradient id="subGrad" x1="0" y1="0" x2="1" y2="0">
      <stop offset="0%" stop-color="#FFD700"/>
      <stop offset="50%" stop-color="#FFFFFF"/>
      <stop offset="100%" stop-color="#FFD700"/>
    </linearGradient>
    <!-- Aura behind diver -->
    <radialGradient id="diverAura" cx="0.5" cy="0.5" r="0.5">
      <stop offset="0%" stop-color="#00FFE5" stop-opacity="0.2"/>
      <stop offset="100%" stop-color="#00FFE5" stop-opacity="0"/>
    </radialGradient>
    <!-- Danger aura behind angler -->
    <radialGradient id="anglerAura" cx="0.5" cy="0.5" r="0.5">
      <stop offset="0%" stop-color="#9B59FF" stop-opacity="0.2"/>
      <stop offset="100%" stop-color="#9B59FF" stop-opacity="0"/>
    </radialGradient>
    <!-- Bottom vignette -->
    <linearGradient id="bottomVig" x1="0" y1="0" x2="0" y2="1">
      <stop offset="0%" stop-color="#040D21" stop-opacity="0"/>
      <stop offset="100%" stop-color="#040D21" stop-opacity="0.8"/>
    </linearGradient>
  </defs>

  <!-- Background -->
  <rect width="400" height="300" fill="url(#tbg)"/>

  <!-- Underwater hazes -->
  <rect width="400" height="300" fill="url(#thaze1)"/>
  <rect width="400" height="300" fill="url(#thaze2)"/>

  <!-- Light beams from surface -->
  <g opacity="0.25">
    <polygon points="60,0 90,0 140,300 110,300" fill="url(#tbeam)"/>
    <polygon points="180,0 200,0 240,300 220,300" fill="url(#tbeam)"/>
    <polygon points="300,0 318,0 345,300 327,300" fill="url(#tbeam)"/>
  </g>

  <!-- Distant terrain -->
  <path d="M0,200 C40,190 80,185 120,188 C160,192 200,180 240,184 C280,188 320,175 360,180 C380,182 400,185 400,188 L400,300 L0,300 Z" fill="url(#tterrain)" opacity="0.4"/>

  <!-- Distant ruins silhouettes -->
  <g opacity="0.2">
    <rect x="50" y="170" width="8" height="30" fill="#071E35"/>
    <path d="M46,170 L54,158 L62,170" fill="#071E35"/>
    <rect x="340" y="165" width="10" height="35" fill="#071E35"/>
    <path d="M336,165 L345,152 L354,165" fill="#071E35"/>
    <!-- Broken arch -->
    <path d="M160,195 C165,180 175,172 185,172 C195,172 205,180 210,195" fill="none" stroke="#071E35" stroke-width="4" opacity="0.3"/>
  </g>

  <!-- Seabed terrain -->
  <path d="M0,240 C30,235 70,230 110,232 C150,234 180,225 220,228 C260,230 300,220 340,224 C370,226 400,230 400,232 L400,300 L0,300 Z" fill="#0A1E2D"/>
  <path d="M0,260 C50,255 100,258 150,254 C200,250 250,256 300,252 C350,248 400,254 400,256 L400,300 L0,300 Z" fill="#071520"/>

  <!-- Coral formations -->
  <g opacity="0.7">
    <!-- Left coral -->
    <path d="M20,240 C18,220 15,200 12,185 C10,178 14,174 18,180 C20,175 24,168 28,170 C30,172 28,180 25,188" fill="url(#tcoral)" stroke="#FF7EB3" stroke-width="0.5"/>
    <circle cx="12" cy="185" r="3" fill="#FF7EB3" opacity="0.4"/>
    <circle cx="28" cy="170" r="2.5" fill="#FF7EB3" opacity="0.3"/>
    <!-- Right coral -->
    <path d="M370,230 C368,210 372,195 375,182 C378,174 382,172 384,178 C386,174 390,168 394,172 C396,175 394,185 390,195" fill="url(#tcoral)" stroke="#9B59FF" stroke-width="0.5"/>
    <circle cx="375" cy="182" r="2.5" fill="#9B59FF" opacity="0.4"/>
    <circle cx="394" cy="172" r="2" fill="#9B59FF" opacity="0.3"/>
  </g>

  <!-- Kelp -->
  <g opacity="0.5">
    <path d="M60,255 C58,230 62,210 56,190 C50,170 58,155 54,140" stroke="#00B8A9" stroke-width="3" fill="none" stroke-linecap="round" opacity="0.4"/>
    <path d="M75,252 C77,230 73,215 77,195 C81,175 75,160 79,145" stroke="#00B8A9" stroke-width="2.5" fill="none" stroke-linecap="round" opacity="0.35"/>
    <path d="M340,235 C338,215 342,200 336,185" stroke="#00B8A9" stroke-width="2.5" fill="none" stroke-linecap="round" opacity="0.35"/>
  </g>

  <!-- Rocks -->
  <g opacity="0.6">
    <ellipse cx="100" cy="260" rx="12" ry="5" fill="#1A3A4D"/>
    <ellipse cx="300" cy="255" rx="10" ry="4" fill="#1A3A4D"/>
    <ellipse cx="220" cy="262" rx="8" ry="3" fill="#1A3A4D"/>
  </g>

  <!-- Rune stones -->
  <g opacity="0.4">
    <rect x="135" y="240" width="8" height="14" rx="1" fill="#0A2E4D" stroke="#1A5276" stroke-width="0.3"/>
    <text x="139" y="252" text-anchor="middle" font-family="system-ui" font-size="6" fill="#00FFE5" opacity="0.5">ᚱ</text>
    <rect x="265" y="238" width="7" height="12" rx="1" fill="#0A2E4D" stroke="#1A5276" stroke-width="0.3"/>
    <text x="268.5" y="248" text-anchor="middle" font-family="system-ui" font-size="5" fill="#9B59FF" opacity="0.4">ᛊ</text>
  </g>

  <!-- ANGLERFISH (right side, threatening) -->
  <g filter="url(#tshadow)">
    <!-- Danger aura -->
    <ellipse cx="310" cy="130" rx="70" ry="55" fill="url(#anglerAura)"/>
    <!-- Body -->
    <ellipse cx="310" cy="130" rx="50" ry="35" fill="url(#tanglerGrad)" stroke="#4A2D6E" stroke-width="0.5"/>
    <!-- Belly -->
    <ellipse cx="305" cy="140" rx="35" ry="20" fill="#2D1B4E" opacity="0.4"/>
    <!-- Body spots -->
    <circle cx="320" cy="120" r="2" fill="#4A2D6E" opacity="0.4"/>
    <circle cx="335" cy="128" r="1.8" fill="#4A2D6E" opacity="0.3"/>
    <circle cx="328" cy="140" r="1.5" fill="#9B59FF" opacity="0.1"/>
    <!-- Dorsal fins -->
    <path d="M290,98 C292,85 298,80 302,84 C300,90 298,96 296,100" fill="#9B59FF" opacity="0.4"/>
    <path d="M305,94 C307,82 312,76 316,80 C314,86 311,93 309,97" fill="#9B59FF" opacity="0.35"/>
    <path d="M320,96 C322,86 326,82 328,86 C326,90 324,96 322,100" fill="#9B59FF" opacity="0.3"/>
    <!-- Ventral fins -->
    <path d="M295,160 C292,170 288,174 286,172 C288,168 290,162 293,158" fill="#9B59FF" opacity="0.3"/>
    <path d="M315,162 C314,172 310,176 308,174 C310,170 313,164 314,160" fill="#9B59FF" opacity="0.25"/>
    <!-- Tail -->
    <path d="M355,128 C365,122 375,116 380,108 C378,115 376,122 370,126 C376,130 378,138 380,148 C375,140 365,134 355,130" fill="#9B59FF" opacity="0.4"/>
    <!-- Jaw & teeth -->
    <ellipse cx="268" cy="130" rx="12" ry="8" fill="#0D0520"/>
    <path d="M258,125 L260,130 L262,125 L264,130 L266,125 L268,130 L270,125 L272,130 L274,125 L276,130" stroke="#E8E8E8" stroke-width="1" fill="none"/>
    <path d="M258,135 L260,130 L262,135 L264,130 L266,135 L268,130 L270,135 L272,130 L274,135 L276,130" stroke="#E8E8E8" stroke-width="1" fill="none"/>
    <!-- Eye -->
    <ellipse cx="285" cy="118" rx="8" ry="7" fill="#0D0520"/>
    <ellipse cx="285" cy="118" rx="6" ry="5.5" fill="url(#teyeGlow)"/>
    <ellipse cx="283" cy="118" rx="2.5" ry="4" fill="#0D0520"/>
    <circle cx="287" cy="115" r="1.5" fill="#FFFFFF" opacity="0.6"/>
    <!-- Lure -->
    <path d="M280,104 C270,85 258,68 252,55" stroke="#4A2D6E" stroke-width="1.5" fill="none"/>
    <circle cx="252" cy="55" r="10" fill="url(#tlureGlow)" filter="url(#tbigGlow)"/>
    <circle cx="252" cy="55" r="5" fill="#00FFE5" opacity="0.8"/>
    <circle cx="252" cy="55" r="2.5" fill="#FFFFFF" opacity="0.9"/>
    <!-- Lure tendrils -->
    <path d="M246,62 C244,68 242,72 240,70" stroke="#00FFE5" stroke-width="0.5" fill="none" opacity="0.4"/>
    <path d="M252,64 C252,70 250,74 248,72" stroke="#00FFE5" stroke-width="0.5" fill="none" opacity="0.4"/>
    <path d="M258,62 C260,68 260,72 258,72" stroke="#00FFE5" stroke-width="0.5" fill="none" opacity="0.4"/>
    <!-- Bio spots on body -->
    <circle cx="300" cy="125" r="1" fill="#9B59FF" opacity="0.5" filter="url(#tglow)"/>
    <circle cx="320" cy="135" r="0.8" fill="#9B59FF" opacity="0.4" filter="url(#tglow)"/>
    <circle cx="340" cy="125" r="0.8" fill="#00FFE5" opacity="0.3" filter="url(#tglow)"/>
  </g>

  <!-- DIVER (left side, heroic pose) -->
  <g filter="url(#tshadow)">
    <!-- Diver aura -->
    <ellipse cx="120" cy="130" rx="45" ry="50" fill="url(#diverAura)"/>
    <!-- Oxygen tanks -->
    <rect x="140" y="115" width="7" height="22" rx="3.5" fill="#5DADE2" stroke="#1B4F72" stroke-width="0.5" opacity="0.8"/>
    <rect x="145" y="118" width="6" height="18" rx="3" fill="#5DADE2" stroke="#1B4F72" stroke-width="0.5" opacity="0.7"/>
    <!-- Body -->
    <path d="M102,118 C98,122 96,130 96,138 C96,148 100,156 106,160 L112,162 L132,162 L138,160 C142,156 144,148 144,140 C144,130 140,122 136,118 Z" fill="url(#tsuit)" stroke="#1A5276" stroke-width="0.5"/>
    <!-- Chest plate -->
    <path d="M108,122 C110,120 116,118 120,118 C124,118 130,120 132,122 L130,138 C128,140 125,141 120,141 C115,141 112,140 110,138 Z" fill="#0E3A5C" opacity="0.7"/>
    <!-- Chest light -->
    <ellipse cx="120" cy="128" rx="3" ry="2" fill="#00FFE5" opacity="0.9" filter="url(#tglow)"/>
    <ellipse cx="120" cy="128" rx="1.5" ry="1" fill="#FFFFFF" opacity="0.8"/>
    <!-- Belt -->
    <rect x="100" y="152" width="30" height="4" rx="1.5" fill="#1B4F72"/>
    <rect x="112" y="151" width="7" height="6" rx="1" fill="#FFD700" stroke="#B7950B" stroke-width="0.3"/>
    <!-- Arms -->
    <path d="M98,122 C92,126 86,132 84,140 C83,144 85,146 88,145 L94,140" fill="url(#tsuit)" stroke="#1A5276" stroke-width="0.5"/>
    <ellipse cx="86" cy="142" rx="4" ry="3" fill="#1B4F72"/>
    <!-- Right arm with tool -->
    <path d="M140,122 C144,126 148,130 150,136 C151,140 149,142 146,141 L142,138" fill="url(#tsuit)" stroke="#1A5276" stroke-width="0.5"/>
    <!-- Sonar device in hand -->
    <rect x="148" y="132" width="6" height="3" rx="0.5" fill="#FFD700" opacity="0.8"/>
    <circle cx="155" cy="133.5" r="2" fill="#00FFE5" opacity="0.7" filter="url(#tglow)"/>
    <!-- Sonar wave -->
    <path d="M158,130 C162,128 164,134 162,138" stroke="#00FFE5" stroke-width="0.6" fill="none" opacity="0.5"/>
    <path d="M162,128 C167,125 170,135 167,140" stroke="#00FFE5" stroke-width="0.4" fill="none" opacity="0.3"/>
    <!-- Legs -->
    <path d="M108,160 C106,168 104,176 102,182 C101,185 102,188 106,188 L110,186" fill="url(#tsuit)" stroke="#1A5276" stroke-width="0.5"/>
    <path d="M130,160 C132,168 134,176 136,182 C137,185 136,188 132,188 L128,186" fill="url(#tsuit)" stroke="#1A5276" stroke-width="0.5"/>
    <!-- Flippers -->
    <path d="M102,182 C96,188 90,192 86,190 C84,189 86,186 90,184 L102,182" fill="#9B59FF" opacity="0.5"/>
    <path d="M136,182 C142,188 148,192 152,190 C154,189 152,186 148,184 L136,182" fill="#9B59FF" opacity="0.5"/>
    <!-- Helmet -->
    <ellipse cx="118" cy="106" rx="16" ry="14" fill="url(#thelmet)" stroke="#1B4F72" stroke-width="0.8"/>
    <ellipse cx="118" cy="114" rx="14" ry="3" fill="#1B4F72"/>
    <!-- Visor -->
    <ellipse cx="115" cy="104" rx="10" ry="8" fill="url(#tvisor)" stroke="#00B8A9" stroke-width="0.8"/>
    <!-- Visor reflection -->
    <path d="M108,100 C110,97 114,96 118,97" stroke="#FFFFFF" stroke-width="0.8" fill="none" opacity="0.4"/>
    <ellipse cx="110" cy="99" rx="2" ry="1.5" fill="#FFFFFF" opacity="0.2"/>
    <!-- Eyes -->
    <ellipse cx="112" cy="104" rx="2.5" ry="2" fill="#FFFFFF" opacity="0.9"/>
    <ellipse cx="120" cy="104" rx="2.5" ry="2" fill="#FFFFFF" opacity="0.9"/>
    <circle cx="113" cy="104" r="1.5" fill="#040D21"/>
    <circle cx="121" cy="104" r="1.5" fill="#040D21"/>
    <circle cx="113.3" cy="103.5" r="0.5" fill="#00FFE5"/>
    <circle cx="121.3" cy="103.5" r="0.5" fill="#00FFE5"/>
    <!-- Antenna -->
    <line x1="128" y1="94" x2="134" y2="86" stroke="#2E86C1" stroke-width="1.2" stroke-linecap="round"/>
    <circle cx="135" cy="85" r="2.5" fill="#00FFE5" opacity="0.9" filter="url(#tglow)"/>
    <circle cx="135" cy="85" r="1.2" fill="#FFFFFF" opacity="0.8"/>
    <!-- Helmet bolts -->
    <circle cx="103" cy="106" r="1" fill="#5DADE2"/>
    <circle cx="133" cy="106" r="1" fill="#5DADE2"/>
    <!-- Breathing tube -->
    <path d="M130,108 C136,110 140,114 138,120" stroke="#5DADE2" stroke-width="1.5" fill="none"/>
  </g>

  <!-- Diver bubbles -->
  <g>
    <circle cx="135" cy="85" r="2.5" fill="url(#tbubble)" stroke="#87CEEB" stroke-width="0.2"/>
    <circle cx="140" cy="75" r="2" fill="url(#tbubble)" stroke="#87CEEB" stroke-width="0.2"/>
    <circle cx="138" cy="65" r="1.5" fill="url(#tbubble)" stroke="#87CEEB" stroke-width="0.2"/>
    <circle cx="143" cy="58" r="1" fill="url(#tbubble)" stroke="#87CEEB" stroke-width="0.1"/>
    <circle cx="132" cy="70" r="1" fill="url(#tbubble)" stroke="#87CEEB" stroke-width="0.1"/>
  </g>

  <!-- Bioluminescent particles scattered -->
  <g>
    <circle cx="30" cy="40" r="1" fill="#00FFE5" opacity="0.4"/>
    <circle cx="70" cy="60" r="0.8" fill="#9B59FF" opacity="0.3"/>
    <circle cx="180" cy="30" r="1.2" fill="#00FFE5" opacity="0.35"/>
    <circle cx="200" cy="80" r="0.8" fill="#9B59FF" opacity="0.25"/>
    <circle cx="350" cy="50" r="1" fill="#00FFE5" opacity="0.4"/>
    <circle cx="380" cy="85" r="0.8" fill="#FF7EB3" opacity="0.2"/>
    <circle cx="20" cy="120" r="1" fill="#00FFE5" opacity="0.3"/>
    <circle cx="50" cy="180" r="0.8" fill="#9B59FF" opacity="0.25"/>
    <circle cx="190" cy="160" r="1" fill="#00FFE5" opacity="0.3"/>
    <circle cx="380" cy="180" r="0.8" fill="#00FFE5" opacity="0.3"/>
    <circle cx="15" cy="200" r="1" fill="#9B59FF" opacity="0.2"/>
    <circle cx="230" cy="200" r="1.2" fill="#00FFE5" opacity="0.3"/>
    <circle cx="170" cy="100" r="0.6" fill="#FF7EB3" opacity="0.2"/>
    <circle cx="320" cy="190" r="0.8" fill="#00FFE5" opacity="0.25"/>
    <!-- Extra particles for density -->
    <circle cx="90" cy="100" r="0.6" fill="#00FFE5" opacity="0.3"/>
    <circle cx="250" cy="120" r="0.8" fill="#9B59FF" opacity="0.2"/>
    <circle cx="150" cy="60" r="0.7" fill="#00FFE5" opacity="0.35"/>
    <circle cx="310" cy="80" r="0.6" fill="#FF7EB3" opacity="0.15"/>
    <circle cx="40" cy="150" r="0.8" fill="#00FFE5" opacity="0.25"/>
    <circle cx="370" cy="140" r="0.7" fill="#9B59FF" opacity="0.2"/>
  </g>

  <!-- Floating marine debris -->
  <g opacity="0.15">
    <ellipse cx="175" cy="170" rx="3" ry="1" fill="#87CEEB" transform="rotate(15,175,170)"/>
    <ellipse cx="280" cy="200" rx="2" ry="0.8" fill="#87CEEB" transform="rotate(-20,280,200)"/>
  </g>

  <!-- Confrontation energy between diver and angler -->
  <g opacity="0.15">
    <path d="M160,130 C180,128 200,132 220,128 C240,124 260,130 268,130" stroke="#00FFE5" stroke-width="0.8" fill="none" stroke-dasharray="4,3"/>
    <path d="M160,135 C180,138 200,132 220,136 C240,140 260,134 268,134" stroke="#9B59FF" stroke-width="0.6" fill="none" stroke-dasharray="3,4"/>
  </g>

  <!-- Thermal vent glow in background -->
  <g opacity="0.15">
    <ellipse cx="200" cy="245" rx="8" ry="15" fill="#FF6B35"/>
    <circle cx="200" cy="242" r="3" fill="#FF6B35" opacity="0.3"/>
    <circle cx="200" cy="235" r="2" fill="#FF6B35" opacity="0.15"/>
  </g>

  <!-- Sea anemone tentacles -->
  <g opacity="0.3">
    <path d="M155,255 C153,242 156,235 158,230" stroke="#FF7EB3" stroke-width="1" fill="none"/>
    <path d="M160,254 C162,243 159,237 161,232" stroke="#FF7EB3" stroke-width="1" fill="none"/>
    <path d="M165,255 C164,244 167,238 166,233" stroke="#FF7EB3" stroke-width="1" fill="none"/>
    <ellipse cx="160" cy="256" rx="8" ry="3" fill="#FF7EB3" opacity="0.3"/>
  </g>

  <!-- Rain of ancient rune particles -->
  <g opacity="0.1">
    <text x="200" y="110" text-anchor="middle" font-family="system-ui" font-size="8" fill="#00FFE5">ᚨ</text>
    <text x="210" y="200" text-anchor="middle" font-family="system-ui" font-size="6" fill="#9B59FF">ᛉ</text>
  </g>

  <!-- Bottom vignette for text area -->
  <rect x="0" y="220" width="400" height="80" fill="url(#bottomVig)"/>

  <!-- Title text with glow -->
  <g filter="url(#titleGlow)">
    <text x="200" y="268" text-anchor="middle" font-family="system-ui,sans-serif" font-size="30" font-weight="bold" fill="url(#titleGrad)" stroke="#005F56" stroke-width="0.5">ABYSS DIVER</text>
  </g>

  <!-- Korean subtitle -->
  <text x="200" y="288" text-anchor="middle" font-family="system-ui,sans-serif" font-size="12" fill="url(#subGrad)" opacity="0.7">어비스 다이버 — 심해의 비밀을 밝혀라</text>

  <!-- Decorative line under title -->
  <line x1="100" y1="274" x2="300" y2="274" stroke="#00FFE5" stroke-width="0.5" opacity="0.3"/>

  <!-- Corner decoration -->
  <g opacity="0.3">
    <!-- Top-left corner -->
    <path d="M5,5 L5,20 M5,5 L20,5" stroke="#00FFE5" stroke-width="1" fill="none"/>
    <!-- Top-right corner -->
    <path d="M395,5 L395,20 M395,5 L380,5" stroke="#00FFE5" stroke-width="1" fill="none"/>
    <!-- Bottom-left corner -->
    <path d="M5,295 L5,280 M5,295 L20,295" stroke="#00FFE5" stroke-width="1" fill="none"/>
    <!-- Bottom-right corner -->
    <path d="M395,295 L395,280 M395,295 L380,295" stroke="#00FFE5" stroke-width="1" fill="none"/>
  </g>

  <!-- Depth meter UI element (top-right) -->
  <g opacity="0.4">
    <rect x="365" y="10" width="25" height="80" rx="3" fill="none" stroke="#00FFE5" stroke-width="0.5"/>
    <rect x="368" y="45" width="19" height="42" rx="1" fill="#00FFE5" opacity="0.15"/>
    <text x="377.5" y="22" text-anchor="middle" font-family="system-ui" font-size="5" fill="#00FFE5">DEPTH</text>
    <line x1="368" y1="30" x2="387" y2="30" stroke="#00FFE5" stroke-width="0.3"/>
    <line x1="368" y1="45" x2="387" y2="45" stroke="#00FFE5" stroke-width="0.3"/>
    <line x1="368" y1="60" x2="387" y2="60" stroke="#00FFE5" stroke-width="0.3"/>
    <line x1="368" y1="75" x2="387" y2="75" stroke="#00FFE5" stroke-width="0.3"/>
    <text x="377.5" y="40" text-anchor="middle" font-family="system-ui" font-size="4" fill="#87CEEB">100m</text>
    <text x="377.5" y="55" text-anchor="middle" font-family="system-ui" font-size="4" fill="#87CEEB">500m</text>
    <text x="377.5" y="70" text-anchor="middle" font-family="system-ui" font-size="4" fill="#87CEEB">1km</text>
    <text x="377.5" y="84" text-anchor="middle" font-family="system-ui" font-size="4" fill="#FF6B35">5km</text>
  </g>

  <!-- O₂ gauge (top-left) -->
  <g opacity="0.35">
    <rect x="10" y="10" width="50" height="14" rx="3" fill="none" stroke="#87CEEB" stroke-width="0.5"/>
    <rect x="12" y="12" width="35" height="10" rx="1.5" fill="#00FFE5" opacity="0.2"/>
    <text x="55" y="20" font-family="system-ui" font-size="6" fill="#87CEEB">O₂</text>
  </g>

  <!-- Grain/noise texture overlay -->
  <g opacity="0.03">
    <line x1="0" y1="0" x2="400" y2="300" stroke="#FFFFFF" stroke-width="0.5"/>
    <line x1="50" y1="0" x2="350" y2="300" stroke="#FFFFFF" stroke-width="0.3"/>
    <line x1="100" y1="0" x2="300" y2="300" stroke="#FFFFFF" stroke-width="0.3"/>
    <line x1="200" y1="0" x2="200" y2="300" stroke="#FFFFFF" stroke-width="0.3"/>
    <line x1="400" y1="0" x2="0" y2="300" stroke="#FFFFFF" stroke-width="0.3"/>
  </g>
</svg>