<svg xmlns="http://www.w3.org/2000/svg" viewBox="0 0 512 512">
  <defs>
    <!-- Red core glow -->
    <filter id="red-glow" x="-50%" y="-50%" width="200%" height="200%">
      <feGaussianBlur in="SourceGraphic" stdDeviation="12" result="blur"/>
      <feColorMatrix in="blur" type="matrix"
        values="1 0 0 0 0.2
                0 0 0 0 0
                0 0 0 0 0
                0 0 0 1 0" result="redBlur"/>
      <feMerge>
        <feMergeNode in="redBlur"/>
        <feMergeNode in="SourceGraphic"/>
      </feMerge>
    </filter>
    <!-- Outer glow for energy beams -->
    <filter id="energy-glow" x="-50%" y="-50%" width="200%" height="200%">
      <feGaussianBlur in="SourceGraphic" stdDeviation="6" result="blur"/>
      <feMerge>
        <feMergeNode in="blur"/>
        <feMergeNode in="blur"/>
        <feMergeNode in="SourceGraphic"/>
      </feMerge>
    </filter>
    <!-- Subtle ambient glow -->
    <filter id="ambient-glow" x="-30%" y="-30%" width="160%" height="160%">
      <feGaussianBlur in="SourceGraphic" stdDeviation="4"/>
    </filter>
    <!-- Inner core intense glow -->
    <filter id="core-intense" x="-80%" y="-80%" width="260%" height="260%">
      <feGaussianBlur in="SourceGraphic" stdDeviation="18" result="blur"/>
      <feColorMatrix in="blur" type="matrix"
        values="1 0 0 0 0.3
                0 0.1 0 0 0
                0 0 0.1 0 0
                0 0 0 1.2 0" result="redBlur"/>
      <feMerge>
        <feMergeNode in="redBlur"/>
        <feMergeNode in="SourceGraphic"/>
      </feMerge>
    </filter>
    <!-- Radial gradient for background vignette -->
    <radialGradient id="bg-vignette" cx="50%" cy="50%" r="55%">
      <stop offset="0%" stop-color="#1a0000" stop-opacity="0"/>
      <stop offset="70%" stop-color="#0d0000" stop-opacity="0.6"/>
      <stop offset="100%" stop-color="#050000" stop-opacity="0.95"/>
    </radialGradient>
    <!-- Inner core radial -->
    <radialGradient id="core-gradient" cx="50%" cy="50%" r="50%">
      <stop offset="0%" stop-color="#ff6644"/>
      <stop offset="40%" stop-color="#ff2222"/>
      <stop offset="100%" stop-color="#cc0000"/>
    </radialGradient>
  </defs>

  <!-- Background -->
  <rect width="512" height="512" fill="#0a0a12"/>
  <rect width="512" height="512" fill="url(#bg-vignette)"/>

  <!-- Ambient red haze -->
  <circle cx="256" cy="256" r="180" fill="#ff2222" opacity="0.08" filter="url(#ambient-glow)"/>

  <!-- === ENERGY BEAMS emanating from cracks === -->
  <g id="energy-beams" filter="url(#energy-glow)">
    <line x1="256" y1="256" x2="60" y2="100" stroke="#ff4444" stroke-width="3" opacity="0.7"/>
    <line x1="256" y1="256" x2="450" y2="80" stroke="#ff2222" stroke-width="2.5" opacity="0.65"/>
    <line x1="256" y1="256" x2="480" y2="300" stroke="#ff4444" stroke-width="2" opacity="0.6"/>
    <line x1="256" y1="256" x2="40" y2="380" stroke="#ff2222" stroke-width="3" opacity="0.7"/>
    <line x1="256" y1="256" x2="256" y2="30" stroke="#ff4444" stroke-width="2" opacity="0.5"/>
    <line x1="256" y1="256" x2="140" y2="470" stroke="#cc0000" stroke-width="2.5" opacity="0.55"/>
    <line x1="256" y1="256" x2="420" y2="450" stroke="#ff4444" stroke-width="2" opacity="0.6"/>
    <line x1="256" y1="256" x2="30" y2="220" stroke="#ff2222" stroke-width="1.5" opacity="0.45"/>
  </g>

  <!-- === OUTER RING (broken spiked frame) === -->
  <g id="outer-ring">
    <!-- Main ring segments (broken apart) -->
    <!-- Top-left arc segment -->
    <path d="M180,100 L160,80 L140,105 L155,130 Z" fill="#1b2838" stroke="#2a3a4a" stroke-width="1.5"/>
    <path d="M200,85 L210,60 L235,70 L225,95 Z" fill="#1b2838" stroke="#2a3a4a" stroke-width="1.5"/>
    <!-- Top-right arc segment -->
    <path d="M290,70 L310,55 L335,75 L315,95 Z" fill="#1b2838" stroke="#2a3a4a" stroke-width="1.5"/>
    <path d="M340,90 L365,78 L370,105 L350,115 Z" fill="#1b2838" stroke="#2a3a4a" stroke-width="1.5"/>
    <!-- Right segments -->
    <path d="M385,140 L410,130 L415,160 L395,165 Z" fill="#1b2838" stroke="#2a3a4a" stroke-width="1.5"/>
    <path d="M400,200 L425,195 L420,225 L400,222 Z" fill="#1b2838" stroke="#2a3a4a" stroke-width="1.5"/>
    <!-- Bottom-right segments -->
    <path d="M395,310 L420,320 L410,345 L388,335 Z" fill="#1b2838" stroke="#2a3a4a" stroke-width="1.5"/>
    <path d="M355,375 L375,395 L355,410 L340,390 Z" fill="#1b2838" stroke="#2a3a4a" stroke-width="1.5"/>
    <!-- Bottom segments -->
    <path d="M280,410 L295,435 L270,440 L260,418 Z" fill="#1b2838" stroke="#2a3a4a" stroke-width="1.5"/>
    <path d="M210,405 L220,430 L195,428 L190,400 Z" fill="#1b2838" stroke="#2a3a4a" stroke-width="1.5"/>
    <!-- Left segments -->
    <path d="M130,350 L108,365 L100,340 L120,330 Z" fill="#1b2838" stroke="#2a3a4a" stroke-width="1.5"/>
    <path d="M105,260 L80,265 L82,240 L108,238 Z" fill="#1b2838" stroke="#2a3a4a" stroke-width="1.5"/>
    <path d="M110,185 L88,175 L95,150 L118,158 Z" fill="#1b2838" stroke="#2a3a4a" stroke-width="1.5"/>

    <!-- Spikes (some broken/displaced) -->
    <polygon points="256,55 248,85 264,85" fill="#2a3a4a" stroke="#3a4a5a" stroke-width="1"/>
    <polygon points="410,165 395,175 400,155" fill="#2a3a4a" stroke="#3a4a5a" stroke-width="1"/>
    <polygon points="410,340 392,332 398,350" fill="#2a3a4a" stroke="#3a4a5a" stroke-width="1"/>
    <polygon points="256,445 248,420 264,420" fill="#2a3a4a" stroke="#3a4a5a" stroke-width="1"/>
    <polygon points="95,340 115,332 110,350" fill="#2a3a4a" stroke="#3a4a5a" stroke-width="1"/>
    <polygon points="90,165 112,172 105,155" fill="#2a3a4a" stroke="#3a4a5a" stroke-width="1"/>

    <!-- Broken/displaced spikes floating away -->
    <polygon points="170,52 164,72 178,68" fill="#2a3a4a" stroke="#3a4a5a" stroke-width="1" opacity="0.8" transform="rotate(-15,170,60)"/>
    <polygon points="440,250 428,260 435,242" fill="#2a3a4a" stroke="#3a4a5a" stroke-width="1" opacity="0.7" transform="rotate(10,435,250)"/>
    <polygon points="345,440 338,422 355,428" fill="#2a3a4a" stroke="#3a4a5a" stroke-width="1" opacity="0.75" transform="rotate(20,345,430)"/>
  </g>

  <!-- === CORE FACES (cracking icosahedron) === -->
  <g id="core-faces">
    <!-- Upper faces - some displaced to show cracking -->
    <!-- Top face (displaced upward) -->
    <polygon points="256,130 220,175 292,175" fill="#2a3a4a" stroke="#ff4444" stroke-width="1" opacity="0.9" transform="translate(0,-8)"/>
    <!-- Upper-left face -->
    <polygon points="220,175 175,225 220,240" fill="#cc0000" stroke="#ff2222" stroke-width="1" opacity="0.85"/>
    <!-- Upper-right face (displaced) -->
    <polygon points="292,175 292,240 340,225" fill="#ff2222" stroke="#ff4444" stroke-width="1" opacity="0.85" transform="translate(6,-4)"/>
    <!-- Center-left face -->
    <polygon points="220,175 220,240 256,210" fill="#1b2838" stroke="#ff4444" stroke-width="0.8" opacity="0.9"/>
    <!-- Center-right face -->
    <polygon points="292,175 256,210 292,240" fill="#1b2838" stroke="#ff4444" stroke-width="0.8" opacity="0.9"/>

    <!-- Mid-band faces with cracks -->
    <!-- Left face -->
    <polygon points="175,225 165,290 220,280" fill="#2a3a4a" stroke="#ff2222" stroke-width="1" opacity="0.8" transform="translate(-5,2)"/>
    <!-- Center-left -->
    <polygon points="220,240 220,280 256,265" fill="#cc0000" stroke="#ff4444" stroke-width="1"/>
    <!-- Center-right -->
    <polygon points="292,240 256,265 292,280" fill="#cc0000" stroke="#ff4444" stroke-width="1"/>
    <!-- Right face (displaced) -->
    <polygon points="340,225 292,280 348,290" fill="#2a3a4a" stroke="#ff2222" stroke-width="1" opacity="0.8" transform="translate(7,0)"/>

    <!-- Lower faces -->
    <!-- Lower-left (displaced) -->
    <polygon points="165,290 195,350 220,310" fill="#1b2838" stroke="#ff4444" stroke-width="1" opacity="0.85" transform="translate(-4,5)"/>
    <!-- Lower center-left -->
    <polygon points="220,280 220,340 256,320" fill="#ff2222" stroke="#ff4444" stroke-width="1"/>
    <!-- Lower center-right -->
    <polygon points="292,280 256,320 292,340" fill="#ff2222" stroke="#ff4444" stroke-width="1"/>
    <!-- Lower-right (displaced) -->
    <polygon points="348,290 292,310 320,350" fill="#1b2838" stroke="#ff4444" stroke-width="1" opacity="0.85" transform="translate(5,4)"/>

    <!-- Bottom face (displaced downward) -->
    <polygon points="220,340 256,380 292,340" fill="#2a3a4a" stroke="#ff4444" stroke-width="1" opacity="0.9" transform="translate(0,6)"/>

    <!-- Crack lines across faces -->
    <line x1="230" y1="170" x2="260" y2="260" stroke="#ff4444" stroke-width="2" opacity="0.9"/>
    <line x1="260" y1="260" x2="290" y2="350" stroke="#ff4444" stroke-width="1.8" opacity="0.85"/>
    <line x1="180" y1="230" x2="256" y2="265" stroke="#ff2222" stroke-width="1.5" opacity="0.8"/>
    <line x1="256" y1="265" x2="340" y2="230" stroke="#ff2222" stroke-width="1.5" opacity="0.8"/>
    <line x1="210" y1="290" x2="300" y2="290" stroke="#cc0000" stroke-width="1.2" opacity="0.7"/>
  </g>

  <!-- === INNER CORE (exposed, glowing red) === -->
  <g id="inner-core" filter="url(#core-intense)">
    <!-- Core mass -->
    <polygon points="256,200 230,250 256,275 282,250" fill="url(#core-gradient)" opacity="0.95"/>
    <!-- Inner bright center -->
    <circle cx="256" cy="248" r="22" fill="#ff6644" opacity="0.8"/>
    <circle cx="256" cy="248" r="12" fill="#ffaa66" opacity="0.9"/>
    <circle cx="256" cy="248" r="5" fill="#ffffff" opacity="0.85"/>
    <!-- Core facets -->
    <polygon points="256,210 240,240 256,248" fill="#ff4444" opacity="0.7"/>
    <polygon points="256,210 272,240 256,248" fill="#ff2222" opacity="0.7"/>
    <polygon points="240,240 256,275 256,248" fill="#cc0000" opacity="0.7"/>
    <polygon points="272,240 256,275 256,248" fill="#ff2222" opacity="0.7"/>
  </g>

  <!-- === DEBRIS (floating shards around the boss) === -->
  <g id="debris">
    <!-- Cyan triangle shards -->
    <polygon points="80,130 95,115 100,140" fill="#00d4ff" opacity="0.7" transform="rotate(15,90,128)"/>
    <polygon points="60,270 75,255 80,280" fill="#00d4ff" opacity="0.6" transform="rotate(-20,70,268)"/>
    <polygon points="420,140 440,130 435,155" fill="#00d4ff" opacity="0.65" transform="rotate(25,430,142)"/>
    <polygon points="440,370 455,360 452,385" fill="#00d4ff" opacity="0.55" transform="rotate(-10,448,372)"/>
    <polygon points="130,420 148,410 142,435" fill="#00d4ff" opacity="0.6" transform="rotate(30,140,422)"/>
    <polygon points="380,100 395,88 398,110" fill="#00d4ff" opacity="0.5" transform="rotate(-25,390,100)"/>
    <polygon points="100,80 112,68 118,90" fill="#00d4ff" opacity="0.5"/>
    <polygon points="460,260 472,250 475,270" fill="#00d4ff" opacity="0.45"/>

    <!-- Gold cube shards (diamond shapes for low-poly cubes) -->
    <polygon points="130,90 140,80 150,90 140,100" fill="#ffd700" opacity="0.65" transform="rotate(20,140,90)"/>
    <polygon points="390,400 400,390 410,400 400,410" fill="#ffd700" opacity="0.6" transform="rotate(-15,400,400)"/>
    <polygon points="55,350 65,340 75,350 65,360" fill="#ffd700" opacity="0.55" transform="rotate(10,65,350)"/>
    <polygon points="450,180 458,172 466,180 458,188" fill="#ffd700" opacity="0.5"/>
    <polygon points="360,450 368,442 376,450 368,458" fill="#ffd700" opacity="0.55" transform="rotate(35,368,450)"/>
    <polygon points="145,460 153,452 161,460 153,468" fill="#ffd700" opacity="0.5"/>

    <!-- Red cube shards (more than phase 1) -->
    <polygon points="70,200 80,190 90,200 80,210" fill="#ff4444" opacity="0.7" transform="rotate(12,80,200)"/>
    <polygon points="430,300 440,290 450,300 440,310" fill="#ff4444" opacity="0.65" transform="rotate(-18,440,300)"/>
    <polygon points="170,440 180,430 190,440 180,450" fill="#ff2222" opacity="0.6" transform="rotate(22,180,440)"/>
    <polygon points="340,60 350,50 360,60 350,70" fill="#ff4444" opacity="0.55"/>
    <polygon points="475,220 483,212 491,220 483,228" fill="#ff2222" opacity="0.5"/>
    <polygon points="30,310 38,302 46,310 38,318" fill="#ff4444" opacity="0.5"/>

    <!-- Small triangular fragments (explosion debris) -->
    <polygon points="160,120 170,108 175,125" fill="#2a3a4a" stroke="#ff4444" stroke-width="0.5" opacity="0.6" transform="rotate(-30,168,118)"/>
    <polygon points="350,120 362,110 358,132" fill="#2a3a4a" stroke="#ff4444" stroke-width="0.5" opacity="0.55" transform="rotate(25,355,120)"/>
    <polygon points="150,370 162,358 165,378" fill="#2a3a4a" stroke="#cc0000" stroke-width="0.5" opacity="0.6" transform="rotate(-15,158,368)"/>
    <polygon points="370,380 380,368 385,388" fill="#2a3a4a" stroke="#cc0000" stroke-width="0.5" opacity="0.55" transform="rotate(18,378,378)"/>
    <polygon points="120,220 132,212 128,232" fill="#1b2838" stroke="#ff2222" stroke-width="0.5" opacity="0.5"/>
    <polygon points="400,240 410,230 412,248" fill="#1b2838" stroke="#ff2222" stroke-width="0.5" opacity="0.5"/>
    <polygon points="200,55 210,45 215,62" fill="#2a3a4a" stroke="#ff4444" stroke-width="0.5" opacity="0.45"/>
    <polygon points="310,440 320,430 325,448" fill="#2a3a4a" stroke="#ff4444" stroke-width="0.5" opacity="0.45"/>
  </g>

  <!-- Extra bright red pulse rings from core -->
  <circle cx="256" cy="250" r="60" fill="none" stroke="#ff4444" stroke-width="1.5" opacity="0.25" filter="url(#ambient-glow)"/>
  <circle cx="256" cy="250" r="100" fill="none" stroke="#ff2222" stroke-width="1" opacity="0.15" filter="url(#ambient-glow)"/>
  <circle cx="256" cy="250" r="150" fill="none" stroke="#cc0000" stroke-width="0.8" opacity="0.1" filter="url(#ambient-glow)"/>
</svg>