<svg xmlns="http://www.w3.org/2000/svg" viewBox="0 0 512 512">
  <defs>
    <!-- Cyan glow filter -->
    <filter id="cyanGlow" x="-50%" y="-50%" width="200%" height="200%">
      <feGaussianBlur in="SourceGraphic" stdDeviation="6" result="blur"/>
      <feColorMatrix in="blur" type="matrix"
        values="0 0 0 0 0
                0 0.83 0 0 0
                0 0 1 0 0
                0 0 0 1 0" result="cyan"/>
      <feMerge>
        <feMergeNode in="cyan"/>
        <feMergeNode in="SourceGraphic"/>
      </feMerge>
    </filter>
    <!-- Stronger glow for card -->
    <filter id="cardGlow" x="-80%" y="-80%" width="260%" height="260%">
      <feGaussianBlur in="SourceGraphic" stdDeviation="10" result="blur"/>
      <feColorMatrix in="blur" type="matrix"
        values="0 0 0 0 0
                0 0.83 0 0 0
                0 0 1 0 0
                0 0 0 0.8 0" result="cyan"/>
      <feMerge>
        <feMergeNode in="cyan"/>
        <feMergeNode in="cyan"/>
        <feMergeNode in="SourceGraphic"/>
      </feMerge>
    </filter>
    <!-- Subtle inner light for visor -->
    <filter id="visorGlow" x="-100%" y="-100%" width="300%" height="300%">
      <feGaussianBlur in="SourceGraphic" stdDeviation="4" result="blur"/>
      <feColorMatrix in="blur" type="matrix"
        values="0 0 0 0 0
                0 0.83 0 0 0
                0 0 1 0 0
                0 0 0 1.2 0" result="cyan"/>
      <feMerge>
        <feMergeNode in="cyan"/>
        <feMergeNode in="cyan"/>
        <feMergeNode in="SourceGraphic"/>
      </feMerge>
    </filter>
  </defs>

  <!-- === CAPE (behind body, flowing back from forward lean) === -->
  <g id="cape">
    <!-- Cape main shape - billowing behind -->
    <polygon points="230,160 195,180 165,280 150,380 175,400 210,390 240,350 260,280 255,200"
      fill="#1b2838" stroke="#253545" stroke-width="1"/>
    <!-- Cape mid panel -->
    <polygon points="195,180 165,280 200,300 230,220"
      fill="#1f2f40" stroke="#253545" stroke-width="1"/>
    <!-- Cape lower fold -->
    <polygon points="165,280 150,380 185,370 200,300"
      fill="#162535" stroke="#253545" stroke-width="1"/>
    <!-- Cape edge fold -->
    <polygon points="175,400 210,390 200,350 185,370"
      fill="#1b2838" stroke="#253545" stroke-width="1"/>
    <!-- Cape inner shadow -->
    <polygon points="230,220 200,300 240,350 260,280"
      fill="#122030" stroke="#253545" stroke-width="1"/>
  </g>

  <!-- === LEFT LEG (back leg, slightly behind) === -->
  <g id="left-leg">
    <!-- Upper leg -->
    <polygon points="225,310 215,330 225,390 245,390 250,330 240,310"
      fill="#2a3a4a" stroke="#3a4a5a" stroke-width="1"/>
    <!-- Knee plate -->
    <polygon points="220,355 225,345 245,345 250,355 245,365 225,365"
      fill="#3a4a5a" stroke="#4a5a6a" stroke-width="1"/>
    <!-- Lower leg -->
    <polygon points="222,365 218,420 225,450 245,450 252,420 248,365"
      fill="#1b2838" stroke="#2a3a4a" stroke-width="1"/>
    <!-- Boot -->
    <polygon points="215,440 210,460 215,470 250,470 255,460 250,440"
      fill="#1b2838" stroke="#2a3a4a" stroke-width="1"/>
    <!-- Boot toe -->
    <polygon points="210,460 200,465 205,472 215,470"
      fill="#162535" stroke="#253545" stroke-width="1"/>
  </g>

  <!-- === RIGHT LEG (front leg, lunging forward) === -->
  <g id="right-leg">
    <!-- Upper leg - angled forward -->
    <polygon points="270,300 280,310 310,380 295,390 265,385 255,320"
      fill="#2a3a4a" stroke="#3a4a5a" stroke-width="1"/>
    <!-- Knee plate -->
    <polygon points="290,365 300,355 310,365 305,378 290,380 285,375"
      fill="#3a4a5a" stroke="#4a5a6a" stroke-width="1"/>
    <!-- Lower leg -->
    <polygon points="288,378 295,390 320,440 335,435 315,385 305,378"
      fill="#1b2838" stroke="#2a3a4a" stroke-width="1"/>
    <!-- Boot -->
    <polygon points="315,430 325,445 340,455 350,450 340,438 320,425"
      fill="#1b2838" stroke="#2a3a4a" stroke-width="1"/>
    <!-- Boot toe -->
    <polygon points="340,445 355,448 352,456 340,455"
      fill="#162535" stroke="#253545" stroke-width="1"/>
  </g>

  <!-- === TORSO (leaning forward aggressively) === -->
  <g id="torso">
    <!-- Chest plate - main -->
    <polygon points="240,155 225,175 220,240 235,280 275,290 300,270 310,220 305,175 280,150"
      fill="#2a3a4a" stroke="#3a4a5a" stroke-width="1"/>
    <!-- Chest plate - left face (darker, away from light) -->
    <polygon points="225,175 220,240 245,250 250,185"
      fill="#1f3040" stroke="#2a3a4a" stroke-width="1"/>
    <!-- Chest plate - right face (lighter, toward light) -->
    <polygon points="280,150 305,175 310,220 285,210 270,165"
      fill="#3a4a5a" stroke="#4a5a6a" stroke-width="1"/>
    <!-- Chest center ridge -->
    <polygon points="260,160 250,185 245,250 260,270 275,250 280,185 270,165"
      fill="#2a3a4a" stroke="#3a4a5a" stroke-width="1"/>
    <!-- Lower torso / abdomen -->
    <polygon points="235,280 240,310 270,315 290,305 300,270 275,290"
      fill="#1b2838" stroke="#2a3a4a" stroke-width="1"/>
    <!-- Shoulder plate left -->
    <polygon points="218,165 205,175 200,200 220,205 235,190 232,168"
      fill="#3a4a5a" stroke="#4a5a6a" stroke-width="1"/>
    <!-- Shoulder plate right (prominent, arm extended) -->
    <polygon points="290,145 310,150 325,170 320,195 300,200 285,175"
      fill="#3a4a5a" stroke="#4a5a6a" stroke-width="1"/>
    <!-- Shoulder highlight -->
    <polygon points="290,145 310,150 305,165 290,160"
      fill="#4a5a6a" stroke="#5a6a7a" stroke-width="1"/>
  </g>

  <!-- === BELT === -->
  <g id="belt">
    <!-- Belt strap -->
    <polygon points="232,278 235,290 280,298 295,288 290,275 248,272"
      fill="#ff4444" stroke="#cc3333" stroke-width="1"/>
    <!-- Belt buckle -->
    <polygon points="255,276 252,290 268,293 270,278"
      fill="#ffd700" stroke="#cca800" stroke-width="1.5"/>
    <!-- Buckle center detail -->
    <polygon points="258,280 256,288 265,290 267,281"
      fill="#ffed4a" stroke="#ffd700" stroke-width="0.5"/>
  </g>

  <!-- === LEFT ARM (pulled back, fist clenched) === -->
  <g id="left-arm">
    <!-- Upper arm -->
    <polygon points="205,195 195,210 190,255 200,265 215,255 220,210"
      fill="#2a3a4a" stroke="#3a4a5a" stroke-width="1"/>
    <!-- Elbow -->
    <polygon points="192,250 188,265 200,275 210,265 205,250"
      fill="#3a4a5a" stroke="#4a5a6a" stroke-width="1"/>
    <!-- Forearm - pulled back -->
    <polygon points="192,270 195,290 210,310 220,305 215,285 205,268"
      fill="#1b2838" stroke="#2a3a4a" stroke-width="1"/>
    <!-- Gauntlet / fist -->
    <polygon points="208,305 205,320 215,328 228,322 225,308"
      fill="#2a3a4a" stroke="#3a4a5a" stroke-width="1"/>
  </g>

  <!-- === RIGHT ARM (extended forward, throwing card) === -->
  <g id="right-arm">
    <!-- Upper arm -->
    <polygon points="318,185 330,175 355,195 350,220 335,225 315,210"
      fill="#2a3a4a" stroke="#3a4a5a" stroke-width="1"/>
    <!-- Elbow guard -->
    <polygon points="348,215 360,210 370,225 365,240 350,235"
      fill="#3a4a5a" stroke="#4a5a6a" stroke-width="1"/>
    <!-- Forearm - extended forward -->
    <polygon points="358,230 370,220 400,200 410,210 395,235 368,245"
      fill="#1b2838" stroke="#2a3a4a" stroke-width="1"/>
    <!-- Gauntlet -->
    <polygon points="398,198 410,190 425,195 420,210 408,215"
      fill="#2a3a4a" stroke="#3a4a5a" stroke-width="1"/>
    <!-- Fingers releasing card -->
    <polygon points="420,192 430,186 435,192 428,198"
      fill="#3a4a5a" stroke="#4a5a6a" stroke-width="1"/>
    <polygon points="425,195 435,190 438,198 430,202"
      fill="#3a4a5a" stroke="#4a5a6a" stroke-width="1"/>
  </g>

  <!-- === HELMET === -->
  <g id="helmet">
    <!-- Helmet base / dome - top-left lit -->
    <polygon points="248,90 235,100 228,125 232,150 260,160 285,150 292,125 288,100 272,88"
      fill="#2a3a4a" stroke="#3a4a5a" stroke-width="1"/>
    <!-- Helmet left face (shadow) -->
    <polygon points="235,100 228,125 240,135 248,110"
      fill="#1b2838" stroke="#2a3a4a" stroke-width="1"/>
    <!-- Helmet right face (lit) -->
    <polygon points="272,88 288,100 292,125 280,120 268,95"
      fill="#3a4a5a" stroke="#4a5a6a" stroke-width="1"/>
    <!-- Helmet top facet -->
    <polygon points="248,90 260,85 272,88 268,95 255,98 248,96"
      fill="#4a5a6a" stroke="#5a6a7a" stroke-width="1"/>
    <!-- Face plate -->
    <polygon points="237,120 235,145 250,155 270,155 285,145 283,120 270,112 250,112"
      fill="#1b2838" stroke="#2a3a4a" stroke-width="1"/>
    <!-- Visor slit - glowing cyan -->
    <polygon points="242,125 240,138 258,142 275,138 278,125 270,120 250,120"
      fill="#00d4ff" filter="url(#visorGlow)" stroke="none"/>
    <!-- Visor inner detail -->
    <polygon points="248,128 246,135 260,138 272,135 274,128 266,124 254,124"
      fill="#33e0ff" stroke="none" opacity="0.7"/>
    <!-- Helmet chin guard -->
    <polygon points="240,148 250,158 270,158 280,148 272,152 248,152"
      fill="#1b2838" stroke="#2a3a4a" stroke-width="1"/>
    <!-- Helmet crest ridge -->
    <polygon points="255,78 258,83 262,83 265,78 262,88 258,88"
      fill="#3a4a5a" stroke="#4a5a6a" stroke-width="1"/>
    <polygon points="258,83 255,90 260,92 265,90 262,83"
      fill="#2a3a4a" stroke="#3a4a5a" stroke-width="1"/>
  </g>

  <!-- === CARD EFFECT (thrown glowing card with energy trail) === -->
  <g id="card-effect">
    <!-- Energy trail - wide near hand, narrow toward card -->
    <polygon points="430,190 440,178 455,165 458,172 445,183 435,195"
      fill="#00d4ff" opacity="0.25" filter="url(#cyanGlow)"/>
    <polygon points="438,183 450,168 465,152 467,158 453,173 442,188"
      fill="#00d4ff" opacity="0.35" filter="url(#cyanGlow)"/>
    <polygon points="445,175 458,158 472,142 474,148 460,164 448,180"
      fill="#00d4ff" opacity="0.5" filter="url(#cyanGlow)"/>

    <!-- The thrown card - rotated, glowing -->
    <g filter="url(#cardGlow)">
      <!-- Card body -->
      <polygon points="462,120 478,108 498,118 482,130"
        fill="#00d4ff" stroke="#33e0ff" stroke-width="1.5"/>
      <!-- Card inner design -->
      <polygon points="468,118 476,112 488,118 480,124"
        fill="#33e0ff" stroke="none" opacity="0.6"/>
      <!-- Card center symbol -->
      <polygon points="476,115 480,112 484,116 480,120"
        fill="#ffffff" stroke="none" opacity="0.8"/>
    </g>

    <!-- Triangle particles flying from card -->
    <polygon points="500,105 505,98 510,106"
      fill="#00d4ff" opacity="0.9" filter="url(#cyanGlow)"/>
    <polygon points="495,95 498,88 502,95"
      fill="#00d4ff" opacity="0.7" filter="url(#cyanGlow)"/>
    <polygon points="488,100 492,96 494,102"
      fill="#33e0ff" opacity="0.6"/>
    <polygon points="505,115 510,110 512,117"
      fill="#00d4ff" opacity="0.5"/>
    <polygon points="475,98 479,92 482,99"
      fill="#33e0ff" opacity="0.5"/>
    <polygon points="498,125 503,120 505,127"
      fill="#00d4ff" opacity="0.4"/>
    <!-- Smaller particles -->
    <polygon points="490,88 492,84 495,89"
      fill="#ffffff" opacity="0.5"/>
    <polygon points="508,100 510,96 512,101"
      fill="#ffffff" opacity="0.4"/>

    <!-- Energy arc from hand to card -->
    <path d="M428,195 Q450,165 470,125"
      fill="none" stroke="#00d4ff" stroke-width="2" opacity="0.6" filter="url(#cyanGlow)"/>
    <path d="M430,192 Q455,160 475,120"
      fill="none" stroke="#33e0ff" stroke-width="1" opacity="0.4"/>
  </g>
</svg>