<svg xmlns="http://www.w3.org/2000/svg" viewBox="0 0 512 512">
  <defs>
    <!-- Green glow filter for shield/barrier -->
    <filter id="greenGlow" x="-50%" y="-50%" width="200%" height="200%">
      <feGaussianBlur in="SourceGraphic" stdDeviation="6" result="blur"/>
      <feColorMatrix in="blur" type="matrix"
        values="0 0 0 0 0.27
                0 0 0 0 0.8
                0 0 0 0 0.4
                0 0 0 0.7 0" result="greenBlur"/>
      <feMerge>
        <feMergeNode in="greenBlur"/>
        <feMergeNode in="SourceGraphic"/>
      </feMerge>
    </filter>
    <!-- Subtle cyan glow for visor -->
    <filter id="cyanGlow" x="-50%" y="-50%" width="200%" height="200%">
      <feGaussianBlur in="SourceGraphic" stdDeviation="3" result="blur"/>
      <feColorMatrix in="blur" type="matrix"
        values="0 0 0 0 0
                0 0 0 0 0.83
                0 0 0 0 1
                0 0 0 0.6 0" result="cyanBlur"/>
      <feMerge>
        <feMergeNode in="cyanBlur"/>
        <feMergeNode in="SourceGraphic"/>
      </feMerge>
    </filter>
    <!-- Outer barrier shimmer -->
    <filter id="barrierGlow" x="-50%" y="-50%" width="200%" height="200%">
      <feGaussianBlur in="SourceGraphic" stdDeviation="10" result="blur"/>
      <feColorMatrix in="blur" type="matrix"
        values="0 0 0 0 0.27
                0 0 0 0 0.8
                0 0 0 0 0.4
                0 0 0 0.5 0" result="glow"/>
      <feMerge>
        <feMergeNode in="glow"/>
        <feMergeNode in="SourceGraphic"/>
      </feMerge>
    </filter>
    <!-- Top-left light gradient for armor -->
    <linearGradient id="armorLight" x1="0" y1="0" x2="1" y2="1">
      <stop offset="0%" stop-color="#4a5a6a" stop-opacity="0.3"/>
      <stop offset="100%" stop-color="#0a1018" stop-opacity="0.3"/>
    </linearGradient>
  </defs>

  <!-- === CAPE (behind body, flowing back-right due to crouch) === -->
  <g id="cape">
    <!-- Cape top attach -->
    <polygon points="275,175 310,170 340,260 360,370 330,390 280,380 260,280"
      fill="#1a1a2e" stroke="#222240" stroke-width="0.5"/>
    <!-- Cape mid fold (light hits top-left) -->
    <polygon points="310,170 340,180 370,290 360,370 340,260"
      fill="#141428" stroke="#1e1e3a" stroke-width="0.5"/>
    <!-- Cape bottom fold -->
    <polygon points="280,380 330,390 345,420 310,430 270,410"
      fill="#12122a" stroke="#1a1a36" stroke-width="0.5"/>
    <!-- Cape highlight fold (top-left light) -->
    <polygon points="275,175 295,172 285,240 260,280"
      fill="#222244" stroke="#2a2a4e" stroke-width="0.5"/>
  </g>

  <!-- === LEGS (crouching stance, slightly bent) === -->
  <g id="legs">
    <!-- Left leg (front, closer to viewer) -->
    <!-- Thigh -->
    <polygon points="230,340 260,335 265,390 225,395"
      fill="#2a3a4a" stroke="#3a4a5a" stroke-width="0.8"/>
    <polygon points="260,335 275,340 278,395 265,390"
      fill="#1b2838" stroke="#2a3848" stroke-width="0.8"/>
    <!-- Shin -->
    <polygon points="225,395 265,390 270,445 230,450"
      fill="#2a3a4a" stroke="#3a4a5a" stroke-width="0.8"/>
    <polygon points="265,390 278,395 280,448 270,445"
      fill="#1b2838" stroke="#2a3848" stroke-width="0.8"/>
    <!-- Boot -->
    <polygon points="220,448 275,443 280,470 215,475"
      fill="#1b2838" stroke="#2a3848" stroke-width="0.8"/>
    <polygon points="215,475 280,470 285,482 210,487"
      fill="#151f2c" stroke="#1f2f3c" stroke-width="0.8"/>

    <!-- Right leg (back, slightly behind) -->
    <!-- Thigh -->
    <polygon points="270,338 300,340 308,388 275,392"
      fill="#223242" stroke="#324252" stroke-width="0.8"/>
    <polygon points="300,340 315,345 318,390 308,388"
      fill="#192838" stroke="#263545" stroke-width="0.8"/>
    <!-- Shin -->
    <polygon points="275,392 308,388 312,440 278,445"
      fill="#223242" stroke="#324252" stroke-width="0.8"/>
    <polygon points="308,388 318,390 320,442 312,440"
      fill="#192838" stroke="#263545" stroke-width="0.8"/>
    <!-- Boot -->
    <polygon points="270,443 318,438 325,465 268,470"
      fill="#192838" stroke="#263545" stroke-width="0.8"/>
    <polygon points="268,470 325,465 330,478 265,482"
      fill="#131d28" stroke="#1d2d3a" stroke-width="0.8"/>
  </g>

  <!-- === TORSO (slightly crouched forward) === -->
  <g id="torso">
    <!-- Chest plate front (lit side) -->
    <polygon points="230,195 280,188 285,270 235,280"
      fill="#2a3a4a" stroke="#3a4a5a" stroke-width="0.8"/>
    <!-- Chest plate right side (shadow) -->
    <polygon points="280,188 310,200 315,278 285,270"
      fill="#1b2838" stroke="#2a3848" stroke-width="0.8"/>
    <!-- Chest lower front -->
    <polygon points="235,280 285,270 288,310 232,318"
      fill="#253545" stroke="#354555" stroke-width="0.8"/>
    <!-- Chest lower side -->
    <polygon points="285,270 315,278 318,315 288,310"
      fill="#192838" stroke="#273747" stroke-width="0.8"/>
    <!-- Abdomen -->
    <polygon points="232,318 288,310 292,345 228,348"
      fill="#223242" stroke="#324252" stroke-width="0.8"/>
    <polygon points="288,310 318,315 320,348 292,345"
      fill="#1a2838" stroke="#283848" stroke-width="0.8"/>
    <!-- Shoulder plate left (top-left light) -->
    <polygon points="215,188 240,178 250,195 230,210 210,205"
      fill="#3a4a5a" stroke="#4a5a6a" stroke-width="0.8"/>
    <!-- Shoulder plate right -->
    <polygon points="285,182 315,190 320,210 300,215 280,200"
      fill="#2a3a4a" stroke="#3a4a5a" stroke-width="0.8"/>
    <!-- Collar/neck guard -->
    <polygon points="245,178 280,175 282,190 248,193"
      fill="#3a4a5a" stroke="#4a5a6a" stroke-width="0.8"/>
  </g>

  <!-- === BELT === -->
  <g id="belt">
    <polygon points="228,340 292,332 295,355 225,360"
      fill="#ff4444" stroke="#cc3333" stroke-width="0.8"/>
    <polygon points="292,332 320,338 322,358 295,355"
      fill="#cc2222" stroke="#aa1111" stroke-width="0.8"/>
    <!-- Gold buckle -->
    <polygon points="252,335 272,332 274,352 254,354"
      fill="#ffd700" stroke="#ccaa00" stroke-width="1"/>
    <!-- Buckle inner detail -->
    <polygon points="257,339 267,337 268,348 258,350"
      fill="#ffee55" stroke="#ffd700" stroke-width="0.5"/>
  </g>

  <!-- === HELMET === -->
  <g id="helmet">
    <!-- Helmet top (lit) -->
    <polygon points="248,120 275,112 290,125 280,140 250,145"
      fill="#3a4a5a" stroke="#4a5a6a" stroke-width="0.8"/>
    <!-- Helmet front face -->
    <polygon points="240,140 250,125 275,118 290,125 295,148 285,168 245,172"
      fill="#2a3a4a" stroke="#3a4a5a" stroke-width="0.8"/>
    <!-- Helmet right side (shadow) -->
    <polygon points="290,125 305,135 300,165 285,168 295,148"
      fill="#1b2838" stroke="#2a3848" stroke-width="0.8"/>
    <!-- Helmet left side (lit) -->
    <polygon points="240,130 250,125 240,140 245,172 235,165"
      fill="#3a4a5a" stroke="#4a5a6a" stroke-width="0.8"/>
    <!-- Visor slit -->
    <polygon points="252,148 288,144 286,156 250,160"
      fill="#0a1520" stroke="#1a2530" stroke-width="0.5"/>
    <!-- Visor glow -->
    <polygon points="254,149 285,146 284,155 253,158"
      fill="#00d4ff" filter="url(#cyanGlow)" opacity="0.9"
      stroke="none"/>
    <!-- Helmet chin guard -->
    <polygon points="245,172 285,168 288,182 248,186"
      fill="#2a3a4a" stroke="#3a4a5a" stroke-width="0.8"/>
    <!-- Helmet crest (small ridge on top) -->
    <polygon points="260,112 270,108 272,120 262,122"
      fill="#4a5a6a" stroke="#5a6a7a" stroke-width="0.5"/>
  </g>

  <!-- === RIGHT ARM (behind shield, barely visible) === -->
  <g id="arm-right">
    <!-- Upper arm -->
    <polygon points="300,215 320,210 328,260 310,265"
      fill="#1b2838" stroke="#2a3848" stroke-width="0.8"/>
    <!-- Forearm (tucked behind shield) -->
    <polygon points="310,265 328,260 330,300 312,305"
      fill="#223242" stroke="#324252" stroke-width="0.8"/>
  </g>

  <!-- === LEFT ARM (holding shield, extended forward) === -->
  <g id="arm-left">
    <!-- Upper arm -->
    <polygon points="210,205 230,195 225,250 200,258"
      fill="#3a4a5a" stroke="#4a5a6a" stroke-width="0.8"/>
    <!-- Upper arm side -->
    <polygon points="200,258 225,250 222,260 198,266"
      fill="#2a3a4a" stroke="#3a4a5a" stroke-width="0.5"/>
    <!-- Forearm extended forward -->
    <polygon points="198,258 222,252 195,310 172,318"
      fill="#2a3a4a" stroke="#3a4a5a" stroke-width="0.8"/>
    <polygon points="172,318 195,310 190,325 168,330"
      fill="#1b2838" stroke="#2a3848" stroke-width="0.8"/>
    <!-- Gauntlet/hand gripping shield handle -->
    <polygon points="165,320 185,314 180,340 160,345"
      fill="#2a3a4a" stroke="#3a4a5a" stroke-width="0.8"/>
    <polygon points="160,345 180,340 178,352 158,355"
      fill="#1b2838" stroke="#2a3848" stroke-width="0.5"/>
  </g>

  <!-- === PHYSICAL SHIELD (large low-poly kite shield) === -->
  <g id="shield" filter="url(#greenGlow)">
    <!-- Shield main face - top triangle -->
    <polygon points="148,200 190,180 175,260"
      fill="#33aa55" stroke="#44cc66" stroke-width="1.2"/>
    <!-- Shield face - upper left -->
    <polygon points="105,235 148,200 175,260 130,280"
      fill="#2d9948" stroke="#3dbb5a" stroke-width="1.2"/>
    <!-- Shield face - upper right -->
    <polygon points="190,180 215,230 175,260"
      fill="#44cc66" stroke="#55dd77" stroke-width="1.2"/>
    <!-- Shield face - mid left -->
    <polygon points="100,280 130,280 125,350 95,340"
      fill="#289040" stroke="#38a852" stroke-width="1.2"/>
    <!-- Shield face - center -->
    <polygon points="130,280 175,260 170,350 125,350"
      fill="#33aa55" stroke="#44cc66" stroke-width="1.2"/>
    <!-- Shield face - mid right -->
    <polygon points="175,260 215,230 205,320 170,350"
      fill="#3dbb5a" stroke="#4ecc6b" stroke-width="1.2"/>
    <!-- Shield face - lower left -->
    <polygon points="95,340 125,350 120,400 105,390"
      fill="#248838" stroke="#34a04a" stroke-width="1.2"/>
    <!-- Shield face - lower center -->
    <polygon points="125,350 170,350 155,420 120,400"
      fill="#2d9948" stroke="#3daa58" stroke-width="1.2"/>
    <!-- Shield face - lower right -->
    <polygon points="170,350 205,320 190,400 155,420"
      fill="#33aa55" stroke="#44bb66" stroke-width="1.2"/>
    <!-- Shield bottom point -->
    <polygon points="120,400 155,420 145,450 125,440"
      fill="#248838" stroke="#34a04a" stroke-width="1.2"/>
    <polygon points="155,420 190,400 170,445 145,450"
      fill="#2d9948" stroke="#3daa58" stroke-width="1.2"/>
    <!-- Shield boss (center emblem) -->
    <polygon points="145,295 165,290 168,315 148,320"
      fill="#55dd77" stroke="#66ee88" stroke-width="0.8"/>
    <polygon points="148,320 168,315 165,330 147,334"
      fill="#44cc66" stroke="#55dd77" stroke-width="0.8"/>
  </g>

  <!-- === BARRIER EFFECT (hexagonal energy field in front of shield) === -->
  <g id="barrier-effect" filter="url(#barrierGlow)" opacity="0.5">
    <!-- Hex tile top -->
    <polygon points="120,170 155,155 180,175 170,200 135,210 115,195"
      fill="none" stroke="#44cc66" stroke-width="1.5" opacity="0.6"/>
    <!-- Hex tile upper-left -->
    <polygon points="75,220 110,205 135,225 125,250 90,260 70,245"
      fill="none" stroke="#44cc66" stroke-width="1.5" opacity="0.5"/>
    <!-- Hex tile upper-right -->
    <polygon points="165,195 200,180 225,200 215,225 180,235 160,220"
      fill="none" stroke="#44cc66" stroke-width="1.5" opacity="0.4"/>
    <!-- Hex tile mid-left -->
    <polygon points="65,280 100,265 125,285 115,310 80,320 60,305"
      fill="none" stroke="#44cc66" stroke-width="1.2" opacity="0.45"/>
    <!-- Hex tile mid-right -->
    <polygon points="170,250 205,235 230,255 220,280 185,290 165,275"
      fill="none" stroke="#44cc66" stroke-width="1.2" opacity="0.35"/>
    <!-- Hex tile lower-left -->
    <polygon points="70,340 105,325 130,345 120,370 85,380 65,365"
      fill="none" stroke="#44cc66" stroke-width="1.0" opacity="0.35"/>
    <!-- Hex tile lower-right -->
    <polygon points="155,310 190,295 215,315 205,340 170,350 150,335"
      fill="none" stroke="#44cc66" stroke-width="1.0" opacity="0.3"/>
    <!-- Hex tile bottom -->
    <polygon points="100,395 135,380 160,400 150,425 115,435 95,420"
      fill="none" stroke="#44cc66" stroke-width="0.8" opacity="0.25"/>

    <!-- Energy particles scattered -->
    <polygon points="90,200 96,195 98,202 92,205"
      fill="#44cc66" opacity="0.7"/>
    <polygon points="195,250 200,246 203,253 197,256"
      fill="#44cc66" opacity="0.5"/>
    <polygon points="80,350 85,347 87,353 82,356"
      fill="#44cc66" opacity="0.4"/>
    <polygon points="150,175 154,171 157,177 152,180"
      fill="#55dd77" opacity="0.6"/>
    <polygon points="110,420 114,416 117,422 112,425"
      fill="#44cc66" opacity="0.3"/>
  </g>

  <!-- === Ground shadow === -->
  <ellipse cx="265" cy="490" rx="100" ry="12" fill="#0a0a15" opacity="0.4"/>
</svg>