<svg xmlns="http://www.w3.org/2000/svg" viewBox="0 0 800 600">
  <defs>
    <linearGradient id="nearMountainGrad" x1="0" y1="0" x2="0" y2="1">
      <stop offset="0%" stop-color="#2a2a4e"/>
      <stop offset="100%" stop-color="#1a1a3e"/>
    </linearGradient>
    <linearGradient id="treeGrad" x1="0" y1="0" x2="0" y2="1">
      <stop offset="0%" stop-color="#1e3a1e"/>
      <stop offset="100%" stop-color="#0f200f"/>
    </linearGradient>
    <linearGradient id="groundGrad" x1="0" y1="0" x2="0" y2="1">
      <stop offset="0%" stop-color="#2d5a27"/>
      <stop offset="100%" stop-color="#1a3a18"/>
    </linearGradient>
    <radialGradient id="fogGlow" cx="50%" cy="100%" r="80%">
      <stop offset="0%" stop-color="#8fbc8f" stop-opacity="0.12"/>
      <stop offset="100%" stop-color="#2d5a27" stop-opacity="0"/>
    </radialGradient>
    <filter id="fogBlur">
      <feGaussianBlur stdDeviation="6" result="blur"/>
      <feMerge><feMergeNode in="blur"/><feMergeNode in="SourceGraphic"/></feMerge>
    </filter>
    <filter id="treeGlow">
      <feGaussianBlur stdDeviation="1.5" result="blur"/>
      <feMerge><feMergeNode in="blur"/><feMergeNode in="SourceGraphic"/></feMerge>
    </filter>
  </defs>
  <path d="M0 450 Q40 380 80 400 Q120 340 170 370 Q210 310 260 340 Q300 290 350 320 Q390 280 430 310 Q470 260 520 290 Q560 250 600 280 Q650 240 700 270 Q740 250 780 280 L800 280 L800 600 L0 600 Z" fill="url(#nearMountainGrad)" opacity="0.8"/>
  <path d="M0 450 Q40 380 80 400 Q120 340 170 370 Q210 310 260 340 Q300 290 350 320 Q390 280 430 310 Q470 260 520 290 Q560 250 600 280 Q650 240 700 270 Q740 250 780 280 L800 280" fill="none" stroke="#00ffcc" stroke-width="0.8" opacity="0.25"/>
  <g opacity="0.7">
    <path d="M60 500 L50 440 L35 460 L25 400 L15 430 L5 380 L0 380 L0 500 Z" fill="url(#treeGrad)"/>
    <path d="M120 490 L110 430 L100 450 L90 390 L80 420 L70 370 L60 370 L60 490 Z" fill="url(#treeGrad)"/>
    <path d="M180 500 L170 450 L155 465 L145 410 L135 435 L125 385 L115 385 L115 500 Z" fill="url(#treeGrad)"/>
  </g>
  <g opacity="0.6">
    <path d="M680 490 L690 435 L700 455 L710 395 L720 425 L730 375 L740 375 L740 490 Z" fill="url(#treeGrad)"/>
    <path d="M740 500 L750 445 L760 465 L770 405 L780 430 L790 380 L800 380 L800 500 Z" fill="url(#treeGrad)"/>
  </g>
  <g opacity="0.35" filter="url(#treeGlow)">
    <path d="M300 520 L290 470 L280 485 L270 440 L260 460 L250 420 L240 420 L240 520 Z" fill="#1e3a1e"/>
    <path d="M500 510 L510 460 L520 475 L530 430 L540 450 L550 410 L560 410 L560 510 Z" fill="#1e3a1e"/>
    <path d="M420 530 L410 475 L400 490 L390 445 L380 465 L370 425 L360 425 L360 530 Z" fill="#1e3a1e"/>
  </g>
  <rect x="0" y="540" width="800" height="60" fill="url(#groundGrad)" opacity="0.9"/>
  <path d="M0 540 Q10 535 20 540 Q30 533 40 540 Q50 535 60 540 Q70 532 80 540 Q90 535 100 540 Q110 533 120 540 Q130 535 140 540 Q150 532 160 540 Q170 535 180 540 Q190 533 200 540 Q210 535 220 540 Q230 532 240 540 Q250 535 260 540 Q270 533 280 540 Q290 535 300 540 Q310 532 320 540 Q330 535 340 540 Q350 533 360 540 Q370 535 380 540 Q390 532 400 540 Q410 535 420 540 Q430 533 440 540 Q450 535 460 540 Q470 532 480 540 Q490 535 500 540 Q510 533 520 540 Q530 535 540 540 Q550 532 560 540 Q570 535 580 540 Q590 533 600 540 Q610 535 620 540 Q630 532 640 540 Q650 535 660 540 Q670 533 680 540 Q690 535 700 540 Q710 532 720 540 Q730 535 740 540 Q750 533 760 540 Q770 535 780 540 Q790 533 800 540" fill="none" stroke="#8fbc8f" stroke-width="1.5" opacity="0.4"/>
  <g filter="url(#fogBlur)">
    <ellipse cx="200" cy="480" rx="250" ry="40" fill="url(#fogGlow)"/>
    <ellipse cx="600" cy="500" rx="200" ry="35" fill="url(#fogGlow)"/>
  </g>
  <g filter="url(#treeGlow)" opacity="0.6">
    <circle cx="100" cy="440" r="2" fill="#8fbc8f"/>
    <circle cx="350" cy="420" r="1.5" fill="#00ffcc"/>
    <circle cx="550" cy="460" r="2" fill="#8fbc8f"/>
    <circle cx="700" cy="430" r="1.5" fill="#00ffcc"/>
    <circle cx="220" cy="470" r="1.8" fill="#8fbc8f"/>
    <circle cx="650" cy="480" r="1.5" fill="#00ffcc"/>
  </g>
</svg>
