<svg xmlns="http://www.w3.org/2000/svg" viewBox="0 0 32 32">
  <defs>
    <linearGradient id="heartGrad" x1="0" y1="0" x2="0" y2="1">
      <stop offset="0%" stop-color="#ff6688"/>
      <stop offset="100%" stop-color="#cc0044"/>
    </linearGradient>
    <radialGradient id="heartShine" cx="35%" cy="30%" r="40%">
      <stop offset="0%" stop-color="#ff99bb" stop-opacity="0.8"/>
      <stop offset="100%" stop-color="#ff6688" stop-opacity="0"/>
    </radialGradient>
    <radialGradient id="heartOuter" cx="50%" cy="50%" r="55%">
      <stop offset="0%" stop-color="#ff3366" stop-opacity="0.5"/>
      <stop offset="100%" stop-color="#ff3366" stop-opacity="0"/>
    </radialGradient>
    <filter id="heartGlow">
      <feGaussianBlur stdDeviation="1.5" result="blur"/>
      <feMerge><feMergeNode in="blur"/><feMergeNode in="SourceGraphic"/></feMerge>
    </filter>
  </defs>
  <ellipse cx="16" cy="17" rx="14" ry="13" fill="url(#heartOuter)"/>
  <g filter="url(#heartGlow)">
    <path d="M16 28 C6 20 2 14 2 10 C2 6 5 3 9 3 C12 3 14 5 16 8 C18 5 20 3 23 3 C27 3 30 6 30 10 C30 14 26 20 16 28 Z" fill="url(#heartGrad)" stroke="#ff3366" stroke-width="0.8"/>
    <path d="M10 9 C10 6 12 5 14 7 C15 8 14 10 12 10 C10 10 10 9 10 9 Z" fill="url(#heartShine)"/>
  </g>
</svg>
