<svg xmlns="http://www.w3.org/2000/svg" width="400" height="300" viewBox="0 0 400 300">
  <defs>
    <linearGradient id="tSkyGrad" x1="0" y1="0" x2="0" y2="1">
      <stop offset="0%" stop-color="#0D0A1A"/>
      <stop offset="35%" stop-color="#1A1230"/>
      <stop offset="70%" stop-color="#2C1810"/>
      <stop offset="100%" stop-color="#3D1F0E"/>
    </linearGradient>
    <linearGradient id="tBodyGrad" x1="0" y1="0" x2="0" y2="1">
      <stop offset="0%" stop-color="#E8B84B"/>
      <stop offset="40%" stop-color="#C8841D"/>
      <stop offset="100%" stop-color="#8B4513"/>
    </linearGradient>
    <linearGradient id="tEnemyGrad" x1="0" y1="0" x2="0" y2="1">
      <stop offset="0%" stop-color="#4A4A4A"/>
      <stop offset="100%" stop-color="#1A1A1A"/>
    </linearGradient>
    <radialGradient id="tAether" cx="0.5" cy="0.5" r="0.5">
      <stop offset="0%" stop-color="#FFFFFF"/>
      <stop offset="30%" stop-color="#87CEEB"/>
      <stop offset="100%" stop-color="#2C7AB5" stop-opacity="0"/>
    </radialGradient>
    <radialGradient id="tCorrupt" cx="0.5" cy="0.5" r="0.5">
      <stop offset="0%" stop-color="#FF4444"/>
      <stop offset="100%" stop-color="#880000" stop-opacity="0"/>
    </radialGradient>
    <radialGradient id="tMoon" cx="0.5" cy="0.5" r="0.5">
      <stop offset="0%" stop-color="#FFE8C0"/>
      <stop offset="40%" stop-color="#E8B84B" stop-opacity="0.5"/>
      <stop offset="100%" stop-color="#C8841D" stop-opacity="0"/>
    </radialGradient>
    <linearGradient id="tTitleGrad" x1="0" y1="0" x2="0" y2="1">
      <stop offset="0%" stop-color="#FFD700"/>
      <stop offset="50%" stop-color="#E8B84B"/>
      <stop offset="100%" stop-color="#C8841D"/>
    </linearGradient>
    <linearGradient id="tBrickGrad" x1="0" y1="0" x2="0" y2="1">
      <stop offset="0%" stop-color="#4A3020"/>
      <stop offset="100%" stop-color="#2C1810"/>
    </linearGradient>
    <filter id="tGlow">
      <feGaussianBlur in="SourceGraphic" stdDeviation="2" result="blur"/>
      <feMerge><feMergeNode in="blur"/><feMergeNode in="SourceGraphic"/></feMerge>
    </filter>
    <filter id="tSoftGlow">
      <feGaussianBlur stdDeviation="5"/>
    </filter>
    <filter id="tShadow">
      <feDropShadow dx="1" dy="2" stdDeviation="2" flood-color="#000000" flood-opacity="0.6"/>
    </filter>
    <filter id="tTextShadow">
      <feDropShadow dx="1" dy="1" stdDeviation="1.5" flood-color="#000000" flood-opacity="0.8"/>
    </filter>
    <filter id="tTextGlow">
      <feGaussianBlur in="SourceGraphic" stdDeviation="3" result="blur"/>
      <feMerge><feMergeNode in="blur"/><feMergeNode in="SourceGraphic"/></feMerge>
    </filter>
    <linearGradient id="tBannerGrad" x1="0" y1="0" x2="0" y2="1">
      <stop offset="0%" stop-color="#1A0E08" stop-opacity="0.85"/>
      <stop offset="100%" stop-color="#0D0704" stop-opacity="0.95"/>
    </linearGradient>
  </defs>

  <!-- Sky -->
  <rect width="400" height="300" fill="url(#tSkyGrad)"/>

  <!-- Moon -->
  <circle cx="320" cy="50" r="25" fill="url(#tMoon)" filter="url(#tSoftGlow)"/>
  <circle cx="320" cy="50" r="16" fill="#FFE8C0" opacity="0.9"/>
  <circle cx="315" cy="45" r="3" fill="#E8D4A0" opacity="0.3"/>
  <circle cx="325" cy="55" r="2" fill="#E8D4A0" opacity="0.25"/>

  <!-- Stars -->
  <g opacity="0.7">
    <circle cx="20" cy="15" r="1" fill="#FFE8C0"/><circle cx="55" cy="28" r="0.7" fill="#FFD700"/>
    <circle cx="90" cy="12" r="0.9" fill="#FFFFFF"/><circle cx="130" cy="35" r="0.6" fill="#E8B84B"/>
    <circle cx="165" cy="18" r="1.1" fill="#FFE8C0"/><circle cx="205" cy="8" r="0.8" fill="#FFFFFF"/>
    <circle cx="245" cy="30" r="0.7" fill="#FFD700"/><circle cx="280" cy="15" r="1" fill="#FFE8C0"/>
    <circle cx="355" cy="25" r="0.9" fill="#FFFFFF"/><circle cx="385" cy="38" r="0.6" fill="#E8B84B"/>
    <circle cx="40" cy="50" r="0.8" fill="#FFD700"/><circle cx="110" cy="55" r="0.7" fill="#FFE8C0"/>
    <circle cx="175" cy="48" r="1" fill="#FFFFFF"/><circle cx="230" cy="55" r="0.6" fill="#FFD700"/>
    <circle cx="75" cy="68" r="0.8" fill="#FFE8C0"/><circle cx="150" cy="72" r="0.6" fill="#E8B84B"/>
    <circle cx="260" cy="62" r="0.9" fill="#FFFFFF"/><circle cx="380" cy="60" r="0.7" fill="#FFD700"/>
    <circle cx="30" cy="78" r="0.5" fill="#FFE8C0"/><circle cx="195" cy="75" r="0.5" fill="#FFD700"/>
  </g>

  <!-- Smoke plumes in background -->
  <g opacity="0.15">
    <path d="M80 130 Q70 100 82 70 Q92 40 78 10" fill="none" stroke="#4A3020" stroke-width="10" stroke-linecap="round"/>
    <path d="M220 120 Q210 85 225 55 Q238 25 222 0" fill="none" stroke="#4A3020" stroke-width="12" stroke-linecap="round"/>
    <path d="M350 125 Q340 95 352 65 Q365 35 348 5" fill="none" stroke="#4A3020" stroke-width="9" stroke-linecap="round"/>
  </g>

  <!-- Background city silhouette -->
  <path d="M0 160 Q30 130 60 145 Q100 120 140 140 Q160 110 180 130 Q210 100 240 120 Q270 95 300 115 Q330 100 360 130 Q380 115 400 140 L400 300 L0 300Z" fill="#1A0E08" opacity="0.6"/>

  <!-- Factory towers in mid-ground -->
  <g opacity="0.5">
    <rect x="60" y="100" width="15" height="60" fill="#1A1210"/>
    <rect x="63" y="92" width="9" height="12" fill="#1A1210"/>
    <ellipse cx="67" cy="92" rx="7" ry="3" fill="#FF6B35" opacity="0.3" filter="url(#tGlow)"/>
    <rect x="210" y="85" width="18" height="75" fill="#1A1210"/>
    <rect x="214" y="76" width="10" height="12" fill="#1A1210"/>
    <ellipse cx="219" cy="76" rx="8" ry="3" fill="#FF6B35" opacity="0.35" filter="url(#tGlow)"/>
    <rect x="340" y="95" width="14" height="55" fill="#1A1210"/>
    <rect x="343" y="88" width="8" height="10" fill="#1A1210"/>
    <ellipse cx="347" cy="88" rx="6" ry="2.5" fill="#FF6B35" opacity="0.3" filter="url(#tGlow)"/>
  </g>

  <!-- Mid-ground buildings -->
  <g>
    <!-- Left building -->
    <rect x="0" y="140" width="80" height="160" fill="url(#tBrickGrad)"/>
    <rect x="10" y="150" width="12" height="16" rx="1" fill="#1A0E08" stroke="#3A2818" stroke-width="0.5"/>
    <rect x="35" y="150" width="12" height="16" rx="1" fill="#FF6B35" opacity="0.12" stroke="#3A2818" stroke-width="0.5"/>
    <rect x="55" y="150" width="12" height="16" rx="1" fill="#1A0E08" stroke="#3A2818" stroke-width="0.5"/>
    <rect x="10" y="180" width="12" height="16" rx="1" fill="#FFD700" opacity="0.08" stroke="#3A2818" stroke-width="0.5"/>
    <rect x="35" y="180" width="12" height="16" rx="1" fill="#1A0E08" stroke="#3A2818" stroke-width="0.5"/>
    <rect x="55" y="180" width="12" height="16" rx="1" fill="#1A0E08" stroke="#3A2818" stroke-width="0.5"/>

    <!-- Clock tower -->
    <rect x="100" y="100" width="50" height="200" fill="url(#tBrickGrad)"/>
    <path d="M100 100 L125 70 L150 100" fill="#4A3020"/>
    <circle cx="125" cy="120" r="15" fill="#F5E6CC" stroke="#6B4F30" stroke-width="2"/>
    <circle cx="125" cy="120" r="12" fill="#E8D4A0" stroke="#8B6940" stroke-width="0.8"/>
    <path d="M125 120 L125 110" stroke="#2C1810" stroke-width="1.5" stroke-linecap="round"/>
    <path d="M125 120 L133 118" stroke="#2C1810" stroke-width="1.2" stroke-linecap="round"/>
    <circle cx="125" cy="120" r="2" fill="#C8841D"/>

    <!-- Right buildings -->
    <rect x="310" y="130" width="90" height="170" fill="url(#tBrickGrad)"/>
    <rect x="320" y="142" width="10" height="14" rx="1" fill="#1A0E08" stroke="#3A2818" stroke-width="0.5"/>
    <rect x="345" y="142" width="10" height="14" rx="1" fill="#FF6B35" opacity="0.1" stroke="#3A2818" stroke-width="0.5"/>
    <rect x="370" y="142" width="10" height="14" rx="1" fill="#1A0E08" stroke="#3A2818" stroke-width="0.5"/>
    <rect x="320" y="168" width="10" height="14" rx="1" fill="#1A0E08" stroke="#3A2818" stroke-width="0.5"/>
    <rect x="345" y="168" width="10" height="14" rx="1" fill="#FFD700" opacity="0.08" stroke="#3A2818" stroke-width="0.5"/>
    <rect x="370" y="168" width="10" height="14" rx="1" fill="#1A0E08" stroke="#3A2818" stroke-width="0.5"/>
  </g>

  <!-- Ground/street -->
  <rect x="0" y="220" width="400" height="80" fill="#1A0E08" opacity="0.8"/>

  <!-- Street lamp -->
  <rect x="160" y="185" width="3" height="45" fill="#3A3A3A"/>
  <rect x="156" y="182" width="11" height="5" rx="2" fill="#4A4A4A"/>
  <circle cx="161" cy="180" r="6" fill="url(#tMoon)" opacity="0.5" filter="url(#tGlow)"/>
  <circle cx="161" cy="180" r="3" fill="#FFD700" opacity="0.7"/>

  <!-- Pipe across mid -->
  <path d="M0 200 Q100 195 200 200 Q300 205 400 198" fill="none" stroke="#6B4F30" stroke-width="4" stroke-linecap="round" opacity="0.6"/>
  <circle cx="100" cy="197" r="3" fill="#8B6940" stroke="#4A3020" stroke-width="0.5" opacity="0.5"/>
  <circle cx="300" cy="203" r="3" fill="#8B6940" stroke="#4A3020" stroke-width="0.5" opacity="0.5"/>

  <!-- === PLAYER CHARACTER (left side, heroic pose) === -->
  <g transform="translate(120, 128) scale(0.7)" filter="url(#tShadow)">
    <!-- Legs -->
    <path d="M50 95 L46 115 Q44 118 48 118 L54 118 Q56 116 55 112 L56 95Z" fill="#A0702B"/>
    <path d="M78 95 L82 115 Q84 118 80 118 L74 118 Q72 116 73 112 L72 95Z" fill="#A0702B"/>
    <!-- Torso -->
    <path d="M44 55 Q42 75 46 95 L82 95 Q86 75 84 55Z" fill="url(#tBodyGrad)" stroke="#6B3A1F" stroke-width="0.8"/>
    <path d="M48 58 Q46 72 50 90 L78 90 Q82 72 80 58Z" fill="#A0702B" stroke="#8B4513" stroke-width="0.5"/>
    <!-- Aether core -->
    <circle cx="64" cy="72" r="6" fill="url(#tAether)" filter="url(#tGlow)"/>
    <circle cx="64" cy="72" r="3" fill="#FFFFFF" opacity="0.8"/>
    <!-- Belt -->
    <rect x="46" y="88" width="36" height="4" rx="2" fill="#6B3A1F"/>
    <!-- Pipes -->
    <path d="M46 62 Q42 68 43 78 Q42 85 46 90" fill="none" stroke="#A0702B" stroke-width="2" stroke-linecap="round"/>
    <path d="M82 62 Q86 68 85 78 Q86 85 82 90" fill="none" stroke="#A0702B" stroke-width="2" stroke-linecap="round"/>
    <!-- Arms -->
    <path d="M44 58 Q36 62 33 72 Q30 80 34 88" fill="#A0702B" stroke="#6B3A1F" stroke-width="0.8"/>
    <path d="M84 58 Q92 62 95 72 Q98 80 94 88" fill="#A0702B" stroke="#6B3A1F" stroke-width="0.8"/>
    <!-- Wrench -->
    <path d="M32 86 L28 96 Q26 99 30 98 L34 94Z" fill="#C8841D"/>
    <!-- Gauntlet glow -->
    <circle cx="93" cy="90" r="3" fill="url(#tAether)" filter="url(#tGlow)" opacity="0.8"/>
    <!-- Shoulder pauldrons -->
    <path d="M40 54 Q36 52 34 56 Q32 60 38 62 L46 58Z" fill="#C8841D"/>
    <path d="M88 54 Q92 52 94 56 Q96 60 90 62 L82 58Z" fill="#C8841D"/>
    <!-- Head -->
    <path d="M46 28 Q44 18 52 12 Q58 8 64 7 Q70 8 76 12 Q84 18 82 28 L84 48 Q84 52 80 52 L48 52 Q44 52 44 48Z" fill="url(#tBodyGrad)" stroke="#6B3A1F" stroke-width="0.8"/>
    <path d="M48 30 Q46 36 50 42 L78 42 Q82 36 80 30 Q76 26 64 24 Q52 26 48 30Z" fill="#2C1810"/>
    <!-- Eyes -->
    <ellipse cx="54" cy="35" rx="4" ry="3" fill="url(#tAether)" filter="url(#tGlow)"/>
    <ellipse cx="74" cy="35" rx="4" ry="3" fill="url(#tAether)" filter="url(#tGlow)"/>
    <!-- Helmet crest -->
    <path d="M64 7 Q66 2 68 4 Q70 6 68 10 Q66 14 64 12 Q62 14 60 10 Q58 6 60 4 Q62 2 64 7Z" fill="#FF6B35" opacity="0.7"/>
    <!-- Helmet gears -->
    <circle cx="44" cy="36" r="4" fill="none" stroke="#C8841D" stroke-width="1"/>
    <circle cx="84" cy="36" r="4" fill="none" stroke="#C8841D" stroke-width="1"/>
    <!-- Steam -->
    <path d="M62 4 Q58 -2 60 -6" fill="none" stroke="#F5E6CC" stroke-width="2" opacity="0.4" stroke-linecap="round"/>
    <path d="M66 4 Q70 -3 68 -8" fill="none" stroke="#F5E6CC" stroke-width="1.5" opacity="0.3" stroke-linecap="round"/>
  </g>

  <!-- === ENEMY (right side, menacing) === -->
  <g transform="translate(230, 115) scale(0.8)" filter="url(#tShadow)">
    <!-- Corrupt aura -->
    <ellipse cx="64" cy="64" rx="40" ry="45" fill="url(#tCorrupt)" opacity="0.2"/>
    <!-- Legs -->
    <path d="M48 95 L42 112 Q38 116 42 116 L50 116Z" fill="#2C2C2C"/>
    <path d="M80 95 L86 112 Q90 116 86 116 L78 116Z" fill="#2C2C2C"/>
    <circle cx="50" cy="102" r="2.5" fill="#FF2222" filter="url(#tGlow)" opacity="0.6"/>
    <circle cx="78" cy="102" r="2.5" fill="#FF2222" filter="url(#tGlow)" opacity="0.6"/>
    <!-- Torso -->
    <path d="M40 52 Q36 70 42 95 L86 95 Q92 70 88 52Z" fill="url(#tEnemyGrad)" stroke="#1A1A1A" stroke-width="0.8"/>
    <!-- Corrupt core -->
    <circle cx="64" cy="72" r="8" fill="url(#tCorrupt)" filter="url(#tGlow)"/>
    <circle cx="64" cy="72" r="4" fill="#FF2222" opacity="0.9"/>
    <circle cx="64" cy="72" r="2" fill="#FFAAAA" opacity="0.7"/>
    <!-- Cracks -->
    <path d="M58 72 L48 68 L44 62" fill="none" stroke="#FF2222" stroke-width="0.8" opacity="0.4"/>
    <path d="M70 72 L80 68 L84 62" fill="none" stroke="#FF2222" stroke-width="0.8" opacity="0.4"/>
    <!-- Arms -->
    <path d="M40 56 Q30 60 26 72 Q22 82 26 92" fill="#3A3A3A" stroke="#1A1A1A" stroke-width="0.8"/>
    <path d="M88 56 Q98 60 102 72 Q106 82 102 88" fill="#3A3A3A" stroke="#1A1A1A" stroke-width="0.8"/>
    <!-- Saw blade -->
    <circle cx="25" cy="92" r="7" fill="none" stroke="#5C5C5C" stroke-width="1.5"/>
    <circle cx="25" cy="92" r="2.5" fill="#FF2222" filter="url(#tGlow)" opacity="0.5"/>
    <!-- Cannon -->
    <rect x="96" y="82" width="12" height="7" rx="1.5" fill="#4A4A4A"/>
    <circle cx="110" cy="85.5" r="2.5" fill="#1A1A1A"/>
    <circle cx="110" cy="85.5" r="1.2" fill="#FF2222" filter="url(#tGlow)" opacity="0.5"/>
    <!-- Shoulder spikes -->
    <path d="M36 50 L30 40 Q28 36 32 38 L40 46Z" fill="#4A4A4A"/>
    <path d="M92 50 L98 40 Q100 36 96 38 L88 46Z" fill="#4A4A4A"/>
    <!-- Head -->
    <path d="M42 24 Q40 14 50 8 Q58 4 64 3 Q70 4 78 8 Q88 14 86 24 L88 44 Q88 50 84 50 L44 50 Q40 50 40 44Z" fill="url(#tEnemyGrad)" stroke="#1A1A1A" stroke-width="0.8"/>
    <path d="M46 28 Q44 34 48 40 L80 40 Q84 34 82 28 Q78 24 64 22 Q50 24 46 28Z" fill="#0A0A0A"/>
    <!-- Red eyes -->
    <ellipse cx="52" cy="33" rx="5" ry="2.5" fill="#FF4444" filter="url(#tGlow)"/>
    <ellipse cx="76" cy="33" rx="5" ry="2.5" fill="#FF4444" filter="url(#tGlow)"/>
    <ellipse cx="52" cy="33" rx="2.5" ry="1.2" fill="#FFFFFF" opacity="0.8"/>
    <ellipse cx="76" cy="33" rx="2.5" ry="1.2" fill="#FFFFFF" opacity="0.8"/>
    <!-- Horns -->
    <path d="M44 20 Q38 10 36 4 Q34 0 38 2 Q42 6 46 16Z" fill="#4A4A4A"/>
    <path d="M84 20 Q90 10 92 4 Q94 0 90 2 Q86 6 82 16Z" fill="#4A4A4A"/>
    <!-- Corruption crown -->
    <path d="M50 8 L52 2 L56 6 L60 0 L64 5 L68 0 L72 6 L76 2 L78 8" fill="none" stroke="#FF2222" stroke-width="0.8" opacity="0.5"/>
    <!-- Corrupt smoke -->
    <path d="M60 3 Q56 -4 58 -10" fill="none" stroke="#FF2222" stroke-width="1.5" opacity="0.3" stroke-linecap="round"/>
    <path d="M68 3 Q72 -5 70 -12" fill="none" stroke="#880000" stroke-width="2" opacity="0.25" stroke-linecap="round"/>
  </g>

  <!-- Battle sparks between characters -->
  <g filter="url(#tGlow)">
    <circle cx="200" cy="185" r="3" fill="#FFD700" opacity="0.8"/>
    <circle cx="195" cy="178" r="2" fill="#FF6B35" opacity="0.6"/>
    <circle cx="207" cy="190" r="1.5" fill="#87CEEB" opacity="0.7"/>
    <path d="M193 182 L188 175" stroke="#FFD700" stroke-width="1" opacity="0.5" stroke-linecap="round"/>
    <path d="M205 187 L212 182" stroke="#FF6B35" stroke-width="1" opacity="0.5" stroke-linecap="round"/>
    <path d="M198 175 L196 168" stroke="#87CEEB" stroke-width="0.8" opacity="0.4" stroke-linecap="round"/>
  </g>

  <!-- Floating embers -->
  <g opacity="0.5">
    <circle cx="30" cy="120" r="1" fill="#FF6B35"/>
    <circle cx="80" cy="100" r="0.8" fill="#FFD700"/>
    <circle cx="180" cy="95" r="1.2" fill="#FF6B35"/>
    <circle cx="280" cy="110" r="0.9" fill="#E8B84B"/>
    <circle cx="370" cy="100" r="1" fill="#FF6B35"/>
    <circle cx="50" cy="165" r="0.7" fill="#FFD700"/>
    <circle cx="270" cy="155" r="1.1" fill="#FF6B35"/>
    <circle cx="350" cy="170" r="0.8" fill="#E8B84B"/>
  </g>

  <!-- Decorative gears in scene -->
  <g opacity="0.2">
    <circle cx="15" cy="210" r="20" fill="none" stroke="#4A3020" stroke-width="2"/>
    <circle cx="15" cy="210" r="8" fill="#2C1810" stroke="#4A3020" stroke-width="1"/>
    <circle cx="390" cy="205" r="15" fill="none" stroke="#4A3020" stroke-width="2"/>
    <circle cx="390" cy="205" r="6" fill="#2C1810" stroke="#4A3020" stroke-width="1"/>
  </g>

  <!-- === TITLE BANNER === -->
  <rect x="0" y="240" width="400" height="60" fill="url(#tBannerGrad)"/>
  <rect x="0" y="240" width="400" height="2" fill="#C8841D" opacity="0.5"/>
  <rect x="0" y="298" width="400" height="2" fill="#C8841D" opacity="0.3"/>

  <!-- Gear decorations on banner -->
  <circle cx="30" cy="270" r="10" fill="none" stroke="#C8841D" stroke-width="1" opacity="0.3"/>
  <circle cx="30" cy="270" r="4" fill="#C8841D" opacity="0.2"/>
  <circle cx="370" cy="270" r="10" fill="none" stroke="#C8841D" stroke-width="1" opacity="0.3"/>
  <circle cx="370" cy="270" r="4" fill="#C8841D" opacity="0.2"/>

  <!-- Decorative pipes on banner -->
  <path d="M50 265 Q55 260 65 260" fill="none" stroke="#6B4F30" stroke-width="1.5" opacity="0.3" stroke-linecap="round"/>
  <path d="M350 275 Q345 280 335 280" fill="none" stroke="#6B4F30" stroke-width="1.5" opacity="0.3" stroke-linecap="round"/>

  <!-- Title text -->
  <text x="200" y="262" font-size="28" font-weight="bold" fill="url(#tTitleGrad)" text-anchor="middle" font-family="'Georgia', serif" filter="url(#tTextShadow)">IRONCLAD VANGUARD</text>
  <!-- Korean subtitle -->
  <text x="200" y="285" font-size="14" fill="#E8B84B" text-anchor="middle" font-family="sans-serif" opacity="0.8" filter="url(#tTextShadow)">철갑 선봉대</text>
  <!-- Tagline -->
  <text x="200" y="296" font-size="8" fill="#A0702B" text-anchor="middle" font-family="sans-serif" opacity="0.6">STEAMPUNK TACTICAL ACTION ROGUELITE</text>

  <!-- Rivet details on banner edges -->
  <circle cx="8" cy="248" r="1.5" fill="#C8841D" opacity="0.4"/>
  <circle cx="392" cy="248" r="1.5" fill="#C8841D" opacity="0.4"/>
  <circle cx="8" cy="292" r="1.5" fill="#C8841D" opacity="0.4"/>
  <circle cx="392" cy="292" r="1.5" fill="#C8841D" opacity="0.4"/>
  <circle cx="100" cy="248" r="1" fill="#A0702B" opacity="0.3"/>
  <circle cx="200" cy="248" r="1" fill="#A0702B" opacity="0.3"/>
  <circle cx="300" cy="248" r="1" fill="#A0702B" opacity="0.3"/>

  <!-- Additional environmental detail: more buildings and windows -->
  <g opacity="0.35">
    <rect x="155" y="140" width="40" height="80" fill="url(#tBrickGrad)"/>
    <rect x="162" y="150" width="8" height="10" rx="1" fill="#1A0E08" stroke="#3A2818" stroke-width="0.4"/>
    <rect x="178" y="150" width="8" height="10" rx="1" fill="#FF6B35" opacity="0.15" stroke="#3A2818" stroke-width="0.4"/>
    <rect x="162" y="170" width="8" height="10" rx="1" fill="#FFD700" opacity="0.1" stroke="#3A2818" stroke-width="0.4"/>
    <rect x="178" y="170" width="8" height="10" rx="1" fill="#1A0E08" stroke="#3A2818" stroke-width="0.4"/>
    <rect x="265" y="135" width="45" height="85" fill="url(#tBrickGrad)"/>
    <rect x="273" y="145" width="8" height="10" rx="1" fill="#1A0E08" stroke="#3A2818" stroke-width="0.4"/>
    <rect x="292" y="145" width="8" height="10" rx="1" fill="#FF6B35" opacity="0.12" stroke="#3A2818" stroke-width="0.4"/>
    <rect x="273" y="165" width="8" height="10" rx="1" fill="#1A0E08" stroke="#3A2818" stroke-width="0.4"/>
    <rect x="292" y="165" width="8" height="10" rx="1" fill="#FFD700" opacity="0.08" stroke="#3A2818" stroke-width="0.4"/>
    <rect x="273" y="185" width="8" height="10" rx="1" fill="#1A0E08" stroke="#3A2818" stroke-width="0.4"/>
    <rect x="292" y="185" width="8" height="10" rx="1" fill="#1A0E08" stroke="#3A2818" stroke-width="0.4"/>
  </g>

  <!-- Additional detail: cobblestone texture on ground -->
  <g opacity="0.15" stroke="#3A2818" stroke-width="0.5" fill="none">
    <path d="M0 225 Q10 222 20 225 Q30 228 40 225 Q50 222 60 225 Q70 228 80 225 Q90 222 100 225 Q110 228 120 225 Q130 222 140 225 Q150 228 160 225 Q170 222 180 225 Q190 228 200 225 Q210 222 220 225 Q230 228 240 225 Q250 222 260 225 Q270 228 280 225 Q290 222 300 225 Q310 228 320 225 Q330 222 340 225 Q350 228 360 225 Q370 222 380 225 Q390 228 400 225"/>
    <path d="M0 232 Q15 229 30 232 Q45 235 60 232 Q75 229 90 232 Q105 235 120 232 Q135 229 150 232 Q165 235 180 232 Q195 229 210 232 Q225 235 240 232 Q255 229 270 232 Q285 235 300 232 Q315 229 330 232 Q345 235 360 232 Q375 229 390 232"/>
  </g>

  <!-- Additional decorative elements: barrels, crates, and pipes at street level -->
  <g opacity="0.4">
    <!-- Barrels left -->
    <ellipse cx="20" cy="222" rx="6" ry="3" fill="#5A3D28" stroke="#3A2818" stroke-width="0.5"/>
    <rect x="14" y="215" width="12" height="7" rx="2" fill="#4A3020" stroke="#3A2818" stroke-width="0.5"/>
    <path d="M16 218 L16 221 M28 218 L28 221" stroke="#6B4F30" stroke-width="0.5"/>
    <!-- Crate -->
    <rect x="35" y="214" width="10" height="10" fill="#3A2818" stroke="#2C1810" stroke-width="0.5"/>
    <path d="M36 218 L44 218 M36 222 L44 222" stroke="#4A3020" stroke-width="0.4"/>
    <!-- Right barrels -->
    <ellipse cx="385" cy="224" rx="7" ry="3.5" fill="#5A3D28" stroke="#3A2818" stroke-width="0.5"/>
    <rect x="378" y="216" width="14" height="8" rx="2" fill="#4A3020" stroke="#3A2818" stroke-width="0.5"/>
    <path d="M380 219 L380 223 M392 219 L392 223" stroke="#6B4F30" stroke-width="0.5"/>
  </g>

  <!-- Broken pipe at right ground -->
  <g opacity="0.35">
    <path d="M350 215 Q360 212 375 215 Q385 218 395 215" fill="none" stroke="#6B4F30" stroke-width="3" stroke-linecap="round"/>
    <circle cx="360" cy="213" r="2" fill="#8B6940" opacity="0.5"/>
    <ellipse cx="395" cy="210" rx="8" ry="12" fill="url(#steamVent)" opacity="0.3" transform="translate(0,0)"/>
  </g>

  <!-- More atmospheric fog wisps -->
  <g opacity="0.12">
    <path d="M0 195 Q50 188 100 195 Q150 202 200 195 Q250 188 300 195 Q350 202 400 195" fill="none" stroke="#F5E6CC" stroke-width="6" stroke-linecap="round"/>
    <path d="M0 210 Q80 204 160 210 Q240 216 320 210 Q380 204 400 210" fill="none" stroke="#F5E6CC" stroke-width="4" stroke-linecap="round"/>
  </g>

  <!-- Additional gear decorations scattered in scene -->
  <g opacity="0.15">
    <circle cx="90" cy="195" r="8" fill="none" stroke="#4A3020" stroke-width="1.5"/>
    <circle cx="90" cy="195" r="3" fill="#2C1810" stroke="#4A3020" stroke-width="0.8"/>
    <path d="M90 187 L90 203 M82 195 L98 195" stroke="#4A3020" stroke-width="0.5"/>
    <circle cx="250" cy="210" r="6" fill="none" stroke="#4A3020" stroke-width="1.2"/>
    <circle cx="250" cy="210" r="2.5" fill="#2C1810" stroke="#4A3020" stroke-width="0.6"/>
  </g>

  <!-- Steampunk decorative border corners -->
  <g opacity="0.25" stroke="#C8841D" stroke-width="1" fill="none">
    <path d="M5 5 L20 5 L20 8 M5 5 L5 20 L8 20"/>
    <path d="M395 5 L380 5 L380 8 M395 5 L395 20 L392 20"/>
    <path d="M5 237 L20 237 L20 234 M5 237 L5 222 L8 222"/>
    <path d="M395 237 L380 237 L380 234 M395 237 L395 222 L392 222"/>
    <!-- Corner rivets -->
    <circle cx="5" cy="5" r="2" fill="#C8841D"/>
    <circle cx="395" cy="5" r="2" fill="#C8841D"/>
    <circle cx="5" cy="237" r="2" fill="#C8841D"/>
    <circle cx="395" cy="237" r="2" fill="#C8841D"/>
  </g>

  <!-- Additional window lights for atmospheric detail -->
  <g opacity="0.4">
    <rect x="113" y="148" width="5" height="6" fill="#FF6B35" opacity="0.15"/>
    <rect x="133" y="148" width="5" height="6" fill="#FFD700" opacity="0.1"/>
    <rect x="113" y="170" width="5" height="6" fill="#1A0E08"/>
    <rect x="133" y="170" width="5" height="6" fill="#FF6B35" opacity="0.12"/>
    <rect x="330" y="192" width="5" height="6" fill="#FF6B35" opacity="0.1"/>
    <rect x="355" y="192" width="5" height="6" fill="#FFD700" opacity="0.08"/>
    <rect x="380" y="192" width="5" height="6" fill="#1A0E08"/>
  </g>

  <!-- Additional stars in sky (for density) -->
  <g opacity="0.5">
    <circle cx="12" cy="42" r="0.6" fill="#FFE8C0"/>
    <circle cx="48" cy="62" r="0.5" fill="#FFD700"/>
    <circle cx="95" cy="38" r="0.7" fill="#FFFFFF"/>
    <circle cx="142" cy="58" r="0.5" fill="#E8B84B"/>
    <circle cx="188" cy="42" r="0.8" fill="#FFE8C0"/>
    <circle cx="218" cy="32" r="0.5" fill="#FFD700"/>
    <circle cx="250" cy="45" r="0.6" fill="#FFFFFF"/>
    <circle cx="295" cy="38" r="0.7" fill="#E8B84B"/>
    <circle cx="340" cy="48" r="0.5" fill="#FFE8C0"/>
    <circle cx="368" cy="42" r="0.6" fill="#FFD700"/>
    <circle cx="10" cy="88" r="0.5" fill="#FFE8C0"/>
    <circle cx="65" cy="82" r="0.6" fill="#FFFFFF"/>
    <circle cx="128" cy="78" r="0.5" fill="#FFD700"/>
    <circle cx="238" cy="85" r="0.7" fill="#FFE8C0"/>
    <circle cx="305" cy="80" r="0.5" fill="#E8B84B"/>
    <circle cx="358" cy="88" r="0.6" fill="#FFFFFF"/>
    <circle cx="392" cy="72" r="0.5" fill="#FFD700"/>
    <circle cx="170" cy="30" r="0.4" fill="#FFE8C0"/>
    <circle cx="330" cy="20" r="0.4" fill="#FFFFFF"/>
    <circle cx="270" cy="68" r="0.4" fill="#E8B84B"/>
  </g>

  <!-- More floating embers for atmosphere -->
  <g opacity="0.4">
    <circle cx="15" cy="148" r="0.8" fill="#FF6B35"/>
    <circle cx="60" cy="138" r="0.6" fill="#FFD700"/>
    <circle cx="105" cy="155" r="0.9" fill="#FF6B35"/>
    <circle cx="155" cy="130" r="0.7" fill="#E8B84B"/>
    <circle cx="225" cy="142" r="1" fill="#FF6B35"/>
    <circle cx="315" cy="128" r="0.8" fill="#FFD700"/>
    <circle cx="390" cy="145" r="0.6" fill="#FF6B35"/>
    <circle cx="340" cy="155" r="0.7" fill="#E8B84B"/>
    <circle cx="45" cy="180" r="0.5" fill="#FF6B35"/>
    <circle cx="130" cy="175" r="0.6" fill="#FFD700"/>
  </g>

  <!-- Steam wisps across scene for atmosphere -->
  <g opacity="0.1">
    <path d="M50 160 Q70 155 90 160 Q110 165 130 158" fill="none" stroke="#F5E6CC" stroke-width="4" stroke-linecap="round"/>
    <path d="M250 155 Q270 148 290 155 Q310 162 330 153" fill="none" stroke="#F5E6CC" stroke-width="3" stroke-linecap="round"/>
  </g>

  <!-- Clocktower detail: bell/mechanism visible -->
  <g opacity="0.3">
    <path d="M118 85 Q125 78 132 85" fill="none" stroke="#8B6940" stroke-width="1.2"/>
    <circle cx="125" cy="83" r="2" fill="#6B4F30"/>
    <path d="M125 85 L125 90" stroke="#6B4F30" stroke-width="0.8"/>
  </g>
</svg>