<svg xmlns="http://www.w3.org/2000/svg" width="400" height="300" viewBox="0 0 400 300">
  <defs>
    <linearGradient id="tSkyGrad" x1="0" y1="0" x2="0" y2="1">
      <stop offset="0%" stop-color="#0a1628"/>
      <stop offset="25%" stop-color="#1a2a4a"/>
      <stop offset="50%" stop-color="#2a4a6a"/>
      <stop offset="70%" stop-color="#E85530"/>
      <stop offset="85%" stop-color="#F0A030"/>
      <stop offset="100%" stop-color="#FFD080"/>
    </linearGradient>
    <linearGradient id="tSeaGrad" x1="0" y1="0" x2="0" y2="1">
      <stop offset="0%" stop-color="#1A6B5A"/>
      <stop offset="50%" stop-color="#0E4A3A"/>
      <stop offset="100%" stop-color="#0a1628"/>
    </linearGradient>
    <linearGradient id="tHullGrad" x1="0" y1="0" x2="0" y2="1">
      <stop offset="0%" stop-color="#8B5E3C"/>
      <stop offset="100%" stop-color="#4A2510"/>
    </linearGradient>
    <linearGradient id="tEHullGrad" x1="0" y1="0" x2="0" y2="1">
      <stop offset="0%" stop-color="#3A1A2E"/>
      <stop offset="100%" stop-color="#1A0010"/>
    </linearGradient>
    <linearGradient id="tSailGrad" x1="0" y1="0" x2="1" y2="1">
      <stop offset="0%" stop-color="#FFF8E8"/>
      <stop offset="100%" stop-color="#E8D4A8"/>
    </linearGradient>
    <linearGradient id="tDarkSail" x1="0" y1="0" x2="0" y2="1">
      <stop offset="0%" stop-color="#2A2A2A"/>
      <stop offset="100%" stop-color="#0A0A0A"/>
    </linearGradient>
    <radialGradient id="tSunGlow" cx="0.5" cy="1" r="0.7">
      <stop offset="0%" stop-color="#FFD080" stop-opacity="0.7"/>
      <stop offset="100%" stop-color="#FFD080" stop-opacity="0"/>
    </radialGradient>
    <radialGradient id="tMoonGlow" cx="0.5" cy="0.5" r="0.5">
      <stop offset="0%" stop-color="#FFF" stop-opacity="0.7"/>
      <stop offset="100%" stop-color="#DDE8FF" stop-opacity="0"/>
    </radialGradient>
    <radialGradient id="tExplosionGlow" cx="0.5" cy="0.5" r="0.5">
      <stop offset="0%" stop-color="#FFE080" stop-opacity="0.9"/>
      <stop offset="30%" stop-color="#FF8030" stop-opacity="0.5"/>
      <stop offset="100%" stop-color="#FF3344" stop-opacity="0"/>
    </radialGradient>
    <linearGradient id="tTitleGrad" x1="0" y1="0" x2="0" y2="1">
      <stop offset="0%" stop-color="#FFD700"/>
      <stop offset="50%" stop-color="#F0A030"/>
      <stop offset="100%" stop-color="#B87820"/>
    </linearGradient>
    <linearGradient id="tBannerGrad" x1="0" y1="0" x2="0" y2="1">
      <stop offset="0%" stop-color="#0a1628" stop-opacity="0.85"/>
      <stop offset="100%" stop-color="#0a1628" stop-opacity="0.95"/>
    </linearGradient>
    <radialGradient id="tCannonFlash" cx="0.5" cy="0.5" r="0.5">
      <stop offset="0%" stop-color="#FFF" stop-opacity="1"/>
      <stop offset="30%" stop-color="#FFE080" stop-opacity="0.7"/>
      <stop offset="100%" stop-color="#FF8030" stop-opacity="0"/>
    </radialGradient>
    <filter id="tGlow">
      <feGaussianBlur stdDeviation="2" result="blur"/>
      <feMerge><feMergeNode in="blur"/><feMergeNode in="SourceGraphic"/></feMerge>
    </filter>
    <filter id="tSoftBlur">
      <feGaussianBlur stdDeviation="1.5"/>
    </filter>
    <filter id="tShadow">
      <feDropShadow dx="1" dy="1" stdDeviation="1" flood-color="#000" flood-opacity="0.5"/>
    </filter>
    <filter id="tTextGlow">
      <feGaussianBlur stdDeviation="3" result="blur"/>
      <feMerge><feMergeNode in="blur"/><feMergeNode in="SourceGraphic"/></feMerge>
    </filter>
    <filter id="tTextShadow">
      <feDropShadow dx="1" dy="2" stdDeviation="2" flood-color="#000" flood-opacity="0.8"/>
    </filter>
    <filter id="tFog">
      <feGaussianBlur stdDeviation="5"/>
    </filter>
  </defs>

  <!-- Sky -->
  <rect width="400" height="300" fill="url(#tSkyGrad)"/>

  <!-- Nebula atmospheric -->
  <ellipse cx="100" cy="50" rx="80" ry="40" fill="#4466AA" opacity="0.08" filter="url(#tSoftBlur)"/>
  <ellipse cx="320" cy="40" rx="70" ry="35" fill="#AA4466" opacity="0.06" filter="url(#tSoftBlur)"/>

  <!-- Moon -->
  <g filter="url(#tGlow)">
    <circle cx="60" cy="35" r="14" fill="url(#tMoonGlow)"/>
    <circle cx="60" cy="35" r="10" fill="#DDE8FF" opacity="0.5"/>
    <circle cx="64" cy="33" r="9" fill="#0a1628" opacity="0.25"/>
  </g>

  <!-- Stars -->
  <g id="tStars">
    <circle cx="20" cy="15" r="0.8" fill="#FFF" opacity="0.7"/><circle cx="50" cy="8" r="0.5" fill="#FFF" opacity="0.5"/>
    <circle cx="90" cy="18" r="0.7" fill="#FFF" opacity="0.6"/><circle cx="130" cy="10" r="0.9" fill="#DDE8FF" opacity="0.7"/>
    <circle cx="170" cy="22" r="0.5" fill="#FFF" opacity="0.5"/><circle cx="210" cy="12" r="0.8" fill="#FFF" opacity="0.6"/>
    <circle cx="250" cy="20" r="0.6" fill="#DDE8FF" opacity="0.5"/><circle cx="290" cy="8" r="0.9" fill="#FFF" opacity="0.7"/>
    <circle cx="330" cy="25" r="0.5" fill="#FFF" opacity="0.45"/><circle cx="370" cy="14" r="0.7" fill="#FFF" opacity="0.55"/>
    <circle cx="35" cy="45" r="0.6" fill="#FFF" opacity="0.4"/><circle cx="110" cy="42" r="0.5" fill="#FFF" opacity="0.35"/>
    <circle cx="155" cy="55" r="0.7" fill="#DDE8FF" opacity="0.4"/><circle cx="195" cy="38" r="0.5" fill="#FFF" opacity="0.35"/>
    <circle cx="230" cy="50" r="0.6" fill="#FFF" opacity="0.4"/><circle cx="270" cy="35" r="0.8" fill="#DDE8FF" opacity="0.5"/>
    <circle cx="310" cy="48" r="0.5" fill="#FFF" opacity="0.35"/><circle cx="350" cy="42" r="0.7" fill="#FFF" opacity="0.45"/>
    <circle cx="385" cy="30" r="0.6" fill="#FFF" opacity="0.4"/><circle cx="15" cy="60" r="0.5" fill="#FFF" opacity="0.3"/>
    <circle cx="80" cy="65" r="0.4" fill="#FFF" opacity="0.3"/><circle cx="140" cy="70" r="0.6" fill="#DDE8FF" opacity="0.35"/>
    <circle cx="260" cy="62" r="0.5" fill="#FFF" opacity="0.3"/><circle cx="340" cy="58" r="0.4" fill="#FFF" opacity="0.25"/>
    <circle cx="390" cy="52" r="0.5" fill="#FFF" opacity="0.3"/>
  </g>

  <!-- Clouds -->
  <g filter="url(#tSoftBlur)">
    <ellipse cx="80" cy="95" rx="50" ry="10" fill="#FF9060" opacity="0.2"/>
    <ellipse cx="220" cy="105" rx="60" ry="12" fill="#FF9060" opacity="0.15"/>
    <ellipse cx="350" cy="90" rx="45" ry="9" fill="#FF9060" opacity="0.18"/>
  </g>

  <!-- Sunset glow on horizon -->
  <rect x="0" y="120" width="400" height="40" fill="url(#tSunGlow)" opacity="0.5"/>

  <!-- Light beams -->
  <g opacity="0.06">
    <polygon points="160,140 170,40 180,140" fill="#FFD080"/>
    <polygon points="220,140 235,50 250,140" fill="#FFD080"/>
    <polygon points="120,140 125,60 130,140" fill="#FFD080"/>
    <polygon points="280,140 290,55 300,140" fill="#FFD080"/>
  </g>

  <!-- Distant island silhouettes -->
  <path d="M0,145 Q30,130 60,138 Q90,125 120,140 L120,155 L0,155Z" fill="#1A3A2A" opacity="0.3"/>
  <path d="M280,148 Q310,132 340,142 Q370,128 400,145 L400,158 L280,158Z" fill="#1A3A2A" opacity="0.25"/>
  <!-- Palm tree -->
  <path d="M50,136 L52,120 Q48,114 42,116 Q46,112 44,108 Q50,114 54,110 Q52,116 56,114 Q54,118 58,120 Q52,118 52,120" fill="#1A3A2A" opacity="0.4"/>

  <!-- Sea -->
  <rect x="0" y="148" width="400" height="152" fill="url(#tSeaGrad)"/>

  <!-- Wave patterns -->
  <g opacity="0.15">
    <path d="M0,155 Q20,150 40,155 Q60,160 80,155 Q100,150 120,155 Q140,160 160,155 Q180,150 200,155 Q220,160 240,155 Q260,150 280,155 Q300,160 320,155 Q340,150 360,155 Q380,160 400,155" stroke="#2CB49C" stroke-width="0.8" fill="none"/>
    <path d="M0,168 Q25,163 50,168 Q75,173 100,168 Q125,163 150,168 Q175,173 200,168 Q225,163 250,168 Q275,173 300,168 Q325,163 350,168 Q375,173 400,168" stroke="#1A6B5A" stroke-width="0.6" fill="none"/>
  </g>

  <!-- PLAYER SHIP (left, heroic) -->
  <g id="tPlayerShip" transform="translate(100, 155)" filter="url(#tShadow)">
    <!-- Hull -->
    <path d="M-35,15 Q-30,5 -20,0 L30,0 Q35,5 40,15 Q35,20 25,24 L-20,24 Q-30,20 -35,15Z" fill="url(#tHullGrad)"/>
    <line x1="-28" y1="8" x2="34" y2="8" stroke="#4A2510" stroke-width="0.5" opacity="0.4"/>
    <line x1="-30" y1="14" x2="36" y2="14" stroke="#4A2510" stroke-width="0.5" opacity="0.4"/>
    <!-- Portholes -->
    <circle cx="-10" cy="14" r="2" fill="#0a1628" stroke="#F0A030" stroke-width="0.5"/>
    <circle cx="-10" cy="14" r="1" fill="#44ddff" opacity="0.4"/>
    <circle cx="5" cy="14" r="2" fill="#0a1628" stroke="#F0A030" stroke-width="0.5"/>
    <circle cx="5" cy="14" r="1" fill="#44ddff" opacity="0.4"/>
    <circle cx="20" cy="14" r="2" fill="#0a1628" stroke="#F0A030" stroke-width="0.5"/>
    <circle cx="20" cy="14" r="1" fill="#44ddff" opacity="0.4"/>
    <!-- Bow ornament -->
    <path d="M-38,14 Q-42,10 -44,4 Q-42,2 -38,4 Q-36,8 -35,14Z" fill="#F0A030"/>
    <!-- Mast -->
    <rect x="3" y="-45" width="2.5" height="48" fill="#5A3818"/>
    <rect x="4" y="-45" width="1" height="48" fill="#7A5838" opacity="0.3"/>
    <!-- Cross beam -->
    <rect x="-18" y="-30" width="44" height="2" fill="#5A3818"/>
    <!-- Sail -->
    <path d="M-16,-28 Q-14,-32 5,-34 Q24,-32 26,-28 L26,-6 Q24,-2 5,0 Q-14,-2 -16,-6Z" fill="url(#tSailGrad)" stroke="#C8B090" stroke-width="0.3"/>
    <!-- Sail stripe -->
    <path d="M-14,-20 Q0,-22 5,-22 Q10,-22 24,-20 L24,-14 Q10,-16 5,-16 Q0,-16 -14,-14Z" fill="#E85530" opacity="0.8"/>
    <!-- Skull on sail -->
    <circle cx="5" cy="-17" r="2.5" fill="#FFF8E8" opacity="0.8"/>
    <circle cx="4" cy="-18" r="0.7" fill="#1A1A2E"/>
    <circle cx="6" cy="-18" r="0.7" fill="#1A1A2E"/>
    <!-- Flag -->
    <line x1="4" y1="-45" x2="4" y2="-52" stroke="#5A3818" stroke-width="1"/>
    <path d="M4,-52 Q10,-54 14,-50 Q10,-48 4,-50Z" fill="#1A1A2E"/>
    <!-- Cannon firing! -->
    <rect x="-30" y="6" width="6" height="2" rx="0.5" fill="#333" transform="rotate(-8, -27, 7)"/>
    <circle cx="-36" cy="5" r="5" fill="url(#tCannonFlash)" filter="url(#tGlow)"/>
  </g>

  <!-- CANNON BALL TRAJECTORY -->
  <g opacity="0.5">
    <circle cx="180" cy="148" r="2" fill="#333"/>
    <path d="M70,150 Q130,138 180,148" stroke="#555" stroke-width="0.5" fill="none" stroke-dasharray="3,3" opacity="0.3"/>
  </g>

  <!-- EXPLOSION between ships -->
  <g filter="url(#tGlow)">
    <circle cx="200" cy="150" r="18" fill="url(#tExplosionGlow)" opacity="0.7"/>
    <circle cx="200" cy="150" r="8" fill="#FFE080" opacity="0.6"/>
    <circle cx="200" cy="150" r="3" fill="#FFF" opacity="0.8"/>
    <!-- Debris -->
    <circle cx="188" cy="142" r="1" fill="#8B5E3C" opacity="0.6"/>
    <circle cx="212" cy="144" r="0.8" fill="#6B3A1F" opacity="0.5"/>
    <path d="M195,140 L192,136" stroke="#8B5E3C" stroke-width="1" opacity="0.5"/>
    <path d="M206,142 L210,138" stroke="#6B3A1F" stroke-width="0.8" opacity="0.4"/>
  </g>

  <!-- ENEMY SHIP (right, menacing) -->
  <g id="tEnemyShip" transform="translate(290, 150)" filter="url(#tShadow)">
    <!-- Hull -->
    <path d="M-30,18 Q-26,8 -18,4 L28,4 Q34,8 38,18 Q34,22 24,26 L-18,26 Q-26,22 -30,18Z" fill="url(#tEHullGrad)"/>
    <!-- Red glow portholes -->
    <circle cx="-8" cy="16" r="2.5" fill="#1A0010" stroke="#8B0000" stroke-width="0.5"/>
    <circle cx="-8" cy="16" r="1.2" fill="#FF3344" opacity="0.6"/>
    <circle cx="8" cy="16" r="2.5" fill="#1A0010" stroke="#8B0000" stroke-width="0.5"/>
    <circle cx="8" cy="16" r="1.2" fill="#FF3344" opacity="0.6"/>
    <!-- Bow ram -->
    <path d="M40,16 Q44,12 46,6 Q44,4 42,6 Q40,10 38,16Z" fill="#4A1A2E"/>
    <!-- Mast -->
    <rect x="2" y="-40" width="2.5" height="46" fill="#2A1A18"/>
    <rect x="-16" y="-28" width="38" height="2" fill="#2A1A18"/>
    <!-- Dark sail -->
    <path d="M-14,-26 Q-12,-30 3,-32 Q18,-30 20,-26 L20,-4 Q18,0 3,2 Q-12,0 -14,-4Z" fill="url(#tDarkSail)" stroke="#3A2A2E" stroke-width="0.3"/>
    <!-- Red skull -->
    <circle cx="3" cy="-15" r="3" fill="none" stroke="#FF3344" stroke-width="0.8" opacity="0.8"/>
    <circle cx="1.5" cy="-16" r="0.8" fill="#FF3344" opacity="0.7"/>
    <circle cx="4.5" cy="-16" r="0.8" fill="#FF3344" opacity="0.7"/>
    <!-- Ghost fire -->
    <g filter="url(#tGlow)">
      <ellipse cx="3" cy="-44" rx="3" ry="5" fill="#FF3344" opacity="0.25"/>
      <ellipse cx="3" cy="-45" rx="1.5" ry="3" fill="#FF6655" opacity="0.4"/>
    </g>
    <!-- Tattered sail edges -->
    <path d="M-14,-4 Q-12,-8 -14,-12" fill="#0A1628" opacity="0.6"/>
    <!-- Cannon -->
    <rect x="-26" y="10" width="6" height="2" rx="0.5" fill="#1A0A0A" transform="rotate(8, -23, 11)"/>
  </g>

  <!-- Water splashes -->
  <g opacity="0.2">
    <path d="M60,178 Q68,172 76,178" stroke="#2CB49C" stroke-width="0.8" fill="none"/>
    <path d="M320,175 Q328,170 336,175" stroke="#2CB49C" stroke-width="0.8" fill="none"/>
    <circle cx="150" cy="170" r="1" fill="#2CB49C" opacity="0.3"/>
    <circle cx="250" cy="172" r="0.8" fill="#2CB49C" opacity="0.25"/>
  </g>

  <!-- Sunset reflection on sea -->
  <g filter="url(#tSoftBlur)">
    <rect x="150" y="155" width="100" height="30" fill="#F0A030" opacity="0.06"/>
    <path d="M180,155 L180,185 M200,155 L200,180 M220,155 L220,185" stroke="#FFD080" stroke-width="2" opacity="0.03"/>
  </g>

  <!-- Sea fog -->
  <g filter="url(#tFog)">
    <ellipse cx="200" cy="190" rx="150" ry="15" fill="#FFF" opacity="0.03"/>
    <ellipse cx="100" cy="200" rx="80" ry="10" fill="#2CB49C" opacity="0.02"/>
  </g>

  <!-- Phosphorescent particles -->
  <g opacity="0.25">
    <circle cx="50" cy="190" r="0.8" fill="#44DDFF"/><circle cx="120" cy="200" r="0.6" fill="#2CB49C"/>
    <circle cx="200" cy="195" r="0.7" fill="#44DDFF"/><circle cx="280" cy="185" r="0.5" fill="#44DDFF"/>
    <circle cx="350" cy="195" r="0.8" fill="#2CB49C"/><circle cx="170" cy="210" r="0.6" fill="#44DDFF"/>
    <circle cx="310" cy="205" r="0.5" fill="#2CB49C"/><circle cx="85" cy="215" r="0.7" fill="#44DDFF"/>
  </g>

  <!-- Birds -->
  <g opacity="0.2">
    <path d="M120,80 Q125,75 130,80 Q135,75 140,80" stroke="#1A2A3A" stroke-width="0.8" fill="none"/>
    <path d="M150,88 Q153,85 156,88" stroke="#1A2A3A" stroke-width="0.6" fill="none"/>
  </g>

  <!-- Compass rose watermark -->
  <g transform="translate(370, 30)" opacity="0.1">
    <path d="M0,-12 L2,-4 L0,-2 L-2,-4Z" fill="#F0A030"/>
    <path d="M0,12 L-2,4 L0,2 L2,4Z" fill="#F0A030"/>
    <path d="M-12,0 L-4,-2 L-2,0 L-4,2Z" fill="#F0A030"/>
    <path d="M12,0 L4,2 L2,0 L4,-2Z" fill="#F0A030"/>
    <circle cx="0" cy="0" r="1" fill="#F0A030"/>
  </g>

  <!-- Raindrops (dramatic weather) -->
  <g opacity="0.06">
    <line x1="30" y1="0" x2="25" y2="30" stroke="#AAC" stroke-width="0.5"/>
    <line x1="70" y1="10" x2="65" y2="45" stroke="#AAC" stroke-width="0.5"/>
    <line x1="115" y1="5" x2="110" y2="35" stroke="#AAC" stroke-width="0.5"/>
    <line x1="160" y1="0" x2="155" y2="25" stroke="#AAC" stroke-width="0.5"/>
    <line x1="210" y1="8" x2="205" y2="40" stroke="#AAC" stroke-width="0.5"/>
    <line x1="260" y1="3" x2="255" y2="30" stroke="#AAC" stroke-width="0.5"/>
    <line x1="305" y1="12" x2="300" y2="42" stroke="#AAC" stroke-width="0.5"/>
    <line x1="345" y1="0" x2="340" y2="28" stroke="#AAC" stroke-width="0.5"/>
    <line x1="380" y1="6" x2="375" y2="34" stroke="#AAC" stroke-width="0.5"/>
    <line x1="50" y1="50" x2="45" y2="80" stroke="#AAC" stroke-width="0.4"/>
    <line x1="140" y1="55" x2="135" y2="82" stroke="#AAC" stroke-width="0.4"/>
    <line x1="240" y1="48" x2="235" y2="75" stroke="#AAC" stroke-width="0.4"/>
    <line x1="330" y1="52" x2="325" y2="78" stroke="#AAC" stroke-width="0.4"/>
    <line x1="390" y1="45" x2="385" y2="72" stroke="#AAC" stroke-width="0.4"/>
    <line x1="15" y1="90" x2="10" y2="115" stroke="#AAC" stroke-width="0.4"/>
  </g>

  <!-- Additional sea detail: floating debris and treasure -->
  <g id="seaDebris" opacity="0.35">
    <!-- Barrel -->
    <ellipse cx="50" cy="175" rx="5" ry="3.5" fill="#6B4A28" stroke="#4A2810" stroke-width="0.3"/>
    <line x1="47" y1="174" x2="47" y2="177" stroke="#4A2810" stroke-width="0.3"/>
    <line x1="53" y1="174" x2="53" y2="177" stroke="#4A2810" stroke-width="0.3"/>
    <!-- Crate -->
    <rect x="340" y="170" width="8" height="6" fill="#5A3818" stroke="#3A2008" stroke-width="0.3" transform="rotate(5, 344, 173)"/>
    <!-- Treasure chest glint -->
    <rect x="368" y="168" width="7" height="5" rx="1" fill="#6B4A28" stroke="#F0A030" stroke-width="0.3"/>
    <circle cx="372" cy="170" r="1" fill="#FFD700" opacity="0.6" filter="url(#tGlow)"/>
    <!-- Floating planks -->
    <rect x="145" y="178" width="12" height="2" rx="0.5" fill="#5A3818" opacity="0.4" transform="rotate(-8, 151, 179)"/>
    <rect x="230" y="182" width="9" height="1.5" rx="0.5" fill="#4A2810" opacity="0.35" transform="rotate(12, 234, 183)"/>
  </g>

  <!-- Kraken tentacle hint (dramatic!) -->
  <g opacity="0.15">
    <path d="M375,185 Q380,175 378,165 Q382,158 385,160 Q384,168 386,175 Q382,185 378,190" fill="#2A1A4E" stroke="#5A3A6E" stroke-width="0.5"/>
    <circle cx="378" cy="168" r="1.5" fill="#8B4A8E" opacity="0.3"/>
    <circle cx="380" cy="174" r="1" fill="#8B4A8E" opacity="0.25"/>
  </g>

  <!-- More wave foam -->
  <g opacity="0.1">
    <path d="M0,160 Q10,155 20,160 Q30,165 40,160" stroke="#FFF" stroke-width="0.6" fill="none"/>
    <path d="M100,165 Q115,160 130,165" stroke="#FFF" stroke-width="0.5" fill="none"/>
    <path d="M260,162 Q275,157 290,162" stroke="#FFF" stroke-width="0.5" fill="none"/>
    <path d="M350,167 Q360,162 370,167 Q380,172 390,167 Q395,165 400,168" stroke="#FFF" stroke-width="0.5" fill="none"/>
  </g>

  <!-- Distant fleet silhouettes -->
  <g opacity="0.1">
    <path d="M10,148 Q12,144 16,143 L22,143 Q24,144 26,148Z" fill="#1A2A3A"/>
    <rect x="18" y="138" width="0.8" height="6" fill="#1A2A3A"/>
    <path d="M18,138 Q21,137 23,139 L23,142 Q21,141 18,142Z" fill="#1A2A3A"/>
    <path d="M370,146 Q372,142 376,141 L382,141 Q384,142 386,146Z" fill="#1A2A3A"/>
    <rect x="378" y="136" width="0.8" height="6" fill="#1A2A3A"/>
    <path d="M378,136 Q381,135 383,137 L383,140 Q381,139 378,140Z" fill="#1A2A3A"/>
  </g>

  <!-- Additional atmospheric glow spots -->
  <g filter="url(#tSoftBlur)" opacity="0.05">
    <circle cx="100" cy="140" r="20" fill="#F0A030"/>
    <circle cx="300" cy="135" r="18" fill="#E85530"/>
    <circle cx="200" cy="120" r="25" fill="#FFD080"/>
  </g>

  <!-- Rope/rigging details on player ship -->
  <g opacity="0.15">
    <path d="M96,108 Q100,95 104,108" stroke="#8B7B5A" stroke-width="0.4" fill="none"/>
    <path d="M82,155 Q90,130 104,110" stroke="#8B7B5A" stroke-width="0.3" fill="none"/>
    <path d="M120,155 Q112,130 104,110" stroke="#8B7B5A" stroke-width="0.3" fill="none"/>
  </g>

  <!-- HUD overlay hints -->
  <g opacity="0.12">
    <!-- Health bar hint top-left -->
    <rect x="8" y="8" width="50" height="6" rx="2" fill="#1A1A2E" stroke="#F0A030" stroke-width="0.3"/>
    <rect x="9" y="9" width="35" height="4" rx="1.5" fill="#E83344" opacity="0.6"/>
    <!-- Score hint top-right -->
    <circle cx="380" cy="11" r="4" fill="#FFD700" opacity="0.3"/>
    <text x="372" y="13" font-family="sans-serif" font-size="5" fill="#FFD700" opacity="0.4">1250</text>
  </g>

  <!-- TITLE BANNER -->
  <g id="titleBanner">
    <!-- Banner background -->
    <rect x="30" y="228" width="340" height="58" rx="4" fill="url(#tBannerGrad)"/>
    <rect x="32" y="230" width="336" height="54" rx="3" fill="none" stroke="#F0A030" stroke-width="1" opacity="0.4"/>
    <!-- Decorative rope border -->
    <rect x="34" y="232" width="332" height="50" rx="2" fill="none" stroke="#8B7B5A" stroke-width="0.5" opacity="0.2" stroke-dasharray="4,3"/>

    <!-- Title text -->
    <g filter="url(#tTextShadow)">
      <text x="200" y="258" text-anchor="middle" font-family="Georgia, serif" font-size="28" font-weight="bold" fill="url(#tTitleGrad)">CORSAIR TIDES</text>
    </g>
    <!-- Subtitle -->
    <text x="200" y="276" text-anchor="middle" font-family="Georgia, serif" font-size="12" fill="#F5E6C8" opacity="0.8">해적의 조류</text>

    <!-- Decorative anchors on banner sides -->
    <g transform="translate(52, 255)" opacity="0.4">
      <path d="M0,-5 L0,4 M-3,4 Q0,7 3,4 M-2,-2 Q0,-1 2,-2" stroke="#F0A030" stroke-width="1" fill="none" stroke-linecap="round"/>
      <circle cx="0" cy="-6" r="1.2" fill="#F0A030"/>
    </g>
    <g transform="translate(348, 255)" opacity="0.4">
      <path d="M0,-5 L0,4 M-3,4 Q0,7 3,4 M-2,-2 Q0,-1 2,-2" stroke="#F0A030" stroke-width="1" fill="none" stroke-linecap="round"/>
      <circle cx="0" cy="-6" r="1.2" fill="#F0A030"/>
    </g>

    <!-- Corner ornaments -->
    <path d="M34,232 Q42,236 38,244" stroke="#F0A030" stroke-width="0.5" fill="none" opacity="0.3"/>
    <path d="M366,232 Q358,236 362,244" stroke="#F0A030" stroke-width="0.5" fill="none" opacity="0.3"/>
    <path d="M34,278 Q42,274 38,266" stroke="#F0A030" stroke-width="0.5" fill="none" opacity="0.3"/>
    <path d="M366,278 Q358,274 362,266" stroke="#F0A030" stroke-width="0.5" fill="none" opacity="0.3"/>

    <!-- Skull and crossbones icon -->
    <g transform="translate(200, 245)" opacity="0.15">
      <circle cx="0" cy="-2" r="3" fill="#F0A030"/>
      <path d="M-4,2 L4,2 M-3,-1 L3,-1" stroke="#F0A030" stroke-width="0.5"/>
    </g>
  </g>

  <!-- Vignette corners -->
  <g opacity="0.3">
    <rect x="0" y="0" width="60" height="60" fill="url(#tSkyGrad)" opacity="0.15" rx="30"/>
    <rect x="340" y="0" width="60" height="60" fill="url(#tSkyGrad)" opacity="0.15" rx="30"/>
  </g>

  <!-- Film grain texture overlay -->
  <g opacity="0.02">
    <circle cx="20" cy="20" r="0.5" fill="#FFF"/><circle cx="50" cy="40" r="0.3" fill="#FFF"/>
    <circle cx="80" cy="15" r="0.4" fill="#FFF"/><circle cx="120" cy="50" r="0.3" fill="#FFF"/>
    <circle cx="160" cy="30" r="0.5" fill="#FFF"/><circle cx="200" cy="60" r="0.3" fill="#FFF"/>
    <circle cx="240" cy="25" r="0.4" fill="#FFF"/><circle cx="280" cy="55" r="0.3" fill="#FFF"/>
    <circle cx="320" cy="35" r="0.5" fill="#FFF"/><circle cx="360" cy="45" r="0.3" fill="#FFF"/>
    <circle cx="40" cy="80" r="0.3" fill="#FFF"/><circle cx="100" cy="95" r="0.4" fill="#FFF"/>
    <circle cx="180" cy="85" r="0.3" fill="#FFF"/><circle cx="260" cy="100" r="0.5" fill="#FFF"/>
    <circle cx="340" cy="75" r="0.3" fill="#FFF"/><circle cx="380" cy="90" r="0.4" fill="#FFF"/>
    <circle cx="30" cy="120" r="0.3" fill="#FFF"/><circle cx="90" cy="140" r="0.4" fill="#FFF"/>
    <circle cx="170" cy="130" r="0.3" fill="#FFF"/><circle cx="250" cy="145" r="0.5" fill="#FFF"/>
    <circle cx="330" cy="125" r="0.3" fill="#FFF"/><circle cx="370" cy="135" r="0.4" fill="#FFF"/>
  </g>
</svg>